<svg width="147" height="128" viewBox="0 0 147 128" fill="none" xmlns="http://www.w3.org/2000/svg">
<path d="M22.0804 74.6774H18.4799L17.8841 76.3999H15.9803L19.2311 67.3469H21.3422L24.593 76.3999H22.6762L22.0804 74.6774ZM21.5882 73.2268L20.2802 69.445L18.9721 73.2268H21.5882ZM25.3418 72.8124C25.3418 72.0698 25.4929 71.4223 25.7951 70.8697C26.0973 70.3084 26.5161 69.8767 27.0514 69.5745C27.5867 69.2637 28.1998 69.1083 28.8905 69.1083C29.7798 69.1083 30.5137 69.3328 31.0922 69.7817C31.6794 70.2221 32.0722 70.8438 32.2708 71.6467H30.3152C30.2115 71.3359 30.0345 71.0941 29.7841 70.9215C29.5424 70.7401 29.2402 70.6495 28.8775 70.6495C28.3595 70.6495 27.9494 70.8394 27.6472 71.2193C27.345 71.5906 27.1939 72.1216 27.1939 72.8124C27.1939 73.4945 27.345 74.0255 27.6472 74.4054C27.9494 74.7767 28.3595 74.9623 28.8775 74.9623C29.6115 74.9623 30.0907 74.6342 30.3152 73.978H32.2708C32.0722 74.7551 31.6794 75.3724 31.0922 75.83C30.5051 76.2877 29.7712 76.5165 28.8905 76.5165C28.1998 76.5165 27.5867 76.3654 27.0514 76.0632C26.5161 75.7523 26.0973 75.3206 25.7951 74.768C25.4929 74.2068 25.3418 73.5549 25.3418 72.8124ZM33.1329 72.8124C33.1329 72.0698 33.284 71.4223 33.5862 70.8697C33.8884 70.3084 34.3071 69.8767 34.8425 69.5745C35.3778 69.2637 35.9908 69.1083 36.6816 69.1083C37.5709 69.1083 38.3048 69.3328 38.8833 69.7817C39.4704 70.2221 39.8633 70.8438 40.0619 71.6467H38.1062C38.0026 71.3359 37.8256 71.0941 37.5752 70.9215C37.3335 70.7401 37.0313 70.6495 36.6686 70.6495C36.1506 70.6495 35.7404 70.8394 35.4382 71.2193C35.136 71.5906 34.9849 72.1216 34.9849 72.8124C34.9849 73.4945 35.136 74.0255 35.4382 74.4054C35.7404 74.7767 36.1506 74.9623 36.6686 74.9623C37.4025 74.9623 37.8817 74.6342 38.1062 73.978H40.0619C39.8633 74.7551 39.4704 75.3724 38.8833 75.83C38.2962 76.2877 37.5623 76.5165 36.6816 76.5165C35.9908 76.5165 35.3778 76.3654 34.8425 76.0632C34.3071 75.7523 33.8884 75.3206 33.5862 74.768C33.284 74.2068 33.1329 73.5549 33.1329 72.8124ZM48.0602 72.657C48.0602 72.916 48.0429 73.1491 48.0084 73.3563H42.7631C42.8062 73.8744 42.9875 74.2802 43.307 74.5738C43.6265 74.8673 44.0193 75.0141 44.4856 75.0141C45.1591 75.0141 45.6383 74.7249 45.9232 74.1464H47.8789C47.6716 74.8371 47.2745 75.407 46.6873 75.8559C46.1002 76.2963 45.3792 76.5165 44.5244 76.5165C43.8337 76.5165 43.212 76.3654 42.6594 76.0632C42.1155 75.7523 41.6881 75.3163 41.3773 74.7551C41.0751 74.1938 40.924 73.5463 40.924 72.8124C40.924 72.0698 41.0751 71.4179 41.3773 70.8567C41.6795 70.2955 42.1025 69.8638 42.6465 69.5616C43.1905 69.2594 43.8164 69.1083 44.5244 69.1083C45.2066 69.1083 45.8153 69.2551 46.3506 69.5486C46.8945 69.8422 47.3133 70.2609 47.6069 70.8049C47.9091 71.3402 48.0602 71.9576 48.0602 72.657ZM46.1822 72.1389C46.1736 71.6726 46.0052 71.3014 45.6771 71.0251C45.349 70.7401 44.9475 70.5977 44.4726 70.5977C44.0237 70.5977 43.6438 70.7358 43.3329 71.0121C43.0307 71.2798 42.8451 71.6554 42.776 72.1389H46.1822ZM52.1293 76.5165C51.5422 76.5165 51.0155 76.4129 50.5493 76.2056C50.083 75.9898 49.7117 75.7005 49.4354 75.3379C49.1678 74.9752 49.021 74.5738 48.9951 74.1334H50.8212C50.8558 74.4097 50.9896 74.6385 51.2227 74.8198C51.4645 75.0012 51.7624 75.0918 52.1164 75.0918C52.4618 75.0918 52.7294 75.0227 52.9194 74.8846C53.118 74.7464 53.2173 74.5694 53.2173 74.3536C53.2173 74.1205 53.0964 73.9478 52.8546 73.8355C52.6215 73.7146 52.2459 73.5851 51.7278 73.447C51.1925 73.3175 50.7522 73.1836 50.4068 73.0455C50.0701 72.9073 49.7765 72.6958 49.5261 72.4109C49.2843 72.1259 49.1635 71.7417 49.1635 71.2582C49.1635 70.861 49.2757 70.4984 49.5002 70.1703C49.7333 69.8422 50.0614 69.5832 50.4845 69.3932C50.9162 69.2032 51.4213 69.1083 51.9998 69.1083C52.8546 69.1083 53.5367 69.3241 54.0461 69.7558C54.5556 70.1789 54.8362 70.7531 54.888 71.4784H53.1525C53.1266 71.1934 53.0057 70.969 52.7899 70.8049C52.5826 70.6322 52.302 70.5459 51.948 70.5459C51.6199 70.5459 51.3652 70.6063 51.1839 70.7272C51.0112 70.8481 50.9249 71.0164 50.9249 71.2323C50.9249 71.4741 51.0457 71.6597 51.2875 71.7892C51.5293 71.9101 51.9048 72.0353 52.4143 72.1648C52.9323 72.2943 53.3597 72.4281 53.6965 72.5663C54.0332 72.7044 54.3224 72.9203 54.5642 73.2139C54.8146 73.4988 54.9441 73.8787 54.9527 74.3536C54.9527 74.768 54.8362 75.1393 54.6031 75.4674C54.3786 75.7955 54.0505 76.0545 53.6187 76.2445C53.1957 76.4258 52.6992 76.5165 52.1293 76.5165ZM59.1868 76.5165C58.5997 76.5165 58.073 76.4129 57.6068 76.2056C57.1405 75.9898 56.7692 75.7005 56.4929 75.3379C56.2253 74.9752 56.0785 74.5738 56.0526 74.1334H57.8787C57.9133 74.4097 58.0471 74.6385 58.2802 74.8198C58.522 75.0012 58.8199 75.0918 59.1739 75.0918C59.5193 75.0918 59.7869 75.0227 59.9769 74.8846C60.1755 74.7464 60.2748 74.5694 60.2748 74.3536C60.2748 74.1205 60.1539 73.9478 59.9121 73.8355C59.679 73.7146 59.3034 73.5851 58.7853 73.447C58.25 73.3175 57.8097 73.1836 57.4643 73.0455C57.1276 72.9073 56.834 72.6958 56.5836 72.4109C56.3418 72.1259 56.221 71.7417 56.221 71.2582C56.221 70.861 56.3332 70.4984 56.5577 70.1703C56.7908 69.8422 57.1189 69.5832 57.542 69.3932C57.9737 69.2032 58.4788 69.1083 59.0573 69.1083C59.9121 69.1083 60.5942 69.3241 61.1036 69.7558C61.6131 70.1789 61.8937 70.7531 61.9455 71.4784H60.21C60.1841 71.1934 60.0632 70.969 59.8474 70.8049C59.6401 70.6322 59.3595 70.5459 59.0055 70.5459C58.6774 70.5459 58.4227 70.6063 58.2414 70.7272C58.0687 70.8481 57.9824 71.0164 57.9824 71.2323C57.9824 71.4741 58.1032 71.6597 58.345 71.7892C58.5868 71.9101 58.9623 72.0353 59.4718 72.1648C59.9898 72.2943 60.4172 72.4281 60.754 72.5663C61.0907 72.7044 61.3799 72.9203 61.6217 73.2139C61.8721 73.4988 62.0016 73.8787 62.0102 74.3536C62.0102 74.768 61.8937 75.1393 61.6605 75.4674C61.4361 75.7955 61.108 76.0545 60.6762 76.2445C60.2532 76.4258 59.7567 76.5165 59.1868 76.5165ZM64.4182 68.37C64.0987 68.37 63.8311 68.2707 63.6152 68.0722C63.408 67.8649 63.3044 67.6102 63.3044 67.308C63.3044 67.0058 63.408 66.7554 63.6152 66.5568C63.8311 66.3496 64.0987 66.246 64.4182 66.246C64.7377 66.246 65.001 66.3496 65.2082 66.5568C65.4241 66.7554 65.532 67.0058 65.532 67.308C65.532 67.6102 65.4241 67.8649 65.2082 68.0722C65.001 68.2707 64.7377 68.37 64.4182 68.37ZM65.3118 69.2248V76.3999H63.4986V69.2248H65.3118ZM68.9165 70.2739C69.1496 69.9285 69.4691 69.6479 69.8749 69.4321C70.2893 69.2162 70.7599 69.1083 71.2866 69.1083C71.8996 69.1083 72.4522 69.2594 72.9443 69.5616C73.4451 69.8638 73.838 70.2955 74.1229 70.8567C74.4165 71.4093 74.5633 72.0526 74.5633 72.7865C74.5633 73.5204 74.4165 74.1723 74.1229 74.7421C73.838 75.3034 73.4451 75.7394 72.9443 76.0502C72.4522 76.361 71.8996 76.5165 71.2866 76.5165C70.7512 76.5165 70.2807 76.4129 69.8749 76.2056C69.4777 75.9898 69.1582 75.7135 68.9165 75.3767V76.3999H67.1033V66.8159H68.9165V70.2739ZM72.7112 72.7865C72.7112 72.3548 72.6206 71.9835 72.4392 71.6726C72.2666 71.3532 72.0334 71.1114 71.7399 70.9474C71.4549 70.7833 71.1441 70.7013 70.8074 70.7013C70.4793 70.7013 70.1684 70.7876 69.8749 70.9603C69.5899 71.1244 69.3568 71.3661 69.1755 71.6856C69.0028 72.0051 68.9165 72.3807 68.9165 72.8124C68.9165 73.2441 69.0028 73.6197 69.1755 73.9391C69.3568 74.2586 69.5899 74.5047 69.8749 74.6774C70.1684 74.8414 70.4793 74.9234 70.8074 74.9234C71.1441 74.9234 71.4549 74.8371 71.7399 74.6644C72.0334 74.4917 72.2666 74.2457 72.4392 73.9262C72.6206 73.6067 72.7112 73.2268 72.7112 72.7865ZM76.8004 68.37C76.481 68.37 76.2133 68.2707 75.9974 68.0722C75.7902 67.8649 75.6866 67.6102 75.6866 67.308C75.6866 67.0058 75.7902 66.7554 75.9974 66.5568C76.2133 66.3496 76.481 66.246 76.8004 66.246C77.1199 66.246 77.3832 66.3496 77.5905 66.5568C77.8063 66.7554 77.9142 67.0058 77.9142 67.308C77.9142 67.6102 77.8063 67.8649 77.5905 68.0722C77.3832 68.2707 77.1199 68.37 76.8004 68.37ZM77.6941 69.2248V76.3999H75.8809V69.2248H77.6941ZM81.2987 66.8159V76.3999H79.4855V66.8159H81.2987ZM84.0097 68.37C83.6902 68.37 83.4226 68.2707 83.2067 68.0722C82.9995 67.8649 82.8959 67.6102 82.8959 67.308C82.8959 67.0058 82.9995 66.7554 83.2067 66.5568C83.4226 66.3496 83.6902 66.246 84.0097 66.246C84.3292 66.246 84.5925 66.3496 84.7997 66.5568C85.0156 66.7554 85.1235 67.0058 85.1235 67.308C85.1235 67.6102 85.0156 67.8649 84.7997 68.0722C84.5925 68.2707 84.3292 68.37 84.0097 68.37ZM84.9033 69.2248V76.3999H83.0901V69.2248H84.9033ZM88.8059 70.7142V74.1852C88.8059 74.427 88.862 74.604 88.9742 74.7162C89.0951 74.8198 89.2937 74.8716 89.57 74.8716H90.4118V76.3999H89.2721C87.7438 76.3999 86.9797 75.6574 86.9797 74.1723V70.7142H86.1249V69.2248H86.9797V67.4505H88.8059V69.2248H90.4118V70.7142H88.8059ZM98.5802 69.2248L94.1379 79.7932H92.2081L93.7623 76.2186L90.8871 69.2248H92.9204L94.7725 74.237L96.6504 69.2248H98.5802Z" fill="#262626"/>
<path d="M15.6436 77.695H98.6579V78.3426H15.6436V77.695Z" fill="#262626"/>
<a href="https://drive.google.com/drive/folders/1AdqS5yTy1s9GTT2mzQuSO_4lbdA4pWrG?usp=sharing">
<rect fill="black" fill-opacity="0" y="-0.607097" width="83.0144" height="19.4271"/>
</a>
<path d="M66.838 124.689H44.3369C40.6512 124.689 38.047 122.228 38.5317 119.369L41.9786 98.9482C42.2716 97.2159 44.6986 95.8569 47.386 95.8569H63.7853C66.4727 95.8569 68.8997 97.2195 69.1926 98.9482L72.6396 119.369C73.1279 122.228 70.5273 124.689 66.838 124.689Z" fill="#8EB8EF"/>
<path d="M72.2058 116.771C66.9974 117.716 61.4019 118.235 55.575 118.235C49.759 118.235 44.1708 117.72 38.9696 116.774L38.5319 119.372C38.0509 122.228 40.6515 124.692 44.3371 124.692H66.8382C70.5239 124.692 73.1281 122.232 72.6435 119.372L72.2058 116.771Z" fill="#579AF2"/>
<path d="M63.7891 95.8569H47.3898C44.7024 95.8569 42.2754 97.2195 41.9825 98.9482L40.127 109.929C44.8652 108.537 50.0844 107.758 55.575 107.758C61.0764 107.758 66.3065 108.541 71.0519 109.936L69.1964 98.9482C68.9035 97.2195 66.4765 95.8569 63.7891 95.8569Z" fill="#579AF2"/>
<path d="M90.9276 107.765C89.7593 107.765 88.8008 106.805 88.8008 105.634V102.952C88.8008 101.782 89.7593 100.822 90.9276 100.822C92.0958 100.822 93.0543 101.782 93.0543 102.952V105.634C93.0543 106.808 92.0994 107.765 90.9276 107.765Z" fill="#FFFEFD"/>
<path d="M103.695 105.504H7.48403C4.50004 105.504 2.05859 103.058 2.05859 100.068V44.2592C2.05859 41.2694 4.50004 38.8232 7.48403 38.8232H103.695C106.679 38.8232 109.121 41.2694 109.121 44.2592V100.068C109.121 103.058 106.679 105.504 103.695 105.504Z" fill="#BDD5F2"/>
<path d="M2.05859 95.3567V44.2592C2.05859 41.2694 4.50004 38.8232 7.48403 38.8232H103.695C106.679 38.8232 109.121 41.2694 109.121 44.2592V95.3567H2.05859Z" fill="#579AF2"/>
<path d="M55.5891 41.7768C56.1404 41.7768 56.5874 41.329 56.5874 40.7766C56.5874 40.2242 56.1404 39.7764 55.5891 39.7764C55.0378 39.7764 54.5908 40.2242 54.5908 40.7766C54.5908 41.329 55.0378 41.7768 55.5891 41.7768Z" fill="#134F5E"/>
<path d="M55.9658 40.7766C55.9658 40.9832 55.7994 41.1499 55.5933 41.1499C55.3871 41.1499 55.2207 40.9832 55.2207 40.7766C55.2207 40.57 55.3871 40.4033 55.5933 40.4033C55.7958 40.4033 55.9658 40.57 55.9658 40.7766Z" fill="#FFFEFD"/>
<path d="M102.784 92.4575H8.3954C5.86353 92.4575 3.79102 90.381 3.79102 87.8442V47.4373C3.79102 44.9005 5.86353 42.824 8.3954 42.824H102.784C105.315 42.824 107.388 44.9005 107.388 47.4373V87.8442C107.388 90.3846 105.315 92.4575 102.784 92.4575Z" fill="#8EB8EF"/>
<g opacity="0.7" clip-path="url(#clip0_564_3879)">
<path d="M101.307 90.9356H9.87077C7.45826 90.9356 5.4834 88.9569 5.4834 86.5397V48.742C5.4834 46.3249 7.45826 44.3462 9.87077 44.3462H101.307C103.72 44.3462 105.695 46.3249 105.695 48.742V86.5397C105.695 88.9605 103.72 90.9356 101.307 90.9356Z" fill="#D2E1F4"/>
<g opacity="0.5">
<path opacity="0.0192" d="M-33.7499 58.4107C-33.7499 58.4107 -48.9085 11.361 21.3255 14.358" stroke="white" stroke-width="0.2269" stroke-miterlimit="10"/>
<path opacity="0.0385" d="M-32.2958 59.6973C-32.2958 59.6973 -45.6786 13.8364 23.2064 15.1482" stroke="white" stroke-width="0.2353" stroke-miterlimit="10"/>
<path opacity="0.0577" d="M-30.8416 60.9802C-30.8416 60.9802 -42.452 16.3043 25.0875 15.9382" stroke="white" stroke-width="0.2438" stroke-miterlimit="10"/>
<path opacity="0.0769" d="M-29.3917 62.2667C-29.3917 62.2667 -39.2298 18.7794 26.9642 16.7283" stroke="white" stroke-width="0.2522" stroke-miterlimit="10"/>
<path opacity="0.0962" d="M-27.9377 63.5496C-27.9377 63.5496 -36.0036 21.2509 28.8449 17.5146" stroke="white" stroke-width="0.2606" stroke-miterlimit="10"/>
<path opacity="0.1154" d="M-26.4831 64.8361C-26.4831 64.8361 -32.7766 23.7225 30.7264 18.3047" stroke="white" stroke-width="0.269" stroke-miterlimit="10"/>
<path opacity="0.1346" d="M-25.0326 66.119C-25.0326 66.119 -29.5537 26.194 32.6073 19.0947" stroke="white" stroke-width="0.2774" stroke-miterlimit="10"/>
<path opacity="0.1538" d="M-23.5788 67.4053C-23.5788 67.4053 -26.3276 28.669 34.4879 19.8845" stroke="white" stroke-width="0.2858" stroke-miterlimit="10"/>
<path opacity="0.1731" d="M-22.1289 68.6918C-22.1289 68.6918 -23.1055 31.1405 36.3645 20.6746" stroke="white" stroke-width="0.2942" stroke-miterlimit="10"/>
<path opacity="0.1923" d="M-20.6748 69.9747C-20.6748 69.9747 -19.8755 33.612 38.2454 21.4646" stroke="white" stroke-width="0.3026" stroke-miterlimit="10"/>
<path opacity="0.2115" d="M-19.2207 71.2612C-19.2207 71.2612 -16.649 36.0872 40.1263 22.2546" stroke="white" stroke-width="0.311" stroke-miterlimit="10"/>
<path opacity="0.2308" d="M-17.7695 72.5441C-17.7695 72.5441 -13.4256 38.5551 42.0043 23.041" stroke="white" stroke-width="0.3194" stroke-miterlimit="10"/>
<path opacity="0.25" d="M-16.3164 73.8306C-16.3164 73.8306 -10.2001 41.0303 43.8842 23.8311" stroke="white" stroke-width="0.3278" stroke-miterlimit="10"/>
<path opacity="0.2692" d="M-14.8623 75.1171C-14.8623 75.1171 -6.97372 43.5055 45.7651 24.6248" stroke="white" stroke-width="0.3362" stroke-miterlimit="10"/>
<path opacity="0.2885" d="M-13.4111 76.4C-13.4111 76.4 -3.75024 45.9734 47.6431 25.4111" stroke="white" stroke-width="0.3446" stroke-miterlimit="10"/>
<path opacity="0.3077" d="M-11.958 77.6865C-11.958 77.6865 -0.524803 48.4485 49.523 26.2012" stroke="white" stroke-width="0.353" stroke-miterlimit="10"/>
<path opacity="0.3269" d="M-10.5039 78.9694C-10.5039 78.9694 2.70161 50.9201 51.4076 26.9912" stroke="white" stroke-width="0.3614" stroke-miterlimit="10"/>
<path opacity="0.3462" d="M-9.05273 80.2559C-9.05273 80.2559 5.92871 53.3916 53.2855 27.7812" stroke="white" stroke-width="0.3698" stroke-miterlimit="10"/>
<path opacity="0.3654" d="M-7.59961 81.5424C-7.59961 81.5424 9.15414 55.8668 55.1655 28.5713" stroke="white" stroke-width="0.3782" stroke-miterlimit="10"/>
<path opacity="0.3846" d="M-6.14551 82.8253C-6.14551 82.8253 12.3806 58.3384 57.0464 29.3613" stroke="white" stroke-width="0.3866" stroke-miterlimit="10"/>
<path opacity="0.4038" d="M-4.69434 84.1118C-4.69434 84.1118 15.604 60.8099 58.9243 30.1514" stroke="white" stroke-width="0.3951" stroke-miterlimit="10"/>
<path opacity="0.4231" d="M-3.24023 85.3947C-3.24023 85.3947 18.8304 63.2814 60.8052 30.9377" stroke="white" stroke-width="0.4035" stroke-miterlimit="10"/>
<path opacity="0.4423" d="M-1.78711 86.6812C-1.78711 86.6812 22.0559 65.7566 62.6852 31.7278" stroke="white" stroke-width="0.4119" stroke-miterlimit="10"/>
<path opacity="0.4615" d="M-0.335938 87.9639C-0.335938 87.9639 25.2794 68.2279 64.5631 32.5176" stroke="white" stroke-width="0.4203" stroke-miterlimit="10"/>
<path opacity="0.4808" d="M1.11816 89.2504C1.11816 89.2504 28.5058 70.6994 66.444 33.3076" stroke="white" stroke-width="0.4287" stroke-miterlimit="10"/>
<path opacity="0.5" d="M2.56836 90.5369C2.56836 90.5369 31.7283 73.1746 68.321 34.0977" stroke="white" stroke-width="0.4371" stroke-miterlimit="10"/>
<path opacity="0.5192" d="M4.02246 91.8198C4.02246 91.8198 34.9583 75.6462 70.2056 34.8877" stroke="white" stroke-width="0.4455" stroke-miterlimit="10"/>
<path opacity="0.5385" d="M5.47656 93.1063C5.47656 93.1063 38.1847 78.1177 72.0865 35.6777" stroke="white" stroke-width="0.4539" stroke-miterlimit="10"/>
<path opacity="0.5577" d="M6.92676 94.3892C6.92676 94.3892 41.4072 80.5892 73.9635 36.4641" stroke="white" stroke-width="0.4623" stroke-miterlimit="10"/>
<path opacity="0.5769" d="M8.38086 95.6757C8.38086 95.6757 44.6336 83.0644 75.8444 37.2542" stroke="white" stroke-width="0.4707" stroke-miterlimit="10"/>
<path opacity="0.5962" d="M9.83496 96.9623C9.83496 96.9623 47.86 85.536 77.7253 38.0479" stroke="white" stroke-width="0.4791" stroke-miterlimit="10"/>
<path opacity="0.6154" d="M11.2852 98.2451C11.2852 98.2451 51.0825 88.0075 79.6023 38.8342" stroke="white" stroke-width="0.4875" stroke-miterlimit="10"/>
<path opacity="0.6346" d="M12.7393 99.5316C12.7393 99.5316 54.309 90.4827 81.4832 39.6243" stroke="white" stroke-width="0.4959" stroke-miterlimit="10"/>
<path opacity="0.6538" d="M14.1934 100.815C14.1934 100.815 57.5354 92.9506 83.3641 40.4143" stroke="white" stroke-width="0.5043" stroke-miterlimit="10"/>
<path opacity="0.6731" d="M15.6436 102.101C15.6436 102.101 60.7615 95.4257 85.2411 41.2043" stroke="white" stroke-width="0.5127" stroke-miterlimit="10"/>
<path opacity="0.6923" d="M17.0977 103.388C17.0977 103.388 63.9879 97.9009 87.122 41.9944" stroke="white" stroke-width="0.5211" stroke-miterlimit="10"/>
<path opacity="0.7115" d="M18.5518 104.67C18.5518 104.67 67.2143 100.369 89.0065 42.7844" stroke="white" stroke-width="0.5295" stroke-miterlimit="10"/>
<path opacity="0.7308" d="M20.002 105.957C20.002 105.957 70.4368 102.844 90.8835 43.5742" stroke="white" stroke-width="0.5379" stroke-miterlimit="10"/>
<path opacity="0.75" d="M21.4561 107.24C21.4561 107.24 73.6632 105.316 92.7644 44.3608" stroke="white" stroke-width="0.5463" stroke-miterlimit="10"/>
<path opacity="0.7692" d="M22.9102 108.526C22.9102 108.526 76.8896 107.79 94.6453 45.1506" stroke="white" stroke-width="0.5548" stroke-miterlimit="10"/>
<path opacity="0.7885" d="M24.3604 109.813C24.3604 109.813 80.1121 110.262 96.5223 45.9443" stroke="white" stroke-width="0.5632" stroke-miterlimit="10"/>
<path opacity="0.8077" d="M25.8145 111.096C25.8145 111.096 83.3386 112.734 98.4032 46.7307" stroke="white" stroke-width="0.5716" stroke-miterlimit="10"/>
<path opacity="0.8269" d="M27.2686 112.382C27.2686 112.382 86.565 115.209 100.284 47.5208" stroke="white" stroke-width="0.58" stroke-miterlimit="10"/>
<path opacity="0.8462" d="M28.7188 113.665C28.7188 113.665 89.7911 117.677 102.161 48.3108" stroke="white" stroke-width="0.5884" stroke-miterlimit="10"/>
<path opacity="0.8654" d="M30.1729 114.951C30.1729 114.951 93.0175 120.152 104.042 49.1008" stroke="white" stroke-width="0.5968" stroke-miterlimit="10"/>
<path opacity="0.8846" d="M31.623 116.234C31.623 116.234 96.24 122.623 105.923 49.8872" stroke="white" stroke-width="0.6052" stroke-miterlimit="10"/>
<path opacity="0.9038" d="M33.0771 117.521C33.0771 117.521 99.4664 125.095 107.803 50.6772" stroke="white" stroke-width="0.6136" stroke-miterlimit="10"/>
<path opacity="0.9231" d="M34.5312 118.807C34.5312 118.807 102.693 127.57 109.684 51.4709" stroke="white" stroke-width="0.622" stroke-miterlimit="10"/>
<path opacity="0.9423" d="M35.9814 120.09C35.9814 120.09 105.915 130.042 111.561 52.2573" stroke="white" stroke-width="0.6304" stroke-miterlimit="10"/>
<path opacity="0.9615" d="M37.4355 121.377C37.4355 121.377 109.142 132.513 113.442 53.0474" stroke="white" stroke-width="0.6388" stroke-miterlimit="10"/>
<path opacity="0.9808" d="M38.8896 122.66C38.8896 122.66 112.368 134.985 115.323 53.8374" stroke="white" stroke-width="0.6472" stroke-miterlimit="10"/>
<path d="M40.3398 123.946C40.3398 123.946 115.594 137.46 117.2 54.6274" stroke="white" stroke-width="0.6556" stroke-miterlimit="10"/>
</g>
</g>
<path opacity="0.15" d="M83.2525 55.9066L80.8725 92.4577H30.3147L27.8841 52.8226C27.8588 50.8585 29.4502 49.2639 31.4396 49.2639H76.6081L83.2525 55.9066Z" fill="black"/>
<path d="M76.3179 127.247H34.8603C32.8602 127.247 31.2217 125.606 31.2217 123.602C31.2217 121.598 32.8602 119.956 34.8603 119.956H76.3179C78.3181 119.956 79.9566 121.598 79.9566 123.602C79.9566 125.609 78.3217 127.247 76.3179 127.247Z" fill="#8EB8EF"/>
<path d="M76.3186 125.388H34.861C33.1791 125.388 31.7613 124.229 31.3453 122.67C31.2658 122.968 31.2188 123.279 31.2188 123.602C31.2188 125.606 32.8572 127.247 34.8574 127.247H76.315C78.3152 127.247 79.9536 125.606 79.9536 123.602C79.9536 123.279 79.9066 122.971 79.827 122.67C79.4183 124.229 78.0005 125.388 76.3186 125.388Z" fill="#579AF2"/>
<path d="M74.8282 123.134H36.3547C35.8447 123.134 35.4287 122.718 35.4287 122.207C35.4287 121.696 35.8447 121.279 36.3547 121.279H74.8282C75.3382 121.279 75.7542 121.696 75.7542 122.207C75.7506 122.718 75.3346 123.134 74.8282 123.134Z" fill="#BDD5F2"/>
<path d="M57.4614 102.553C58.5024 101.51 58.5024 99.8193 57.4614 98.7762C56.4204 97.7332 54.7326 97.7332 53.6916 98.7762C52.6505 99.8193 52.6505 101.51 53.6916 102.553C54.7326 103.596 56.4204 103.596 57.4614 102.553Z" fill="#FFFEFD"/>
<path d="M56.9929 100.666C56.9929 101.448 56.36 102.086 55.5751 102.086C54.7938 102.086 54.1572 101.452 54.1572 100.666C54.1572 99.8829 54.7902 99.2451 55.5751 99.2451C56.36 99.2487 56.9929 99.8829 56.9929 100.666Z" fill="#EBEAE9"/>
<path d="M101.438 101.844H103.142C103.496 101.844 103.782 101.554 103.782 101.202V99.4952C103.782 99.1401 103.492 98.8538 103.142 98.8538H101.438C101.084 98.8538 100.798 99.1437 100.798 99.4952V101.202C100.798 101.557 101.087 101.844 101.438 101.844Z" fill="#FFFEFD"/>
<path d="M96.8229 101.844H98.5264C98.8809 101.844 99.1666 101.554 99.1666 101.202V99.4952C99.1666 99.1401 98.8773 98.8538 98.5264 98.8538H96.8229C96.4684 98.8538 96.1827 99.1437 96.1827 99.4952V101.202C96.179 101.557 96.4684 101.844 96.8229 101.844Z" fill="#FFFEFD"/>
<path d="M92.2037 101.844H93.9073C94.2617 101.844 94.5475 101.554 94.5475 101.202V99.4952C94.5475 99.1401 94.2581 98.8538 93.9073 98.8538H92.2037C91.8492 98.8538 91.5635 99.1437 91.5635 99.4952V101.202C91.5635 101.557 91.8528 101.844 92.2037 101.844Z" fill="#FFFEFD"/>
<path d="M81.7221 56.7436V92.4576H29.457V53.7901C29.457 51.9129 30.9762 50.3909 32.8497 50.3909H75.3816L81.7221 56.7436Z" fill="#FFFEFD"/>
<path d="M75.3815 50.3909L81.722 56.7436H76.7957C75.6564 56.7436 74.7702 55.7507 74.9004 54.6164L75.3815 50.3909Z" fill="#DEDDDC"/>
<path d="M42.8031 70.1849H36.4771C34.712 70.1849 33.2725 68.739 33.2725 66.9741V60.6359C33.2725 58.8674 34.7156 57.425 36.4771 57.425H42.8031C44.5682 57.425 46.0078 58.871 46.0078 60.6359V66.9741C46.0114 68.739 44.5682 70.1849 42.8031 70.1849Z" fill="#FBD55F"/>
<path d="M74.7016 70.1849H68.3755C66.6104 70.1849 65.1709 68.739 65.1709 66.9741V60.6359C65.1709 58.8674 66.6141 57.425 68.3755 57.425H74.7016C76.4667 57.425 77.9062 58.871 77.9062 60.6359V66.9741C77.9098 68.739 76.4667 70.1849 74.7016 70.1849Z" fill="#579AF2"/>
<path d="M58.7543 70.1849H52.4283C50.6632 70.1849 49.2236 68.739 49.2236 66.9741V60.6359C49.2236 58.8674 50.6668 57.425 52.4283 57.425H58.7543C60.5194 57.425 61.9589 58.871 61.9589 60.6359V66.9741C61.9589 68.739 60.5158 70.1849 58.7543 70.1849Z" fill="#32F094"/>
<path d="M76.8864 77.0377H34.2931C33.7325 77.0377 33.2695 76.5775 33.2695 76.0121C33.2695 75.4504 33.7289 74.9866 34.2931 74.9866H76.8864C77.447 74.9866 77.91 75.4468 77.91 76.0121C77.91 76.5775 77.447 77.0377 76.8864 77.0377Z" fill="#DEDDDC"/>
<path d="M76.8864 87.4384H34.2931C33.7325 87.4384 33.2695 86.9781 33.2695 86.4128C33.2695 85.8511 33.7289 85.3872 34.2931 85.3872H76.8864C77.447 85.3872 77.91 85.8474 77.91 86.4128C77.91 86.9781 77.447 87.4384 76.8864 87.4384Z" fill="#DEDDDC"/>
<path d="M74.333 82.2382H36.8469C36.3188 82.2382 35.8848 81.8033 35.8848 81.2742V81.151C35.8848 80.6219 36.3188 80.187 36.8469 80.187H74.333C74.8611 80.187 75.2951 80.6183 75.2951 81.151V81.2742C75.2951 81.8069 74.8611 82.2382 74.333 82.2382Z" fill="#DEDDDC"/>
<g opacity="0.15">
<path d="M34.145 83.6729C34.4271 82.7162 34.5682 81.7232 34.5682 80.7194C34.5682 80.5273 34.5646 80.3389 34.5537 80.1468L32.7778 80.2447C32.7416 79.5742 32.6259 78.9256 32.4487 78.3059L34.1595 77.8094C33.8267 76.6642 33.3023 75.5879 32.6006 74.6203L31.1574 75.6676C30.7704 75.1349 30.3291 74.6493 29.8336 74.2144L31.0019 72.87C30.1013 72.0836 29.0813 71.4639 27.9745 71.0254L27.3234 72.6851C26.7194 72.4496 26.0864 72.2756 25.4281 72.1778L25.685 70.4129C25.1894 70.3404 24.6831 70.3042 24.1803 70.3042H24.1767C23.4931 70.3042 22.8131 70.3694 22.1476 70.5035L22.4948 72.2503C21.8401 72.3807 21.218 72.5837 20.6248 72.8518L19.8906 71.2283C18.8055 71.7212 17.8217 72.3916 16.9608 73.2215L18.1978 74.5044C17.7276 74.961 17.3081 75.4683 16.95 76.0228L15.4562 75.0516C14.8051 76.0554 14.3349 77.1534 14.0637 78.3167L15.7962 78.7262C15.6479 79.3604 15.5647 80.02 15.5647 80.6977L13.7852 80.7158C13.7852 81.9153 13.9877 83.0931 14.3856 84.2165L16.0602 83.6186C16.2809 84.2419 16.5738 84.8326 16.9283 85.3834L15.4309 86.3474C16.0747 87.3512 16.8813 88.2318 17.8253 88.9603L18.914 87.5505C19.4312 87.9492 19.9919 88.2934 20.5923 88.5689L19.8508 90.1888C20.9359 90.6852 22.0861 90.9897 23.2797 91.0948L23.4316 89.319C23.6775 89.3408 23.9271 89.3516 24.1767 89.3516C24.589 89.3516 24.9977 89.319 25.3956 89.2647L25.6452 91.0295C26.8279 90.8628 27.9636 90.4932 29.0198 89.9351L28.1915 88.3587C28.7738 88.0506 29.3164 87.6774 29.8119 87.2498L30.9766 88.5979C31.8772 87.8151 32.6331 86.8946 33.2227 85.8582L31.6746 84.9775C31.9965 84.4122 32.2533 83.8034 32.4414 83.1692L34.145 83.6729ZM19.3987 80.7194C19.3987 78.0776 21.5363 75.9358 24.1731 75.9358C26.8098 75.9358 28.9474 78.0776 28.9474 80.7194C28.9474 83.3613 26.8098 85.503 24.1731 85.503C21.5363 85.503 19.3987 83.3649 19.3987 80.7194Z" fill="black"/>
<path d="M27.5365 81.0348C27.7076 79.1753 26.3418 77.5289 24.4859 77.3575C22.63 77.1861 20.9867 78.5546 20.8156 80.4141C20.6446 82.2736 22.0104 83.92 23.8663 84.0914C25.7222 84.2628 27.3655 82.8944 27.5365 81.0348Z" fill="black"/>
<path d="M12.4792 76.9941C13.0651 76.773 13.6222 76.4795 14.1358 76.1207L13.3834 75.0262C13.8066 74.7327 14.19 74.3884 14.5336 74.0007L15.5283 74.8849C15.9442 74.4174 16.3023 73.8992 16.5953 73.3447L15.4198 72.725C15.6585 72.2757 15.8393 71.7901 15.9623 71.2827L17.2536 71.6016C17.4019 70.9964 17.4778 70.3695 17.4814 69.7425H16.1576C16.1576 69.7389 16.1576 69.7389 16.1576 69.7353C16.1576 69.2098 16.0889 68.7025 15.9696 68.2132L17.2608 67.898C17.1125 67.2891 16.8919 66.6984 16.5989 66.1403L15.4234 66.7564C15.1847 66.2962 14.8881 65.8722 14.5481 65.488L15.5464 64.6074C15.134 64.1363 14.6638 63.7196 14.1502 63.3608L13.3943 64.4516C12.9747 64.1581 12.519 63.9189 12.0343 63.7341L12.5081 62.491C11.9258 62.2664 11.3109 62.1141 10.6924 62.038L10.5297 63.3608C10.2728 63.3282 10.0088 63.3064 9.74477 63.3064C9.49159 63.3064 9.2384 63.3245 8.99245 63.3535L8.83692 62.0344C8.2148 62.1069 7.60354 62.2555 7.01759 62.4765L7.48779 63.7232C7.00312 63.908 6.54377 64.1436 6.12058 64.4335L5.37187 63.339C4.85826 63.6942 4.38444 64.1109 3.96849 64.5784L4.96316 65.4663C4.62316 65.8504 4.32296 66.2708 4.08062 66.7274L2.90873 66.1041C2.61575 66.6586 2.38788 67.2493 2.23959 67.8545L3.53084 68.177C3.40786 68.6699 3.33553 69.1845 3.33553 69.7172L2.01172 69.7317C2.01172 70.3586 2.08768 70.9856 2.23597 71.5908L3.52723 71.2718C3.6502 71.7792 3.83105 72.2612 4.06977 72.7142L2.89426 73.3339C3.18361 73.8883 3.54169 74.4066 3.95764 74.874L4.9523 73.9898C5.2923 74.3739 5.6757 74.7218 6.1025 75.0154L5.34655 76.1062C5.86016 76.465 6.41717 76.7585 7.00312 76.9796L7.47694 75.7329C7.95076 75.9141 8.4499 76.041 8.97075 76.1026L8.8116 77.4253C9.11904 77.4615 9.43372 77.4833 9.74839 77.4833C10.0595 77.4833 10.3705 77.4652 10.6779 77.4289L10.5188 76.1062C11.0396 76.0446 11.5388 75.9177 12.0126 75.7365L12.4792 76.9941ZM9.74477 66.1802C11.7088 66.1802 13.2966 67.7747 13.2966 69.7389C13.2966 71.7067 11.7052 73.2976 9.74477 73.2976C7.78077 73.2976 6.19292 71.7031 6.19292 69.7389C6.19292 67.7747 7.78438 66.1802 9.74477 66.1802Z" fill="black"/>
<path d="M9.74523 72.2575C11.1341 72.2575 12.259 71.1304 12.259 69.7389C12.259 68.3473 11.1341 67.2202 9.74523 67.2202C8.35632 67.2202 7.23145 68.3473 7.23145 69.7389C7.23506 71.1304 8.35994 72.2575 9.74523 72.2575Z" fill="black"/>
</g>
<path d="M21.2865 89.6199C20.0965 89.5184 18.9427 89.214 17.8576 88.7139L19.337 85.4741C20.0495 85.8003 20.8055 85.9996 21.5903 86.0684L21.2865 89.6199ZM23.652 89.5547L23.1529 86.0286C23.9305 85.9198 24.6756 85.677 25.3664 85.311L27.023 88.4639C25.9705 89.0183 24.8347 89.388 23.652 89.5547ZM15.8321 87.489C14.8881 86.757 14.0815 85.88 13.4377 84.8762L16.4289 82.9482C16.8521 83.6114 17.3838 84.1912 18.0059 84.6696L15.8321 87.489ZM28.9798 87.123L26.6541 84.4304C27.2509 83.9158 27.7464 83.307 28.1334 82.6221L31.2259 84.3833C30.64 85.4197 29.884 86.3402 28.9798 87.123ZM12.3924 82.7417C11.9945 81.6182 11.792 80.4441 11.792 79.2409L15.3475 79.2047V79.2409C15.3475 80.0309 15.4813 80.8065 15.7417 81.5421L12.3924 82.7417ZM32.1555 82.1944L28.7447 81.187C28.9291 80.56 29.0232 79.9041 29.0232 79.2445C29.0232 79.1177 29.0196 78.9909 29.0123 78.864L32.5642 78.672C32.575 78.8604 32.5787 79.0525 32.5787 79.2445C32.5787 80.2484 32.4376 81.2413 32.1555 82.1944ZM15.5283 77.6645L12.0669 76.8455C12.3418 75.6822 12.8084 74.5842 13.4594 73.5803L16.4398 75.5191C16.0166 76.1787 15.7092 76.8999 15.5283 77.6645ZM28.7519 77.3275C28.5349 76.5737 28.1877 75.8707 27.7283 75.2328L30.6074 73.1455C31.3091 74.1167 31.8336 75.1894 32.1663 76.3345L28.7519 77.3275ZM17.4344 74.3124L14.9641 71.7502C15.8249 70.9204 16.8087 70.2463 17.8938 69.7571L19.3623 73.0005C18.6534 73.323 18.0023 73.7652 17.4344 74.3124ZM26.6758 74.0768C26.0826 73.5586 25.4135 73.1491 24.6828 72.8628L25.9849 69.5469C27.0917 69.9818 28.1117 70.6051 29.0123 71.3915L26.6758 74.0768ZM20.8452 72.5221L20.1544 69.0287C20.8199 68.8982 21.4999 68.8293 22.1835 68.8293H22.1871C22.6899 68.8293 23.1963 68.8656 23.6918 68.9381L23.1782 72.4642C22.8526 72.417 22.5163 72.3917 22.1871 72.3917C22.1871 72.3917 22.1871 72.3917 22.1835 72.3917C21.735 72.3917 21.2829 72.4352 20.8452 72.5221Z" fill="#30CC81"/>
<path d="M13.5684 79.2445C13.5684 84.0136 17.4277 87.8768 22.184 87.8768C26.9439 87.8768 30.7995 84.01 30.7995 79.2445C30.7995 74.4754 26.9403 70.6123 22.184 70.6123C17.4277 70.6087 13.5684 74.4754 13.5684 79.2445ZM17.4096 79.2445C17.4096 76.6027 19.5472 74.4609 22.184 74.4609C24.8207 74.4609 26.9583 76.6027 26.9583 79.2445C26.9583 81.8864 24.8207 84.0281 22.184 84.0281C19.5472 84.0281 17.4096 81.8864 17.4096 79.2445Z" fill="#32F094"/>
<path d="M22.1832 82.6258C24.047 82.6258 25.5578 81.112 25.5578 79.2447C25.5578 77.3773 24.047 75.8635 22.1832 75.8635C20.3195 75.8635 18.8086 77.3773 18.8086 79.2447C18.8086 81.112 20.3195 82.6258 22.1832 82.6258Z" fill="#30CC81"/>
<path d="M7.75552 76.0157C7.44084 76.0157 7.12617 75.9976 6.81873 75.9577L7.13702 73.3268C7.54212 73.3739 7.9653 73.3775 8.3704 73.3268L8.68507 75.9577C8.38125 75.994 8.06658 76.0157 7.75552 76.0157ZM10.4936 75.5156L9.55676 73.0368C9.94016 72.8919 10.3091 72.6998 10.6455 72.4643L12.1501 74.6459C11.6329 75.001 11.0759 75.2945 10.4936 75.5156ZM5.01386 75.512C4.43153 75.2909 3.8709 74.9974 3.3573 74.6386L4.86195 72.4606C5.20194 72.6962 5.56726 72.8883 5.95066 73.0332L5.01386 75.512ZM13.539 73.4137L11.5606 71.6525C11.8354 71.3445 12.0705 71.0038 12.2622 70.6378L14.6024 71.8735C14.3131 72.4244 13.955 72.9426 13.539 73.4137ZM1.96838 73.4065C1.55243 72.9354 1.19436 72.4171 0.905 71.8663L3.24879 70.6342C3.44049 71.0002 3.67559 71.3408 3.95048 71.6489L1.96838 73.4065ZM15.2679 70.1341L12.6999 69.4962C12.7976 69.0976 12.8482 68.6881 12.8482 68.2714L15.4958 68.275C15.4922 68.9019 15.4162 69.5289 15.2679 70.1341ZM0.246713 70.1232C0.0984181 69.518 0.0224609 68.891 0.0224609 68.2641L2.67007 68.2387V68.2641C2.67007 68.6772 2.72071 69.0904 2.81837 69.489L0.246713 70.1232ZM12.7035 67.0537C12.6059 66.6551 12.4612 66.2673 12.2695 65.9013L14.6133 64.6692C14.9026 65.2272 15.1269 65.8179 15.2752 66.4268L12.7035 67.0537ZM2.81837 67.0283L0.250328 66.3869C0.402241 65.7781 0.626494 65.1874 0.919468 64.6365L3.25602 65.8796C3.06432 66.2419 2.91603 66.6297 2.81837 67.0283ZM11.575 64.8902C11.3038 64.5822 10.9927 64.3031 10.6563 64.0676L12.1646 61.8896C12.6782 62.2447 13.1484 62.6651 13.5607 63.1362L11.575 64.8902ZM3.95771 64.8721L1.98285 63.1072C2.3988 62.6397 2.87263 62.223 3.38623 61.8678L4.88365 64.0531C4.54004 64.2886 4.22898 64.5641 3.95771 64.8721ZM9.57485 63.4986C9.19145 63.35 8.78997 63.2522 8.38125 63.2015L8.70316 60.5705C9.32528 60.6466 9.93654 60.7988 10.5189 61.0235L9.57485 63.4986ZM5.96151 63.4877L5.02833 61.0054C5.61428 60.7843 6.22555 60.6357 6.84766 60.5632L7.1551 63.1978C6.75 63.2449 6.34852 63.3428 5.96151 63.4877Z" fill="url(#paint0_linear_564_3879)"/>
<path d="M1.34277 68.2641C1.34277 71.812 4.21464 74.6894 7.75564 74.6894C11.2966 74.6894 14.1685 71.812 14.1685 68.2641C14.1685 64.7163 11.2966 61.8389 7.75564 61.8389C4.21464 61.8389 1.34277 64.7163 1.34277 68.2641ZM4.20379 68.2641C4.20379 66.2963 5.79525 64.7054 7.75564 64.7054C9.71965 64.7054 11.3075 66.2999 11.3075 68.2641C11.3075 70.2283 9.71603 71.8228 7.75564 71.8228C5.79525 71.8228 4.20379 70.2283 4.20379 68.2641Z" fill="url(#paint1_linear_564_3879)"/>
<path d="M7.75597 70.7826C9.1443 70.7826 10.2698 69.655 10.2698 68.264C10.2698 66.873 9.1443 65.7454 7.75597 65.7454C6.36765 65.7454 5.24219 66.873 5.24219 68.264C5.24219 69.655 6.36765 70.7826 7.75597 70.7826Z" fill="url(#paint2_linear_564_3879)"/>
<g opacity="0.15">
<path d="M109.12 44.2591C109.12 43.5742 108.987 42.9219 108.755 42.3167L107.967 43.0777C107.319 42.4037 106.596 41.8057 105.811 41.2947L106.784 39.7944C105.905 39.182 104.841 38.8196 103.699 38.8196H102.161L101.966 39.6458C101.065 39.432 100.129 39.3161 99.1665 39.3161L99.1629 38.8196H94.591L95.0214 40.03C94.1317 40.3489 93.2925 40.7656 92.5149 41.2694L91.1441 39.1349C89.7154 40.0553 88.4675 41.2041 87.4295 42.5522L89.4332 44.1033C88.8654 44.8389 88.3771 45.6435 87.9865 46.4987L85.6825 45.4405C84.9735 46.9879 84.5431 48.6332 84.3984 50.3328L86.9231 50.5503C86.8941 50.9018 86.8761 51.2569 86.8761 51.6121C86.8761 52.2028 86.9195 52.7826 86.999 53.348L84.4889 53.7031C84.7276 55.3919 85.2484 57.0118 86.0441 58.5193L88.2867 57.3343C88.7243 58.1678 89.256 58.9433 89.8637 59.6464L87.9467 61.3098C89.0571 62.5963 90.37 63.6762 91.8421 64.5133L93.0936 62.3063C93.9002 62.763 94.761 63.1362 95.6653 63.4008L94.9491 65.8361C96.3055 66.2383 97.7161 66.4413 99.1412 66.4413C99.1412 66.4413 99.1412 66.4413 99.1448 66.4413C99.416 66.4413 99.6873 66.434 99.955 66.4195L99.8175 63.8864C100.769 63.8356 101.691 63.6726 102.574 63.4153L103.283 65.8542C104.914 65.3794 106.44 64.6293 107.818 63.6291L106.332 61.5707C107.091 61.0198 107.782 60.3857 108.397 59.679L109.128 60.3168V44.2591H109.12ZM99.1375 58.4287C95.3831 58.4287 92.3377 55.3774 92.3377 51.6157C92.3377 47.8541 95.3831 44.8027 99.1375 44.8027C102.892 44.8027 105.937 47.8541 105.937 51.6157C105.937 55.3774 102.892 58.4287 99.1375 58.4287Z" fill="black"/>
<path d="M99.138 56.432C101.793 56.432 103.945 54.2757 103.945 51.6158C103.945 48.9559 101.793 46.7996 99.138 46.7996C96.4832 46.7996 94.3311 48.9559 94.3311 51.6158C94.3311 54.2757 96.4832 56.432 99.138 56.432Z" fill="black"/>
</g>
<path d="M99.3479 64.7452C97.9228 64.7452 96.5122 64.5422 95.1558 64.14L96.5882 59.273C97.4779 59.5376 98.4075 59.6717 99.3479 59.6717C99.5287 59.6717 99.7096 59.668 99.8868 59.6572L100.158 64.7234C99.8941 64.7379 99.6228 64.7452 99.3479 64.7452C99.3515 64.7452 99.3515 64.7452 99.3479 64.7452ZM103.489 64.1581L102.075 59.2875C103.146 58.9759 104.148 58.483 105.055 57.8271L108.025 61.9366C106.647 62.9332 105.121 63.6834 103.489 64.1581ZM92.0489 62.8172C90.5732 61.9765 89.2638 60.9002 88.1534 59.6137L91.9838 56.2941C92.718 57.1421 93.5825 57.8524 94.5518 58.4069L92.0489 62.8172ZM110.513 59.6572L106.698 56.3231C107.435 55.4751 108.014 54.522 108.419 53.482L113.132 55.3338C112.514 56.9175 111.631 58.3707 110.513 59.6572ZM86.2473 56.8196C85.4552 55.3121 84.9307 53.6922 84.692 52.0034L89.7051 51.2931C89.8606 52.402 90.2042 53.4638 90.7251 54.4532L86.2473 56.8196ZM114 52.065L108.991 51.333C109.059 50.8655 109.092 50.3871 109.092 49.9124C109.092 49.2673 109.03 48.6259 108.908 48.0026L113.874 47.0132C114.062 47.9627 114.156 48.9375 114.156 49.9088C114.156 50.6335 114.101 51.3583 114 52.065ZM89.6472 49.068L84.6016 48.6331C84.7462 46.9335 85.1803 45.2882 85.8856 43.7408L90.49 45.8536C90.027 46.8683 89.7413 47.9518 89.6472 49.068ZM108.228 45.8898C107.768 44.8715 107.139 43.9474 106.361 43.1392L110.003 39.6168C111.186 40.8453 112.141 42.2514 112.839 43.7988L108.228 45.8898ZM91.6402 43.951L87.6326 40.8489C88.6706 39.5044 89.9221 38.352 91.3472 37.4315L94.0888 41.6969C93.1484 42.3057 92.3238 43.0631 91.6402 43.951ZM104.647 41.7223C103.71 41.1135 102.683 40.6713 101.598 40.4177L102.759 35.4782C104.412 35.8696 105.974 36.5364 107.403 37.4678L104.647 41.7223ZM96.0782 40.7184L94.3782 35.9385C95.9733 35.3695 97.6443 35.0796 99.3515 35.0796L99.4021 40.1531H99.3262C98.2266 40.1567 97.1271 40.3452 96.0782 40.7184Z" fill="#3F7BCA"/>
<path d="M99.3514 37.6199C92.5733 37.6199 87.0791 43.1246 87.0791 49.9159C87.0791 56.7072 92.5733 62.2119 99.3514 62.2119C106.13 62.2119 111.624 56.7072 111.624 49.9159C111.624 43.1246 106.13 37.6199 99.3514 37.6199ZM99.3514 56.7253C95.597 56.7253 92.5516 53.6739 92.5516 49.9123C92.5516 46.1506 95.597 43.0993 99.3514 43.0993C103.106 43.0993 106.151 46.1506 106.151 49.9123C106.151 53.6776 103.106 56.7253 99.3514 56.7253Z" fill="#579AF2"/>
<path d="M99.3519 54.7286C102.007 54.7286 104.159 52.5723 104.159 49.9124C104.159 47.2525 102.007 45.0962 99.3519 45.0962C96.6971 45.0962 94.5449 47.2525 94.5449 49.9124C94.5449 52.5723 96.6971 54.7286 99.3519 54.7286Z" fill="#3F7BCA"/>
<path d="M115.19 23.0735C112.988 22.7836 111.288 20.8991 111.288 18.6124C111.288 16.1264 113.299 14.1078 115.784 14.1078C118.265 14.1078 120.279 16.1228 120.279 18.6124C120.279 20.8991 118.58 22.7799 116.377 23.0735H121.592C122.54 21.8377 123.112 20.2939 123.112 18.6124C123.112 14.5608 119.831 11.2739 115.787 11.2739C111.743 11.2739 108.463 14.5608 108.463 18.6124C108.463 20.2939 109.031 21.8341 109.982 23.0735H115.19Z" fill="#FFFEFD"/>
<path d="M115.78 13.6876C114.894 13.6876 114.171 12.9628 114.171 12.075V5.01915C114.171 4.13128 114.894 3.40649 115.78 3.40649C116.667 3.40649 117.39 4.13128 117.39 5.01915V12.075C117.39 12.9628 116.667 13.6876 115.78 13.6876Z" fill="#FFFEFD"/>
<path d="M146.014 0.5L115.82 2.52941C115.444 2.55477 115.144 3.30131 115.144 4.1928C115.144 5.08429 115.444 5.83082 115.82 5.85618L146.014 7.88559V0.5Z" fill="#FFFEFD"/>
<path d="M115.78 16.5649C117.845 16.5649 119.52 14.8872 119.52 12.8177C119.52 10.7482 117.845 9.07056 115.78 9.07056C113.714 9.07056 112.04 10.7482 112.04 12.8177C112.04 14.8872 113.714 16.5649 115.78 16.5649Z" fill="#579AF2"/>
<path d="M115.78 6.71877C117.172 6.71877 118.301 5.58789 118.301 4.19288C118.301 2.79787 117.172 1.66699 115.78 1.66699C114.387 1.66699 113.259 2.79787 113.259 4.19288C113.259 5.58789 114.387 6.71877 115.78 6.71877Z" fill="#579AF2"/>
<path d="M115.407 40.3779C114.513 40.3779 113.624 40.2692 112.763 40.0553L113.671 36.3915C114.235 36.5329 114.821 36.6017 115.41 36.6053L115.407 40.3779ZM118.029 40.0662L117.139 36.3988C117.707 36.2611 118.257 36.0509 118.778 35.7791L120.528 39.124C119.736 39.5371 118.897 39.856 118.029 40.0662ZM110.289 39.1131C109.504 38.6964 108.766 38.1854 108.101 37.5947L110.603 34.7716C111.041 35.163 111.526 35.5 112.043 35.7718L110.289 39.1131ZM122.706 37.6201L120.214 34.7898C120.655 34.3984 121.046 33.9599 121.382 33.4743L124.478 35.6269C123.968 36.3589 123.371 37.0293 122.706 37.6201ZM106.35 35.6088C105.844 34.8731 105.428 34.0758 105.113 33.2423L108.639 31.9087C108.846 32.4559 109.121 32.9814 109.453 33.4634L106.35 35.6088ZM125.712 33.2858L122.192 31.9377C122.402 31.3905 122.543 30.8179 122.615 30.2345L126.355 30.6911C126.247 31.5789 126.03 32.4523 125.712 33.2858ZM104.48 30.6657C104.429 30.2272 104.4 29.7815 104.4 29.3393C104.4 28.89 104.429 28.4406 104.48 27.9985L108.22 28.4515C108.184 28.7414 108.166 29.0386 108.166 29.3357C108.166 29.6293 108.184 29.9228 108.216 30.2127L104.48 30.6657ZM122.619 28.4877C122.55 27.9043 122.413 27.3317 122.207 26.7845L125.733 25.4509C126.048 26.2844 126.258 27.1614 126.363 28.0492L122.619 28.4877ZM108.639 26.7663L105.117 25.4255C105.431 24.592 105.851 23.7983 106.357 23.0627L109.457 25.2117C109.121 25.6973 108.846 26.2191 108.639 26.7663ZM121.4 25.237C121.067 24.7514 120.677 24.3093 120.239 23.9179L122.746 21.0985C123.411 21.6928 124.001 22.3669 124.507 23.0989L121.4 25.237ZM110.611 23.9071L108.108 21.084C108.773 20.4897 109.511 19.9787 110.3 19.5656L112.054 22.9068C111.533 23.1786 111.048 23.5157 110.611 23.9071ZM118.81 22.9213C118.293 22.6459 117.743 22.4357 117.175 22.2944L118.087 18.6306C118.951 18.848 119.791 19.1669 120.579 19.5873L118.81 22.9213ZM113.678 22.2908L112.777 18.6233C113.638 18.4095 114.528 18.3044 115.421 18.3044L115.457 22.0806H115.392C114.828 22.077 114.242 22.1494 113.678 22.2908Z" fill="#3F7BCA"/>
<path d="M115.418 20.189C110.372 20.189 106.285 24.284 106.285 29.3394C106.285 34.3948 110.372 38.4899 115.418 38.4899C120.464 38.4899 124.551 34.3948 124.551 29.3394C124.551 24.2876 120.464 20.189 115.418 20.189ZM115.418 34.4129C112.622 34.4129 110.358 32.1443 110.358 29.343C110.358 26.5417 112.622 24.2731 115.418 24.2731C118.214 24.2731 120.478 26.5417 120.478 29.343C120.478 32.1407 118.214 34.4129 115.418 34.4129Z" fill="#579AF2"/>
<path d="M116.774 32.6515C118.601 31.8985 119.473 29.8041 118.721 27.9735C117.97 26.143 115.879 25.2694 114.052 26.0224C112.225 26.7753 111.353 28.8697 112.105 30.7003C112.856 32.5309 114.947 33.4044 116.774 32.6515Z" fill="#3F7BCA"/>
<defs>
<linearGradient id="paint0_linear_564_3879" x1="-1.01597" y1="61.1393" x2="18.4704" y2="65.2561" gradientUnits="userSpaceOnUse">
<stop stop-color="#32F094"/>
<stop offset="1" stop-color="#579AF2"/>
</linearGradient>
<linearGradient id="paint1_linear_564_3879" x1="0.482027" y1="62.3179" x2="16.6386" y2="65.7201" gradientUnits="userSpaceOnUse">
<stop stop-color="#32F094"/>
<stop offset="1" stop-color="#579AF2"/>
</linearGradient>
<linearGradient id="paint2_linear_564_3879" x1="4.90478" y1="65.9331" x2="11.238" y2="67.2668" gradientUnits="userSpaceOnUse">
<stop stop-color="#32F094"/>
<stop offset="1" stop-color="#579AF2"/>
</linearGradient>
<clipPath id="clip0_564_3879">
<rect width="100.211" height="46.5894" fill="white" transform="translate(5.4834 44.3462)"/>
</clipPath>
</defs>
</svg>
