<svg width="710" height="676" viewBox="0 0 710 676" fill="none" xmlns="http://www.w3.org/2000/svg">
<mask id="mask0_2253_2433" style="mask-type:alpha" maskUnits="userSpaceOnUse" x="43" y="128" width="158" height="107">
<path d="M43.7038 165.898C47.7843 188.223 51.8664 210.557 55.9469 232.882C108.49 245.323 147.744 185.103 200.289 197.554C196.208 175.229 192.126 152.895 188.046 130.57C135.501 118.12 96.2473 178.34 43.7038 165.898ZM108.775 185.186C107.618 185.751 106.467 186.306 105.308 186.863C105.468 186.099 105.626 185.326 105.785 184.562C106.703 184.122 107.621 183.682 108.535 183.225C108.42 182.148 108.369 180.978 108.402 179.72C108.435 178.462 108.548 177.189 108.744 175.883C108.943 174.586 109.266 173.275 109.706 171.961C110.146 170.646 110.715 169.39 111.41 168.184C112.108 166.986 112.843 165.944 113.623 165.048C114.395 164.163 115.164 163.406 115.929 162.776C116.694 162.146 117.415 161.625 118.092 161.21C118.77 160.796 119.369 160.451 119.883 160.185C121.009 159.598 122.197 159.099 123.438 158.691C124.679 158.283 125.918 158.165 127.15 158.348C127.883 158.441 128.644 158.683 129.431 159.065C130.217 159.448 130.935 160.097 131.58 160.995C131.332 161.921 131.083 162.846 130.825 163.764C130.227 162.676 129.513 161.899 128.696 161.45C127.879 161 127.121 160.721 126.42 160.614C125.273 160.442 124.174 160.534 123.122 160.881C122.071 161.236 121.11 161.639 120.232 162.098C119.835 162.307 119.324 162.591 118.709 162.948C118.096 163.315 117.447 163.787 116.757 164.376C116.066 164.965 115.363 165.683 114.636 166.523C113.91 167.364 113.259 168.372 112.678 169.558C112.175 170.53 111.776 171.573 111.478 172.671C111.179 173.769 110.956 174.88 110.796 175.989C110.636 177.098 110.562 178.182 110.556 179.244C110.549 180.298 110.591 181.27 110.671 182.154C116.738 179.113 122.771 175.887 128.83 172.802C128.672 173.575 128.515 174.356 128.357 175.129C122.517 178.12 116.706 181.223 110.853 184.144C110.913 184.668 110.969 185.175 111.04 185.661C111.112 186.156 111.19 186.631 111.275 187.097C111.36 187.562 111.45 188.008 111.548 188.444C111.646 188.88 111.751 189.305 111.87 189.71C117.04 187.123 122.185 184.395 127.351 181.736C127.194 182.518 127.036 183.291 126.88 184.072C122.072 186.557 117.265 189.096 112.444 191.51C112.869 192.938 113.466 194.371 114.243 195.79C115.019 197.208 115.976 198.376 117.094 199.279C118.037 200.068 118.984 200.584 119.953 200.825C120.914 201.066 121.835 201.143 122.715 201.045C123.595 200.948 124.43 200.75 125.209 200.444C125.989 200.148 126.693 199.828 127.315 199.506C128.152 199.072 129.016 198.542 129.9 197.918C130.784 197.294 131.608 196.59 132.391 195.811C133.064 195.126 133.748 194.302 134.452 193.339C135.156 192.376 135.802 191.242 136.406 189.933C136.568 190.82 136.73 191.707 136.892 192.593C136.469 193.351 135.996 194.091 135.475 194.812C134.946 195.544 134.314 196.258 133.566 196.976C132.698 197.887 131.709 198.73 130.621 199.528C129.533 200.326 128.457 200.994 127.398 201.55C125.071 202.765 122.902 203.361 120.902 203.336C118.902 203.312 117.134 202.673 115.591 201.431C114.335 200.463 113.255 199.173 112.344 197.561C111.432 195.95 110.739 194.289 110.265 192.589C109.075 193.178 107.882 193.75 106.688 194.313C106.847 193.549 107.006 192.776 107.165 192.012C108.049 191.587 108.925 191.164 109.807 190.731C109.248 188.864 108.91 187.012 108.775 185.186Z" fill="url(#paint0_linear_2253_2433)"/>
</mask>
<g mask="url(#mask0_2253_2433)">
<path d="M43.7048 165.898C47.7853 188.223 51.8673 210.557 55.9478 232.882C108.491 245.324 147.745 185.104 200.29 197.554C196.209 175.229 192.127 152.895 188.047 130.571C135.502 118.12 96.2482 178.34 43.7048 165.898ZM108.776 185.186C107.619 185.751 106.468 186.306 105.309 186.863C105.469 186.099 105.627 185.326 105.786 184.562C106.704 184.122 107.622 183.682 108.536 183.225C108.421 182.148 108.37 180.978 108.403 179.72C108.436 178.462 108.549 177.19 108.745 175.884C108.944 174.586 109.267 173.275 109.707 171.961C110.147 170.647 110.716 169.391 111.411 168.184C112.109 166.986 112.844 165.944 113.624 165.049C114.396 164.164 115.165 163.406 115.93 162.776C116.695 162.147 117.416 161.625 118.093 161.211C118.771 160.797 119.37 160.451 119.884 160.185C121.01 159.598 122.198 159.1 123.439 158.691C124.68 158.283 125.919 158.165 127.15 158.349C127.884 158.441 128.645 158.683 129.432 159.066C130.218 159.448 130.936 160.097 131.581 160.995C131.333 161.921 131.084 162.846 130.826 163.764C130.228 162.676 129.514 161.899 128.697 161.45C127.88 161 127.122 160.722 126.421 160.614C125.274 160.442 124.175 160.534 123.123 160.881C122.072 161.236 121.111 161.639 120.233 162.099C119.836 162.307 119.325 162.591 118.71 162.949C118.097 163.315 117.448 163.787 116.758 164.376C116.067 164.965 115.364 165.683 114.637 166.524C113.911 167.364 113.26 168.372 112.679 169.558C112.176 170.53 111.777 171.573 111.479 172.671C111.18 173.769 110.957 174.88 110.797 175.989C110.637 177.098 110.563 178.182 110.557 179.245C110.55 180.298 110.592 181.271 110.672 182.154C116.739 179.113 122.772 175.887 128.831 172.802C128.672 173.575 128.516 174.357 128.358 175.129C122.518 178.12 116.707 181.223 110.854 184.144C110.914 184.668 110.97 185.175 111.041 185.661C111.113 186.156 111.191 186.632 111.276 187.097C111.361 187.562 111.451 188.008 111.549 188.444C111.647 188.88 111.752 189.305 111.871 189.71C117.041 187.123 122.186 184.395 127.352 181.736C127.195 182.518 127.037 183.291 126.881 184.072C122.073 186.557 117.266 189.096 112.445 191.51C112.87 192.939 113.467 194.372 114.244 195.79C115.02 197.209 115.977 198.376 117.095 199.279C118.038 200.068 118.985 200.585 119.954 200.825C120.915 201.067 121.836 201.143 122.716 201.046C123.596 200.948 124.431 200.75 125.21 200.445C125.99 200.148 126.694 199.829 127.316 199.506C128.153 199.072 129.017 198.542 129.901 197.918C130.785 197.294 131.609 196.59 132.392 195.812C133.065 195.126 133.749 194.302 134.453 193.339C135.157 192.376 135.803 191.242 136.407 189.934C136.569 190.82 136.731 191.707 136.893 192.594C136.47 193.352 135.997 194.091 135.476 194.813C134.947 195.544 134.315 196.258 133.567 196.976C132.699 197.887 131.71 198.731 130.622 199.528C129.534 200.326 128.458 200.994 127.399 201.551C125.072 202.765 122.903 203.361 120.903 203.337C118.903 203.312 117.135 202.674 115.592 201.431C114.336 200.464 113.256 199.173 112.345 197.562C111.433 195.95 110.74 194.289 110.266 192.589C109.076 193.178 107.883 193.75 106.689 194.313C106.848 193.549 107.007 192.776 107.166 192.012C108.05 191.588 108.926 191.165 109.808 190.731C109.249 188.865 108.911 187.012 108.776 185.186Z" fill="url(#paint1_linear_2253_2433)"/>
</g>
<mask id="mask1_2253_2433" style="mask-type:alpha" maskUnits="userSpaceOnUse" x="33" y="120" width="178" height="123">
<path d="M33.1833 154.839C38.2667 182.651 43.3501 210.463 48.435 238.283C108.667 261.767 150.588 185.119 210.82 208.603C205.736 180.791 200.653 152.979 195.568 125.159C135.338 101.684 93.4064 178.324 33.1833 154.839ZM202.894 200.181C148.48 185.251 108.503 249.304 54.0892 234.374C49.7568 210.671 45.426 186.976 41.0936 163.273C95.516 178.202 135.493 114.148 189.898 129.08C194.23 152.783 198.561 176.478 202.894 200.181Z" fill="url(#paint2_linear_2253_2433)"/>
</mask>
<g mask="url(#mask1_2253_2433)">
<path d="M33.1824 154.839C38.2657 182.651 43.3491 210.463 48.4341 238.283C108.666 261.767 150.587 185.119 210.819 208.603C205.735 180.791 200.652 152.979 195.567 125.159C135.337 101.684 93.4054 178.324 33.1824 154.839ZM202.893 200.181C148.479 185.251 108.502 249.304 54.0882 234.374C49.7558 210.671 45.425 186.976 41.0926 163.273C95.515 178.202 135.492 114.148 189.897 129.08C194.229 152.783 198.56 176.478 202.893 200.181Z" fill="url(#paint3_linear_2253_2433)"/>
</g>
<g clip-path="url(#clip0_2253_2433)">
<mask id="mask2_2253_2433" style="mask-type:alpha" maskUnits="userSpaceOnUse" x="409" y="194" width="144" height="69">
<path d="M409.89 248.378C410.787 253.274 415.488 256.521 420.384 255.625L522.979 236.847L514.645 248.021C511.664 252.012 512.493 257.668 516.492 260.648C520.482 263.621 526.13 262.793 529.103 258.804L551.157 229.224C554.289 225.025 553.195 219.048 548.779 216.23L517.679 196.387C513.486 193.709 507.911 194.936 505.233 199.129C502.548 203.332 503.783 208.906 507.978 211.592L519.739 219.097L417.136 237.876C412.241 238.78 408.994 243.481 409.89 248.378Z" fill="url(#paint4_linear_2253_2433)"/>
</mask>
<g mask="url(#mask2_2253_2433)">
<path d="M409.89 248.378C410.787 253.274 415.488 256.521 420.384 255.625L522.979 236.847L514.645 248.021C511.664 252.012 512.493 257.668 516.492 260.648C520.482 263.621 526.13 262.793 529.103 258.804L551.157 229.224C554.289 225.025 553.195 219.048 548.779 216.23L517.679 196.387C513.486 193.709 507.911 194.936 505.233 199.129C502.548 203.332 503.783 208.906 507.978 211.592L519.739 219.097L417.136 237.876C412.241 238.78 408.994 243.481 409.89 248.378Z" fill="url(#paint5_linear_2253_2433)"/>
</g>
<g opacity="0.1">
<path d="M275.188 379.156C269.464 376.613 263.452 375.075 257.391 374.516L252.65 360.206L242.442 361.62L232.23 363.034L231.562 378.093C225.882 380.28 220.518 383.397 215.698 387.398L202.226 380.632L196.007 388.853L189.788 397.074L199.964 408.198C197.421 413.922 195.883 419.933 195.325 425.995L181.015 430.736L182.429 440.947L183.843 451.158L198.902 451.827C201.09 457.506 204.206 462.871 208.207 467.691L201.441 481.163L209.662 487.382L217.883 493.6L229.007 483.425C234.731 485.968 240.743 487.505 246.804 488.064L251.545 502.374L261.756 500.96L271.967 499.545L272.636 484.487C278.315 482.299 283.68 479.183 288.5 475.181L301.972 481.948L308.191 473.727L314.409 465.506L304.234 454.382C306.777 448.658 308.315 442.646 308.873 436.584L323.183 431.844L321.769 421.633L320.355 411.421L305.296 410.753C303.108 405.073 299.992 399.709 295.991 394.889L302.757 381.417L294.536 375.198L286.315 368.979L275.188 379.156ZM282.935 454.619C270.051 471.65 245.798 475.013 228.764 462.127C211.733 449.243 208.37 424.99 221.256 407.956C234.14 390.925 258.392 387.562 275.427 400.448C292.459 413.335 295.821 437.587 282.935 454.619Z" fill="#213748"/>
</g>
<path d="M189.436 503.593L184.247 503.08L182.236 502.881L158.631 500.537L158.003 500.476L157.694 500.447L157.28 502.204L150.139 532.603L142.982 563.036L142.57 564.808L117.407 671.888L243.4 648.181L277.283 641.804L298.466 637.819L309.945 592.994L309.96 592.942L317.558 563.256L329.011 518.526L329.281 517.465L191.62 503.813L189.436 503.593Z" fill="#F1B5A2"/>
<path d="M232.953 442.075C225.656 445.785 197.844 459.298 178.565 468.641L177.005 467.27L162.48 476.43C160.454 477.411 159.296 477.97 159.296 477.97L159.66 478.208L159.375 478.389L154.652 554.461C153.583 571.698 164.559 587.386 181.087 592.259C194.971 596.355 235.949 602.384 252.885 604.451C270.262 606.568 286.498 596.068 292.077 579.887C292.077 579.887 338.362 501.69 343.55 496.179C352.791 486.362 362.445 445.506 362.445 445.506C362.445 445.506 313.783 415.805 301.287 412.292C288.787 408.784 244.423 436.242 232.953 442.075Z" fill="#F1B5A2"/>
<path d="M360.336 244.715C360.336 244.715 369.804 286.782 375.61 283.985C381.416 281.188 398.939 265.567 389.921 249.99C380.905 234.412 360.336 244.715 360.336 244.715Z" fill="#F1B5A2"/>
<path d="M367.367 281.946C367.367 281.946 376.835 324.014 382.641 321.217C388.447 318.42 405.971 302.798 396.952 287.221C387.937 271.647 367.367 281.946 367.367 281.946Z" fill="#F1B5A2"/>
<path d="M367.132 316.118C367.132 316.118 376.603 358.185 382.406 355.388C388.212 352.591 405.735 336.97 396.717 321.393C387.704 305.815 367.132 316.118 367.132 316.118Z" fill="#F1B5A2"/>
<path d="M341.539 133.137L193.299 161.133C188.998 161.945 186.169 166.091 186.981 170.391L245.84 482.057C246.548 485.807 250.164 488.274 253.914 487.566L404.15 459.194C407.9 458.486 410.367 454.87 409.659 451.119L350.801 139.454C349.989 135.153 345.843 132.325 341.539 133.137Z" fill="#D2E1F4"/>
<path d="M366.23 285.992C372.4 324.29 346.353 360.338 308.058 366.505C269.759 372.675 233.712 346.629 227.541 308.33C221.372 270.035 247.417 233.984 285.716 227.817C324.015 221.65 360.063 247.696 366.23 285.992Z" fill="#FABA23"/>
<path d="M356.86 287.504C362.195 320.627 339.67 351.803 306.548 357.138C273.426 362.473 242.249 339.949 236.914 306.826C231.579 273.704 254.103 242.528 287.226 237.192C320.348 231.854 351.524 254.379 356.86 287.504Z" fill="#FAD332"/>
<path d="M306.393 357.511C306.268 357.46 306.172 357.345 306.149 357.204C306.113 356.984 306.263 356.777 306.483 356.741C339.331 351.448 361.753 320.419 356.461 287.57C353.898 271.656 345.29 257.696 332.226 248.254C319.159 238.812 303.202 235.027 287.289 237.589C287.07 237.627 286.862 237.478 286.826 237.255C286.791 237.036 286.941 236.828 287.16 236.793C303.283 234.194 319.458 238.031 332.697 247.598C345.936 257.165 354.658 271.315 357.256 287.438C362.62 320.726 339.899 352.174 306.611 357.535L306.393 357.511Z" fill="#20111D"/>
<path d="M249.711 268.898C249.526 268.821 249.423 268.618 249.476 268.422C249.508 268.298 252.899 255.913 263.517 250.023C263.713 249.918 263.959 249.986 264.066 250.18C264.175 250.376 264.103 250.622 263.91 250.73C253.598 256.447 250.291 268.507 250.258 268.628C250.199 268.843 249.979 268.971 249.763 268.913L249.711 268.898Z" fill="#20111D"/>
<path d="M255.891 272.427C255.706 272.35 255.604 272.149 255.656 271.951C255.688 271.827 259.079 259.441 269.697 253.555C269.894 253.447 270.14 253.518 270.247 253.711C270.356 253.908 270.284 254.153 270.091 254.261C259.77 259.983 256.469 272.039 256.439 272.159C256.38 272.374 256.16 272.503 255.944 272.444L255.891 272.427Z" fill="#20111D"/>
<g filter="url(#filter0_d_2253_2433)">
<path d="M317.722 295.007C316.259 294.131 314.687 293.449 313.016 292.962C317.354 289.002 317.711 284.283 317.016 280.604C315.933 274.868 312.025 268.758 300.423 268.415L298.949 260.612L291.556 262.008L292.858 268.902C291.944 269.031 291.006 269.181 290.025 269.366L286.496 270.032L285.207 263.208L277.814 264.604L279.103 271.429L266.506 273.807L267.704 280.151L270.102 279.698C275.336 278.709 275.662 280.438 275.785 281.087L283.245 320.588C283.367 321.237 283.694 322.966 278.46 323.954L276.061 324.407L277.259 330.751L289.856 328.372L291.002 334.437L298.395 333.041L297.249 326.976L303.599 325.777L304.744 331.842L312.137 330.445L310.898 323.884C314.66 322.532 317.741 320.708 320.071 318.413C323.875 314.662 325.283 309.998 324.254 304.549C323.458 300.332 321.26 297.123 317.722 295.007ZM288.463 277.99C288.781 277.868 289.351 277.692 290.323 277.508C290.724 277.433 291.964 277.239 295.596 276.742C300.723 276.715 303.392 278.726 304.247 283.254C304.698 285.641 304.269 287.453 302.9 288.963C301.393 290.626 298.861 291.801 295.377 292.459L291.339 293.221L288.463 277.99ZM308.97 314.575C307.191 316.41 304.271 317.723 300.293 318.475C297.287 319.042 296.476 318.749 296.473 318.75C296.346 318.681 296.084 318.328 295.917 317.443L292.854 301.227L294.389 300.937C308.681 298.238 309.875 304.557 310.324 306.938C310.985 310.453 310.543 312.949 308.97 314.575Z" fill="#FABA23"/>
</g>
<path d="M298.487 333.519L290.615 335.006L289.47 328.94L276.873 331.319L275.585 324.5C275.535 324.237 275.708 323.985 275.971 323.935C276.234 323.885 276.486 324.058 276.536 324.321L277.644 330.189L290.241 327.81L291.386 333.875L298.304 332.568C298.567 332.519 298.82 332.691 298.869 332.954C298.921 333.214 298.75 333.469 298.487 333.519ZM310.413 307.414C310.149 307.464 309.897 307.291 309.847 307.028C309.423 304.779 308.295 298.807 294.478 301.416C294.214 301.466 293.962 301.293 293.912 301.03C293.862 300.767 294.035 300.515 294.298 300.465C309.066 297.676 310.325 304.342 310.799 306.852C310.847 307.109 310.676 307.364 310.413 307.414ZM304.341 283.729C304.078 283.778 303.826 283.606 303.776 283.343C302.963 279.039 300.527 277.207 295.633 277.227C292.034 277.718 290.81 277.912 290.415 277.986C289.467 278.166 288.926 278.336 288.64 278.446C288.392 278.542 288.109 278.419 288.015 278.167C287.918 277.916 288.041 277.636 288.293 277.542C288.755 277.362 289.428 277.188 290.236 277.035C290.816 276.926 292.649 276.66 295.532 276.264L295.596 276.259C300.931 276.23 303.832 278.423 304.728 283.166C304.777 283.427 304.605 283.679 304.341 283.729ZM317.107 281.079C316.844 281.129 316.592 280.957 316.542 280.694C315.116 273.142 309.689 269.174 300.411 268.901L300.021 268.89L298.565 261.18L292.123 262.397L293.335 268.812C293.385 269.075 293.212 269.328 292.949 269.377C292.686 269.427 292.434 269.255 292.384 268.992L290.992 261.622L299.339 260.046L300.831 267.945C312.721 268.434 316.461 275.032 317.496 280.514C317.542 280.774 317.37 281.03 317.107 281.079ZM279.191 271.904C278.928 271.954 278.675 271.782 278.626 271.519L277.246 264.215L285.118 262.729C285.381 262.679 285.633 262.851 285.683 263.114C285.733 263.378 285.561 263.63 285.297 263.68L278.38 264.986L279.579 271.335C279.629 271.602 279.454 271.855 279.191 271.904Z" fill="#20111D"/>
<path d="M338.166 126.725L194.097 153.933C184.826 155.683 178.731 164.643 180.489 173.947L239.04 483.988C240.796 493.289 249.737 499.413 259.011 497.661L403.079 470.454C412.351 468.703 418.445 459.743 416.688 450.439L358.137 140.398C356.38 131.094 347.44 124.974 338.166 126.725ZM409.213 448.76C410.168 453.814 406.859 458.679 401.819 459.631L256.24 487.124C251.204 488.075 246.345 484.749 245.391 479.698L187.435 172.812C186.371 167.174 190.062 161.744 195.682 160.683L339.153 133.588C344.772 132.527 350.19 136.237 351.255 141.874L409.21 448.76L409.213 448.76Z" fill="#0D060E"/>
<path d="M217.977 283.059C204.288 281.184 210.766 301.364 199.147 315.152C187.527 328.939 171.824 339.93 169.279 354.68C166.731 369.431 154.813 395.758 149.859 409.445C144.904 423.13 157.693 500.447 157.693 500.447L237.444 475.577L217.116 367.941C217.116 367.941 225.673 352.056 235.991 331.38C246.307 310.706 231.662 284.935 217.977 283.059Z" fill="#F1B5A2"/>
<path d="M196.562 317.558C195.664 318.399 174.511 338.305 170.099 348.973C167.951 354.164 165.788 361.293 163.497 368.844C161.035 376.963 158.485 385.358 155.612 392.597C154.858 394.492 154.138 396.19 153.443 397.826C148.925 408.461 146.198 414.879 149.069 441.12C152.327 470.89 157.529 503.796 157.581 504.124C157.651 504.56 158.057 504.855 158.49 504.786C158.499 504.784 158.505 504.783 158.514 504.781C158.936 504.701 159.219 504.301 159.151 503.874C159.099 503.546 153.901 470.677 150.649 440.946C147.823 415.121 150.491 408.846 154.905 398.451C155.604 396.805 156.329 395.1 157.089 393.185C159.988 385.886 162.547 377.458 165.018 369.306C167.298 361.795 169.449 354.702 171.568 349.584C175.851 339.232 197.43 318.927 197.649 318.724C197.971 318.425 197.987 317.92 197.687 317.599C197.385 317.275 196.883 317.258 196.562 317.558Z" fill="#010103"/>
<path d="M225.963 285.925C221.133 282.275 217.096 281.795 216.928 281.774C216.492 281.726 216.102 282.041 216.054 282.478C216.007 282.914 216.319 283.308 216.756 283.358C216.795 283.363 220.603 283.833 225.098 287.265C229.264 290.443 234.89 296.882 238.048 309.537C238.089 309.687 241.915 324.798 224.361 352.477L216.399 367.489C216.193 367.877 216.34 368.361 216.726 368.567C216.892 368.656 217.076 368.68 217.246 368.648C217.477 368.604 217.682 368.46 217.801 368.24L225.72 353.308C243.689 324.959 239.757 309.747 239.585 309.132C236.302 295.978 230.367 289.25 225.963 285.925Z" fill="#010103"/>
<g opacity="0.5">
<path d="M220.253 288.285C217.001 286.923 213.845 285.974 210.92 285.312C206.895 290.207 207.616 301.782 201.699 311.572L201.706 311.574C201.706 311.574 207.118 313.287 212.116 312.343C217.113 311.399 218.445 309.181 218.445 309.181L222.973 295.01C223.853 292.258 222.665 289.298 220.253 288.285Z" fill="#EBA18C"/>
</g>
<path d="M220.219 287.967C216.98 286.609 213.855 285.74 211.036 285.182C210.586 285.704 210.195 286.304 209.847 286.974C212.865 287.519 216.272 288.421 219.814 289.905C221.428 290.582 223.131 292.809 223.079 294.65L223.249 294.122C223.987 291.812 222.247 288.817 220.219 287.967Z" fill="#FCB6A9"/>
<path d="M176.571 482.096C176.52 481.696 176.154 481.412 175.755 481.463C175.356 481.517 175.075 481.88 175.126 482.282C175.202 482.884 177.105 497.11 183.041 503.875C183.219 504.077 183.479 504.158 183.724 504.111C183.847 504.088 183.969 504.031 184.07 503.941C184.372 503.673 184.4 503.212 184.135 502.909C178.492 496.482 176.589 482.238 176.571 482.096Z" fill="#010103"/>
<path d="M181.828 486.935C181.691 486.555 181.273 486.359 180.896 486.495C180.516 486.632 180.322 487.049 180.459 487.429C180.666 488 185.579 501.482 192.831 506.805C193.001 506.931 193.206 506.97 193.398 506.934C193.574 506.9 193.736 506.805 193.851 506.647C194.09 506.32 194.019 505.862 193.692 505.624C186.8 500.567 181.878 487.068 181.828 486.935Z" fill="#010103"/>
<path d="M194.697 350.488C187.266 347.319 177.959 346.816 177.568 346.794C177.13 346.771 176.758 347.111 176.735 347.549C176.713 347.99 177.05 348.363 177.491 348.385C177.584 348.389 186.904 348.896 194.079 351.952C194.23 352.016 194.388 352.03 194.537 352.001C194.788 351.954 195.013 351.784 195.12 351.529C195.292 351.128 195.102 350.662 194.697 350.488Z" fill="#010103"/>
<path d="M191.02 356.698C183.589 353.53 174.282 353.026 173.891 353.004C173.454 352.985 173.081 353.321 173.058 353.759C173.036 354.2 173.373 354.573 173.814 354.595C173.907 354.599 183.227 355.107 190.402 358.162C190.553 358.227 190.711 358.24 190.86 358.212C191.111 358.165 191.336 357.995 191.443 357.74C191.612 357.339 191.425 356.873 191.02 356.698Z" fill="#010103"/>
<path d="M628.8 509.192C626.031 505.716 622.568 501.371 618.682 496.489C618.056 495.7 617.419 494.903 616.773 494.087C611.014 486.849 604.463 478.614 597.891 470.353C581.078 449.21 564.141 427.871 560.016 422.558C551.234 411.238 519.057 347.017 498.753 353.475C478.449 359.936 475.154 365.579 475.154 365.579C475.154 365.579 456.812 368.34 446.947 381.331C446.947 381.331 422.353 385.837 423.215 410.394L422.492 409.679L412.651 400L406.887 394.33L406.206 393.659L378.263 366.175C378.263 366.175 352.38 340.947 335.073 327.797C328.7 322.948 323.486 319.745 321.159 320.039C314.871 320.836 310.67 324.259 308.855 328.889C307.66 331.939 307.506 335.521 308.479 339.215C309.36 342.552 311.16 345.981 313.944 349.207C317.077 352.843 334.008 373.037 353.755 396.642C354.891 397.998 356.035 399.368 357.187 400.742C360.08 404.204 363.023 407.718 365.977 411.252C394.795 445.716 424.821 481.665 425.287 482.228C424.721 481.941 388.512 463.715 370.825 461.626C353.002 459.522 337.837 476.351 345.028 487.33C345.028 487.33 345.745 487.768 346.989 488.533C347.06 488.579 347.136 488.623 347.214 488.671C347.641 488.934 348.121 489.23 348.648 489.558C353.247 492.394 361.515 497.514 369.267 502.418C369.7 502.692 370.13 502.967 370.559 503.236C378.016 507.967 384.763 512.37 386.999 514.175C388.446 515.339 392.889 518.48 399.175 522.652C399.632 522.956 400.103 523.269 400.584 523.584C402.013 524.528 403.526 525.519 405.113 526.542C405.579 526.847 406.052 527.151 406.521 527.456C419.008 535.483 460.993 557.624 490.713 569.273L506.159 550.736L553.871 548.781L557.439 548.634L611.804 546.405L625.457 530.148C625.457 530.148 625.456 530.142 625.459 530.142L626.309 529.133C626.312 529.132 626.311 529.129 626.317 529.125L628.336 526.715C630.692 522.544 630.196 516.093 629.129 510.756C629.026 510.224 628.914 509.697 628.8 509.192Z" fill="#F1B5A2"/>
<path d="M405.052 511.903C404.678 511.645 404.185 511.744 403.945 512.127C401.833 515.493 400.256 519.424 399.171 522.655C399.632 522.962 400.1 523.276 400.581 523.591C401.64 520.377 403.202 516.396 405.293 513.068C405.381 512.924 405.425 512.764 405.42 512.604C405.418 512.332 405.287 512.069 405.052 511.903Z" fill="black"/>
<path d="M410.591 516.977C410.217 516.719 409.722 516.819 409.478 517.2C407.616 520.166 406.169 523.574 405.114 526.551C405.58 526.853 406.049 527.158 406.526 527.465C407.564 524.499 408.997 521.066 410.83 518.143C410.918 518.003 410.958 517.84 410.957 517.683C410.954 517.407 410.827 517.143 410.591 516.977Z" fill="black"/>
<path d="M345.52 493.9C345.54 493.922 345.562 493.939 345.585 493.96C345.559 493.94 345.539 493.919 345.523 493.897C345.52 493.897 345.52 493.9 345.52 493.9Z" fill="#E89C85"/>
<g opacity="0.5">
<path d="M367.189 487.844L355.335 482.708C355.217 482.656 355.1 482.613 354.979 482.574C352.505 481.709 349.843 482.671 348.813 484.878C348.216 486.159 347.684 487.43 347.214 488.677C347.638 488.941 348.119 489.237 348.648 489.565C353.503 492.557 361.067 497.627 369.179 502.776C369.677 500.805 370.283 497.55 369.878 494.371C369.228 489.339 367.189 487.844 367.189 487.844Z" fill="#E58C76"/>
</g>
<path d="M348.507 484.89C347.931 486.123 347.427 487.342 346.988 488.54C347.058 488.586 347.135 488.63 347.212 488.677C347.636 488.941 348.117 489.238 348.646 489.565C349.126 488.217 349.683 486.839 350.331 485.446C351.052 483.904 353.236 482.395 354.977 482.577C354.983 482.576 354.993 482.577 354.999 482.579L354.505 482.372C352.352 481.453 349.418 482.943 348.507 484.89Z" fill="#E89C85"/>
<g opacity="0.5">
<path d="M333.785 335.282L333.69 335.173L324.099 324.34L323.99 324.219L323.985 324.226C322.816 323.04 320.889 323.039 319.611 324.274L311.581 332.038C310.238 333.339 310.128 335.367 311.293 336.633L311.286 336.641L311.407 336.76L322.107 347.148L322.213 347.252L322.218 347.245C323.346 348.215 325.146 348.02 326.325 346.788L333.391 339.411C334.519 338.234 334.681 336.432 333.78 335.289L333.785 335.282Z" fill="#E58C76"/>
</g>
<path d="M323.99 324.219L323.985 324.226C322.816 323.04 320.889 323.039 319.611 324.274L311.581 332.038C310.238 333.339 310.128 335.367 311.293 336.633L311.286 336.641L311.407 336.76L312.389 337.712L312.397 337.704C311.247 336.453 311.356 334.441 312.688 333.145L320.646 325.408C321.912 324.174 323.816 324.168 324.972 325.337L324.977 325.33L324.099 324.337L323.99 324.219Z" fill="#E89C85"/>
<path d="M314.464 348.725C309.237 342.665 307.313 335.561 309.316 329.716C311.008 324.784 315.361 321.525 321.259 320.773L321.053 319.304C314.615 320.12 309.851 323.724 307.977 329.185C305.794 335.551 307.83 343.219 313.418 349.7C320.874 358.346 407.529 462.082 422.555 480.074C413.361 475.594 385.834 462.663 370.883 460.896C359.133 459.507 348.795 466.205 344.654 473.538C341.855 478.495 341.776 483.674 344.44 487.742L344.532 487.883L344.673 487.971C344.673 487.971 345.391 488.411 346.624 489.17C346.702 489.22 346.782 489.267 346.858 489.311L348.293 490.199C352.952 493.07 361.99 498.664 370.194 503.873C379.147 509.557 384.655 513.221 386.566 514.762L387.415 513.601C385.461 512.025 379.906 508.329 370.907 502.614C362.696 497.403 353.651 491.804 348.989 488.934L347.544 488.039C347.471 487.997 347.405 487.957 347.331 487.909C346.412 487.342 345.779 486.957 345.512 486.79C343.235 483.194 343.363 478.771 345.878 474.313C349.794 467.379 359.594 461.049 370.755 462.367C388.255 464.433 424.624 482.716 424.99 482.9L428.068 484.453L425.818 481.759C424.789 480.522 322.597 358.154 314.464 348.725Z" fill="black"/>
<path d="M423.325 410.085L436.108 421.866L423.823 403.772L423.325 410.085Z" fill="#E89C85"/>
<path d="M447.168 381.19L447.345 382.012L467.003 401.229L449.775 378.233L447.168 381.19Z" fill="#E89C85"/>
<path d="M475.2 366.252L494.174 384.124L477.977 363.37L475.2 366.252Z" fill="#E89C85"/>
<path d="M628.405 507.56C610.437 484.991 567.436 430.963 560.566 422.107C558.664 419.66 555.65 414.691 551.832 408.4C538.119 385.808 515.232 348.102 498.88 352.67C498.765 352.701 498.644 352.736 498.531 352.776C480.53 358.502 475.71 363.637 474.747 364.9C472.283 365.319 455.933 368.506 446.548 380.66C445.288 380.926 439.817 382.248 434.357 386.038C428.804 389.896 422.299 397.109 422.493 409.682C422.494 409.92 422.499 410.161 422.509 410.407L423.219 410.396L423.655 410.395L423.931 410.392C423.859 408.306 423.965 406.313 424.258 404.417C425.347 397.323 428.989 391.584 435.129 387.308C440.981 383.229 447.033 382.08 447.096 382.068L447.353 382.02L447.515 381.81C448.343 380.718 449.235 379.701 450.169 378.756C459.981 368.813 474.848 366.386 475.273 366.322L475.279 366.32L475.594 366.267L475.762 365.994C475.776 365.969 476.334 365.105 478.214 363.675C481.096 361.486 487.09 357.979 498.979 354.194C499.075 354.164 499.175 354.135 499.275 354.107C505.816 352.28 514.58 358.081 525.325 371.349C534.738 382.98 543.931 398.119 550.641 409.176C554.485 415.509 557.52 420.511 559.473 423.026C566.589 432.204 612.442 489.803 629.138 510.767C629.033 510.229 628.919 509.705 628.802 509.201C628.671 508.625 628.541 508.079 628.405 507.56Z" fill="black"/>
<path d="M137.673 563.986L314.788 593.808L322.386 564.137L146.93 532.017L137.673 563.986Z" fill="white"/>
<path d="M309.96 592.942L287.487 588.916L155.572 565.292L142.983 563.036L138.196 562.178L133.093 561.267L106.885 674.297L311.258 635.701L320.921 594.908L314.789 593.811L309.96 592.942Z" fill="#236DCE"/>
<path d="M307.279 581.765C310.247 581.204 312.198 578.336 311.635 575.358C311.073 572.379 308.211 570.42 305.242 570.98C302.274 571.541 300.324 574.409 300.886 577.387C301.449 580.365 304.311 582.325 307.279 581.765Z" fill="#D2EAFF"/>
<path d="M606.613 462.706L598.423 469.884L597.889 470.353L597.351 470.82L482.986 570.735L501.986 593.007L557.44 548.637L618.141 496.951L618.683 496.489L619.228 496.027L631.307 485.742L628.924 483.519L606.613 462.706Z" fill="white"/>
<path d="M628.923 483.519L617.309 493.617L616.773 494.087L616.232 494.554L497.188 593.572L501.778 599.721L707.713 560.83L631.16 481.573L628.923 483.519Z" fill="#236DCE"/>
<path d="M342.482 132.959L192.358 161.31C188.574 162.025 186.089 165.678 186.806 169.473L189.915 185.937L353.735 155L350.625 138.536C349.912 134.74 346.263 132.245 342.482 132.959Z" fill="#2F2F2F"/>
<path d="M342.482 132.959L192.358 161.31C188.574 162.025 186.089 165.678 186.806 169.473L189.915 185.937L353.735 155L350.625 138.536C349.912 134.74 346.263 132.245 342.482 132.959Z" fill="black" fill-opacity="0.2"/>
<path d="M198.161 170.08C196.911 170.316 196.092 171.524 196.329 172.774C196.565 174.027 197.768 174.853 199.018 174.617C200.268 174.381 201.087 173.173 200.85 171.92C200.614 170.67 199.411 169.844 198.161 170.08Z" fill="#FEEFDC"/>
<path d="M205.159 168.759C203.909 168.995 203.09 170.203 203.327 171.453C203.563 172.706 204.769 173.531 206.016 173.296C207.266 173.06 208.085 171.852 207.849 170.599C207.612 169.349 206.41 168.523 205.159 168.759Z" fill="#FEEFDC"/>
<path d="M212.153 167.438C210.902 167.674 210.084 168.882 210.32 170.132C210.556 171.385 211.759 172.211 213.009 171.975C214.259 171.739 215.078 170.531 214.842 169.278C214.606 168.028 213.403 167.202 212.153 167.438Z" fill="#FEEFDC"/>
<path d="M321.582 147.376L320.67 147.548L321.195 150.327L322.107 150.155L322.475 152.107L340.252 148.75L339.053 142.401L321.276 145.758L321.582 147.376ZM321.981 146.161L338.541 143.034L339.544 148.348L322.985 151.475L321.981 146.161Z" fill="#FEEFDC"/>
<path d="M337.689 144.052L335.934 144.384L336.619 148.015L338.375 147.683L337.689 144.052Z" fill="#FEEFDC"/>
<path d="M334.745 144.608L332.989 144.94L333.675 148.571L335.43 148.239L334.745 144.608Z" fill="#FEEFDC"/>
<path d="M331.717 145.18L329.962 145.512L330.648 149.143L332.403 148.811L331.717 145.18Z" fill="#FEEFDC"/>
<path d="M569.181 228.141C590.177 223.581 603.502 202.863 598.941 181.866C594.381 160.87 573.664 147.545 552.667 152.105C531.67 156.666 518.346 177.383 522.906 198.38C527.466 219.376 548.184 232.701 569.181 228.141Z" fill="#FABA23"/>
<path d="M567.965 222.545C550.09 226.428 532.384 215.04 528.502 197.165C524.619 179.289 536.007 161.583 553.882 157.701C571.758 153.819 589.463 165.206 593.346 183.082C597.239 200.964 585.85 218.661 567.965 222.545ZM554.267 159.472C537.365 163.143 526.601 179.879 530.272 196.78C533.943 213.682 550.679 224.445 567.581 220.775C584.482 217.104 595.246 200.368 591.575 183.466C587.913 166.563 571.168 155.801 554.267 159.472Z" fill="white" stroke="white"/>
<circle cx="560.924" cy="190.123" r="33.7306" fill="#FAD332"/>
<g filter="url(#filter1_d_2253_2433)">
<path d="M556.621 166.628L556.494 167.758L562.18 198.83L562.561 199.085L575.788 187.854L556.621 166.628Z" fill="#FABA23"/>
<path d="M556.618 166.629L546.209 193.266L562.557 199.086L559.797 184.005L556.618 166.629Z" fill="#FFD571"/>
<path d="M563.061 201.816L562.918 202.066L564.944 213.134L565.221 213.619L576.298 190.587L563.061 201.816Z" fill="#FABA23"/>
<path d="M565.217 213.62L563.057 201.817L546.71 196.001L565.217 213.62Z" fill="#FFD571"/>
<path d="M562.555 199.086L575.782 187.854L559.795 184.004L562.555 199.086Z" fill="#E0A61D"/>
<path d="M546.209 193.266L562.557 199.086L559.797 184.004L546.209 193.266Z" fill="#FABA23"/>
</g>
</g>
<path d="M357.415 168.728C380.59 163.695 395.297 140.828 390.263 117.653C385.23 94.4783 362.363 79.7716 339.188 84.8048C316.013 89.838 301.307 112.705 306.34 135.88C311.373 159.055 334.24 173.761 357.415 168.728Z" fill="#FABA23"/>
<path d="M356.074 162.552C336.344 166.837 316.801 154.269 312.516 134.539C308.231 114.809 320.8 95.2659 340.53 90.9808C360.26 86.6958 379.803 99.2644 384.088 118.994C388.385 138.732 375.814 158.265 356.074 162.552ZM340.954 92.9353C322.299 96.9869 310.419 115.459 314.471 134.114C318.522 152.769 336.995 164.649 355.65 160.598C374.305 156.546 386.185 138.074 382.133 119.419C378.091 100.762 359.609 88.8837 340.954 92.9353Z" fill="white" stroke="white"/>
<circle cx="348.301" cy="126.767" r="37.23" fill="#FAD332"/>
<g filter="url(#filter2_d_2253_2433)">
<path d="M351.769 152.817L350.386 146.524C346.75 147.258 342.758 146.96 340.233 145.884L340.814 141.379C343.391 142.38 346.896 142.848 350.392 142.08C354.824 141.105 357.257 137.89 356.477 134.339C355.725 130.915 352.821 129.33 347.793 128.479C340.877 127.388 336.315 125.39 335.121 119.969C333.982 114.801 336.805 110.064 342.337 107.864L340.954 101.571L344.824 100.718L346.153 106.759C349.924 106.059 352.706 106.493 354.745 107.155L354.089 111.608C352.614 111.151 349.755 110.343 345.758 111.219C340.952 112.276 339.77 115.542 340.32 118.033C341.031 121.271 343.697 122.384 349.623 123.431C356.627 124.631 360.588 127.159 361.808 132.702C362.89 137.623 360.473 142.99 354.275 145.463L355.699 151.942L351.769 152.817Z" fill="#FABA23"/>
</g>
<g clip-path="url(#clip1_2253_2433)">
<mask id="mask3_2253_2433" style="mask-type:alpha" maskUnits="userSpaceOnUse" x="391" y="26" width="81" height="99">
<path d="M420.349 53.7565L434.729 50.6686L393.468 109.635C390.456 113.94 391.503 119.866 395.807 122.87C400.112 125.882 406.039 124.835 409.043 120.531L450.297 61.5735L452.323 76.1318C453.045 81.3382 457.855 84.9662 463.061 84.2366L463.068 84.2352C468.266 83.5069 471.888 78.7059 471.16 73.5085L465.788 34.9877C465.028 29.5186 459.782 25.8487 454.383 27.0088L416.358 35.1626C411.225 36.2598 407.957 41.3153 409.053 46.4399L409.054 46.4475C410.161 51.5861 415.218 54.8614 420.349 53.7565Z" fill="url(#paint6_linear_2253_2433)"/>
</mask>
<g mask="url(#mask3_2253_2433)">
<path d="M420.349 53.7565L434.729 50.6686L393.468 109.635C390.456 113.94 391.503 119.866 395.807 122.87C400.112 125.882 406.039 124.835 409.043 120.531L450.297 61.5735L452.323 76.1318C453.045 81.3382 457.855 84.9662 463.061 84.2366L463.068 84.2352C468.266 83.5069 471.888 78.7059 471.16 73.5085L465.788 34.9877C465.028 29.5186 459.782 25.8487 454.383 27.0088L416.358 35.1626C411.225 36.2598 407.957 41.3153 409.053 46.4399L409.054 46.4475C410.161 51.5861 415.218 54.8614 420.349 53.7565Z" fill="url(#paint7_linear_2253_2433)"/>
</g>
</g>
<defs>
<filter id="filter0_d_2253_2433" x="262.506" y="258.612" width="66.0742" height="81.8247" filterUnits="userSpaceOnUse" color-interpolation-filters="sRGB">
<feFlood flood-opacity="0" result="BackgroundImageFix"/>
<feColorMatrix in="SourceAlpha" type="matrix" values="0 0 0 0 0 0 0 0 0 0 0 0 0 0 0 0 0 0 127 0" result="hardAlpha"/>
<feOffset dy="2"/>
<feGaussianBlur stdDeviation="2"/>
<feComposite in2="hardAlpha" operator="out"/>
<feColorMatrix type="matrix" values="0 0 0 0 0 0 0 0 0 0 0 0 0 0 0 0 0 0 0.25 0"/>
<feBlend mode="normal" in2="BackgroundImageFix" result="effect1_dropShadow_2253_2433"/>
<feBlend mode="normal" in="SourceGraphic" in2="effect1_dropShadow_2253_2433" result="shape"/>
</filter>
<filter id="filter1_d_2253_2433" x="542.209" y="164.628" width="38.0889" height="54.9919" filterUnits="userSpaceOnUse" color-interpolation-filters="sRGB">
<feFlood flood-opacity="0" result="BackgroundImageFix"/>
<feColorMatrix in="SourceAlpha" type="matrix" values="0 0 0 0 0 0 0 0 0 0 0 0 0 0 0 0 0 0 127 0" result="hardAlpha"/>
<feOffset dy="2"/>
<feGaussianBlur stdDeviation="2"/>
<feComposite in2="hardAlpha" operator="out"/>
<feColorMatrix type="matrix" values="0 0 0 0 0 0 0 0 0 0 0 0 0 0 0 0 0 0 0.25 0"/>
<feBlend mode="normal" in2="BackgroundImageFix" result="effect1_dropShadow_2253_2433"/>
<feBlend mode="normal" in="SourceGraphic" in2="effect1_dropShadow_2253_2433" result="shape"/>
</filter>
<filter id="filter2_d_2253_2433" x="330.872" y="98.7178" width="35.1855" height="60.0991" filterUnits="userSpaceOnUse" color-interpolation-filters="sRGB">
<feFlood flood-opacity="0" result="BackgroundImageFix"/>
<feColorMatrix in="SourceAlpha" type="matrix" values="0 0 0 0 0 0 0 0 0 0 0 0 0 0 0 0 0 0 127 0" result="hardAlpha"/>
<feOffset dy="2"/>
<feGaussianBlur stdDeviation="2"/>
<feComposite in2="hardAlpha" operator="out"/>
<feColorMatrix type="matrix" values="0 0 0 0 0 0 0 0 0 0 0 0 0 0 0 0 0 0 0.25 0"/>
<feBlend mode="normal" in2="BackgroundImageFix" result="effect1_dropShadow_2253_2433"/>
<feBlend mode="normal" in="SourceGraphic" in2="effect1_dropShadow_2253_2433" result="shape"/>
</filter>
<linearGradient id="paint0_linear_2253_2433" x1="194.959" y1="168.388" x2="49.0335" y2="195.06" gradientUnits="userSpaceOnUse">
<stop/>
<stop offset="0.00738025" stop-color="#090909"/>
<stop offset="0.0477" stop-color="#373737"/>
<stop offset="0.0931" stop-color="#626262"/>
<stop offset="0.1419" stop-color="#888888"/>
<stop offset="0.195" stop-color="#A8A8A8"/>
<stop offset="0.2537" stop-color="#C4C4C4"/>
<stop offset="0.32" stop-color="#DADADA"/>
<stop offset="0.3974" stop-color="#EBEBEB"/>
<stop offset="0.4931" stop-color="#F6F6F6"/>
<stop offset="0.6274" stop-color="#FDFDFD"/>
<stop offset="1" stop-color="white"/>
</linearGradient>
<linearGradient id="paint1_linear_2253_2433" x1="49.0359" y1="195.065" x2="194.955" y2="168.395" gradientUnits="userSpaceOnUse">
<stop offset="0.00043846" stop-color="#BDBDBD"/>
<stop offset="0.1504" stop-color="#C1BFBF"/>
<stop offset="0.4813" stop-color="#C2C1C1"/>
<stop offset="0.7753" stop-color="#D2D2D2"/>
<stop offset="1" stop-color="#C3C3C3"/>
</linearGradient>
<linearGradient id="paint2_linear_2253_2433" x1="203.19" y1="166.884" x2="40.8058" y2="196.564" gradientUnits="userSpaceOnUse">
<stop/>
<stop offset="0.00738025" stop-color="#090909"/>
<stop offset="0.0477" stop-color="#373737"/>
<stop offset="0.0931" stop-color="#626262"/>
<stop offset="0.1419" stop-color="#888888"/>
<stop offset="0.195" stop-color="#A8A8A8"/>
<stop offset="0.2537" stop-color="#C4C4C4"/>
<stop offset="0.32" stop-color="#DADADA"/>
<stop offset="0.3974" stop-color="#EBEBEB"/>
<stop offset="0.4931" stop-color="#F6F6F6"/>
<stop offset="0.6274" stop-color="#FDFDFD"/>
<stop offset="1" stop-color="white"/>
</linearGradient>
<linearGradient id="paint3_linear_2253_2433" x1="203.195" y1="166.882" x2="40.8081" y2="196.563" gradientUnits="userSpaceOnUse">
<stop stop-color="#545454"/>
<stop offset="0.0185" stop-color="#5D5D5D"/>
<stop offset="0.0889" stop-color="#777777"/>
<stop offset="0.1697" stop-color="#8D8D8D"/>
<stop offset="0.2642" stop-color="#9E9E9E"/>
<stop offset="0.3811" stop-color="#AAAAAA"/>
<stop offset="0.545" stop-color="#B1B1B1"/>
<stop offset="1" stop-color="#B3B3B3"/>
</linearGradient>
<linearGradient id="paint4_linear_2253_2433" x1="409.89" y1="248.374" x2="552.795" y2="222.218" gradientUnits="userSpaceOnUse">
<stop offset="0.00043846"/>
<stop offset="0.1561" stop-color="#3D3D3D"/>
<stop offset="0.3242" stop-color="#777777"/>
<stop offset="0.4868" stop-color="#A8A8A8"/>
<stop offset="0.6397" stop-color="#CECECE"/>
<stop offset="0.7805" stop-color="#E9E9E9"/>
<stop offset="0.905" stop-color="#F9F9F9"/>
<stop offset="1" stop-color="white"/>
</linearGradient>
<linearGradient id="paint5_linear_2253_2433" x1="422.084" y1="244.858" x2="552.795" y2="222.218" gradientUnits="userSpaceOnUse">
<stop offset="0.00043846" stop-color="#BDBDBD" stop-opacity="0"/>
<stop offset="0.496032" stop-color="#BFBFBF" stop-opacity="0.317409"/>
<stop offset="1" stop-color="#C3C3C3"/>
</linearGradient>
<linearGradient id="paint6_linear_2253_2433" x1="395.809" y1="122.871" x2="461.825" y2="28.5081" gradientUnits="userSpaceOnUse">
<stop offset="0.00043846"/>
<stop offset="0.1561" stop-color="#3D3D3D"/>
<stop offset="0.3242" stop-color="#777777"/>
<stop offset="0.4868" stop-color="#A8A8A8"/>
<stop offset="0.6397" stop-color="#CECECE"/>
<stop offset="0.7805" stop-color="#E9E9E9"/>
<stop offset="0.905" stop-color="#F9F9F9"/>
<stop offset="1" stop-color="white"/>
</linearGradient>
<linearGradient id="paint7_linear_2253_2433" x1="410.425" y1="109.672" x2="462.606" y2="31.264" gradientUnits="userSpaceOnUse">
<stop offset="0.00043846" stop-color="#BDBDBD" stop-opacity="0"/>
<stop offset="0.496032" stop-color="#BFBFBF" stop-opacity="0.317409"/>
<stop offset="1" stop-color="#C3C3C3"/>
</linearGradient>
<clipPath id="clip0_2253_2433">
<rect width="611.449" height="495.141" fill="white" transform="translate(15 187.755) rotate(-10.6944)"/>
</clipPath>
<clipPath id="clip1_2253_2433">
<rect width="87" height="87" fill="white" transform="translate(378.417 40.4246) rotate(-10.0212)"/>
</clipPath>
</defs>
</svg>
