<svg width="599" height="409" viewBox="0 0 599 409" fill="none" xmlns="http://www.w3.org/2000/svg">
<g clip-path="url(#clip0_543_2326)">
<path d="M129.974 74.9963C140.006 74.9963 148.139 66.88 148.139 56.8681C148.139 46.8562 140.006 38.74 129.974 38.74C119.942 38.74 111.81 46.8562 111.81 56.8681C111.81 66.88 119.942 74.9963 129.974 74.9963Z" fill="#D4DEFF"/>
<path d="M134.577 70.1798L133.183 67.02C131.351 67.7882 129.22 68.051 127.779 67.7526L127.607 65.3254C129.066 65.5793 130.96 65.459 132.716 64.6863C134.943 63.7088 135.88 61.7626 135.095 59.9789C134.336 58.2576 132.643 57.7321 129.909 57.8123C126.159 57.9659 123.548 57.3959 122.348 54.6725C121.201 52.0761 122.18 49.2904 124.858 47.5535L123.463 44.3938L125.407 43.5387L126.745 46.5738C128.653 45.81 130.161 45.7454 131.304 45.8768L131.431 48.2862C130.608 48.1993 129.017 48.0768 127.011 48.9586C124.597 50.0208 124.322 51.8579 124.876 53.1116C125.594 54.7393 127.114 55.0422 130.338 54.9687C134.147 54.864 136.496 55.7748 137.723 58.5582C138.814 61.03 138.111 64.1029 135.117 66.0536L136.554 69.3069L134.577 70.1798Z" fill="white"/>
<path d="M77.3886 151.43L62.0645 134.253C62.0645 134.253 67.7006 122.195 84.2497 121.767C94.509 121.502 103.57 111.181 103.57 111.181L118.977 128.45C118.977 128.45 109.008 142.601 97.2757 142.708C84.8678 142.819 77.3886 151.43 77.3886 151.43Z" fill="#D4DEFF"/>
<path d="M99.2884 127.72C100.895 132.144 98.0054 137.248 92.8334 139.118C87.6614 140.989 82.1658 138.92 80.5593 134.496C78.9528 130.071 81.8423 124.967 87.0143 123.097C92.1841 121.224 97.6796 123.295 99.2884 127.72Z" fill="#E3EAFF"/>
<path d="M556.621 170.983L549.211 149.206C549.211 149.206 535.922 148.15 527.383 162.306C522.091 171.079 508.625 173.854 508.625 173.854L516.075 195.747C516.075 195.747 533.327 194.075 539.209 183.943C545.427 173.226 556.621 170.983 556.621 170.983Z" fill="#D4DEFF"/>
<path d="M525.151 178.294C528.215 181.872 534.09 181.881 538.271 178.314C542.455 174.747 543.361 168.955 540.297 165.376C537.234 161.798 531.359 161.789 527.177 165.356C522.996 168.924 522.088 174.715 525.151 178.294Z" fill="#E3EAFF"/>
<path d="M549.029 408.914C574.914 367.705 601.586 334.74 598.799 276.325C596.409 226.265 539.785 211.807 524.751 190.508C506.352 164.439 527.935 115.02 495.292 70.5204C459.543 21.7897 402.269 22.8608 355.158 47.4755C320.757 65.45 285.439 71.6404 250.854 60.9831C192.405 42.973 112.314 37.9382 104.351 109.455C98.815 159.186 71.7054 174.613 28.7116 207.988C-29.2852 253.006 14.8488 342.004 37.2081 404.903L549.029 408.914Z" fill="#D2E1F4"/>
<path d="M549.029 408.914H7.99459C6.50858 408.914 5.30371 407.711 5.30371 406.228V405.716C5.30371 404.233 6.50858 403.03 7.99459 403.03H549.029C550.515 403.03 551.72 404.233 551.72 405.716V406.228C551.718 407.711 550.513 408.914 549.029 408.914Z" fill="#95A6DB"/>
<path d="M346.715 186.767C349.584 196.489 344.011 206.692 334.269 209.556C324.527 212.419 314.304 206.857 311.434 197.135C308.565 187.413 314.139 177.209 323.88 174.346C333.622 171.482 343.848 177.045 346.715 186.767Z" fill="white"/>
<path d="M331.967 205.91L330.978 202.557C329.039 203.091 326.866 203.08 325.458 202.592L325.601 200.134C327.034 200.579 328.95 200.702 330.813 200.154C333.174 199.459 334.37 197.629 333.812 195.736C333.272 193.91 331.643 193.162 328.888 192.89C325.104 192.559 322.555 191.648 321.703 188.76C320.891 186.003 322.236 183.335 325.15 181.939L324.162 178.586L326.224 177.98L327.174 181.2C329.189 180.679 330.711 180.81 331.842 181.091L331.657 183.527C330.84 183.333 329.26 183.004 327.132 183.629C324.57 184.382 324.057 186.192 324.448 187.522C324.956 189.247 326.442 189.748 329.689 190.094C333.526 190.481 335.767 191.699 336.637 194.654C337.411 197.277 336.307 200.272 333.045 201.842L334.064 205.296L331.967 205.91Z" fill="#E3EAFF"/>
<path d="M305.486 230.167L283.287 245.872L213.478 295.26L206.249 300.372L211.751 308.186L242.277 351.535L295.657 313.693L322.832 294.429L323.153 294.204L325.904 259.164L305.486 230.167Z" fill="#2DE68C"/>
<path d="M321.778 271.614L307.958 251.987C303.192 255.329 296.614 254.182 293.263 249.428L228.55 295.42C231.899 300.176 230.75 306.743 225.984 310.088L239.807 329.714C244.573 326.372 251.151 327.519 254.502 332.273L319.215 286.281C315.863 281.523 317.01 274.956 321.778 271.614Z" fill="#4EAD60"/>
<path d="M291.119 279.454C285.559 271.558 274.637 269.656 266.725 275.205C258.813 280.754 256.905 291.654 262.468 299.551C268.028 307.447 278.95 309.351 286.862 303.799C294.774 298.25 296.68 287.352 291.119 279.454Z" fill="#2DE68C"/>
<path d="M325.904 259.164L306.142 278.024L322.831 294.429L323.112 294.705L323.153 294.204L325.904 259.164Z" fill="#2DE68C"/>
<path opacity="0.2" d="M315.861 299.319L306.142 278.024L322.831 294.429L315.861 299.319Z" fill="#109353"/>
<path opacity="0.2" d="M325.904 259.164L306.142 278.024L324.549 257.242L325.904 259.164Z" fill="#109353"/>
<path opacity="0.2" d="M283.287 245.872L213.478 295.26L211.751 308.186L242.277 351.535L295.657 313.693L292.93 303.385C291.9 299.49 284.983 297.769 276.223 298.758L283.287 245.872Z" fill="#109353"/>
<path d="M221.389 210.248L202.061 354.983L264.167 363.244L283.495 218.508L221.389 210.248Z" fill="#2DE68C"/>
<path d="M262.976 226.395L239.151 223.226C238.381 228.989 233.077 233.037 227.303 232.271L213.545 335.27C219.319 336.038 223.378 341.334 222.608 347.097L246.433 350.265C247.203 344.502 252.507 340.454 258.281 341.222L272.039 238.223C266.265 237.453 262.206 232.157 262.976 226.395Z" fill="#4EAD60"/>
<path d="M261.088 290.852C263.012 281.394 256.888 272.17 247.411 270.25C237.933 268.331 228.691 274.442 226.767 283.9C224.844 293.359 230.967 302.583 240.445 304.503C249.922 306.422 259.165 300.311 261.088 290.852Z" fill="#2DE68C"/>
<path d="M265.069 303.768L205.393 319.487L221.382 379.948L281.059 364.229L269.806 321.68C281.728 318.494 290.316 311.963 289.013 307.041C287.712 302.123 277.013 300.671 265.069 303.768Z" fill="#2DE68C"/>
<path d="M221.846 324.732L233.097 367.273L300.179 349.603L288.928 307.063L221.846 324.732Z" fill="#4EAD60"/>
<path d="M265.657 351.275C272.906 346.587 274.975 336.922 270.277 329.687C265.579 322.453 255.895 320.388 248.645 325.076C241.396 329.764 239.328 339.43 244.025 346.664C248.723 353.899 258.407 355.964 265.657 351.275Z" fill="#2DE68C"/>
<path opacity="0.2" d="M265.07 303.768L258.956 305.378L274.945 365.839L302.635 358.547L289.013 307.041C287.712 302.123 277.014 300.671 265.07 303.768Z" fill="#109353"/>
<path d="M289.013 307.044C290.314 311.963 281.728 318.496 269.807 321.682L285.798 382.146L285.8 382.144C297.722 378.957 306.305 372.426 305.005 367.505L289.013 307.044Z" fill="#2DE68C"/>
<path d="M291.898 317.955C292.474 320.13 291.003 322.564 288.306 324.455C289.105 327.813 287.244 331.166 284.089 331.997L284.073 332.001L292.157 362.57L292.173 362.566C295.071 361.802 298.072 363.428 299.288 366.262C302.024 364.365 303.521 361.911 302.943 359.718L291.898 317.955Z" fill="#4EAD60"/>
<path d="M218.028 402.873L130.233 402.928C116.386 402.937 105.152 391.741 105.143 377.922L105.007 163.504C104.998 149.684 116.217 138.473 130.064 138.464L217.859 138.408C231.706 138.399 242.94 149.595 242.949 163.415L243.085 377.833C243.094 391.654 231.875 402.864 218.028 402.873Z" fill="#313131"/>
<path d="M218.932 398.586L129.321 398.642C119.584 398.648 111.685 390.775 111.678 381.057L111.54 161.943C111.533 152.225 119.423 144.34 129.16 144.336L218.771 144.28C228.509 144.273 236.407 152.147 236.414 161.865L236.552 380.979C236.559 390.697 228.671 398.579 218.932 398.586Z" fill="#ADC7EA"/>
<path d="M104.195 208.571C102.035 208.571 100.283 206.823 100.283 204.668V184.422C100.283 182.266 102.035 180.518 104.195 180.518C106.354 180.518 108.106 182.266 108.106 184.422V204.665C108.106 206.823 106.354 208.571 104.195 208.571Z" fill="#313131"/>
<path d="M243.7 208.571C241.541 208.571 239.789 206.823 239.789 204.668V184.422C239.789 182.266 241.541 180.518 243.7 180.518C245.86 180.518 247.612 182.266 247.612 184.422V204.665C247.612 206.823 245.86 208.571 243.7 208.571Z" fill="#313131"/>
<path d="M455.622 402.873L367.825 402.928C353.978 402.937 342.744 391.741 342.735 377.922L342.599 163.504C342.59 149.684 353.808 138.473 367.656 138.464L455.453 138.408C469.3 138.399 480.534 149.595 480.543 163.415L480.679 377.833C480.69 391.654 469.472 402.864 455.622 402.873Z" fill="#313131"/>
<path d="M456.528 398.586L366.917 398.642C357.179 398.648 349.281 390.775 349.274 381.057L349.136 161.943C349.129 152.225 357.019 144.34 366.756 144.336L456.367 144.28C466.104 144.273 474.003 152.147 474.01 161.865L474.148 380.979C474.155 390.697 466.265 398.579 456.528 398.586Z" fill="#ADC7EA"/>
<path d="M341.788 208.571C339.628 208.571 337.877 206.823 337.877 204.668V184.422C337.877 182.266 339.628 180.518 341.788 180.518C343.948 180.518 345.7 182.266 345.7 184.422V204.665C345.702 206.823 343.95 208.571 341.788 208.571Z" fill="#313131"/>
<path d="M481.297 208.571C479.137 208.571 477.386 206.823 477.386 204.668V184.422C477.386 182.266 479.137 180.518 481.297 180.518C483.457 180.518 485.208 182.266 485.208 184.422V204.665C485.208 206.823 483.457 208.571 481.297 208.571Z" fill="#313131"/>
<path d="M341.788 238.515C339.628 238.515 337.877 236.767 337.877 234.611V214.368C337.877 212.212 339.628 210.464 341.788 210.464C343.948 210.464 345.7 212.212 345.7 214.368V234.611C345.702 236.767 343.95 238.515 341.788 238.515Z" fill="#313131"/>
<path d="M63.8466 389.245C60.8969 401.608 50.352 394.807 52.5565 402.621C52.7194 403.198 53.2682 403.583 53.8662 403.605L60.0579 403.841C60.6559 403.864 61.2449 403.694 61.738 403.356C65.0046 401.125 67.2202 397.981 74.2754 397.597C74.2219 394.591 74.358 390.3 73.3628 388.766L63.8466 389.245Z" fill="#1C794C"/>
<path d="M80.1639 302.494C80.1639 302.494 62.1578 329.904 59.6722 338.428C57.1866 346.954 62.3854 361.399 61.446 390.514C67.0732 391.973 74.5769 390.719 74.5769 390.719C74.5769 390.719 79.0929 354.2 73.7804 345.578C81.7392 333.458 101.733 306.995 101.733 306.995L80.1639 302.494Z" fill="#313131"/>
<path d="M90.1512 393.231C85.5704 399.455 74.1331 395.774 74.5905 404.129C91.925 403.852 99.1297 403.89 99.1297 403.89C99.0873 401.971 98.7013 397.417 98.2841 395.638L90.1512 393.231Z" fill="#1C794C"/>
<path d="M84.7783 296.952C84.7783 296.952 79.0373 341.668 80.3627 350.448C81.6881 359.228 85.7958 366.1 85.9386 395.228C91.6171 396.477 100.294 397.597 100.294 397.597C100.294 397.597 103.954 362.466 96.4277 352.793C98.5607 338.457 108.726 302.401 108.726 302.401L84.7783 296.952Z" fill="#313131"/>
<path d="M55.3638 277.267L48.3644 269.433C48.2126 269.264 47.9962 269.166 47.7686 269.162L42.0053 269.128C41.8402 269.126 41.3337 270.035 41.443 270.157L46.3808 274.535C46.4031 274.56 46.4321 274.58 46.4656 274.588L54.9331 277.724C55.1116 277.779 55.491 277.408 55.3638 277.267Z" fill="#C4204A"/>
<path d="M54.8278 277.793L48.1586 270.407C48.0069 270.237 47.7905 270.139 47.5629 270.135L41.6211 270.028C41.456 270.026 41.369 270.22 41.4783 270.34L46.1728 275.506C46.1951 275.53 46.2241 275.55 46.2576 275.559L54.6337 278.093C54.8167 278.151 54.955 277.933 54.8278 277.793Z" fill="#E62552"/>
<path d="M68.0064 284.529L63.1824 282.168C63.1824 282.168 58.4254 277.363 57.7181 276.29C56.6605 275.755 54.6568 274.41 54.2083 274.359C53.7576 274.308 52.8361 274.446 52.8361 274.446L55.0696 276.98C55.0696 276.98 54.0098 277.189 52.6554 276.332C51.3033 275.475 48.9114 273.174 47.7422 273.62C47.3272 273.985 47.3272 273.985 47.3272 273.985C47.3272 273.985 46.5886 273.197 45.8903 273.491C45.1941 273.785 46.5797 277.252 50.5112 280.928C50.7722 281.91 52.0686 283.629 52.0686 283.629L60.0207 286.417L68.0064 284.529Z" fill="#F37A50"/>
<path d="M47.0727 271.522C47.356 271.805 47.7621 271.856 47.9808 271.638C48.1994 271.42 48.1481 271.014 47.8647 270.734C47.5814 270.451 47.1753 270.4 46.9589 270.618C46.7402 270.834 46.7915 271.239 47.0727 271.522Z" fill="#C4204A"/>
<path d="M90.4637 249.134C89.0334 250.985 100.241 252.998 101.745 249.152C103.246 245.304 100.667 234.725 100.667 234.725L90.4481 236.889C90.4458 236.889 92.3268 246.727 90.4637 249.134Z" fill="#F37A50"/>
<path d="M92.8029 242.113C99.2429 241.438 103.766 234.258 102.905 226.076C102.045 217.894 96.1261 211.808 89.6861 212.482C83.2461 213.157 78.7231 220.337 79.5838 228.519C80.4444 236.701 86.3628 242.787 92.8029 242.113Z" fill="#F37A50"/>
<path d="M83.3858 230.939C83.1582 231.572 82.4598 231.901 81.8239 231.674C81.1902 231.447 80.86 230.75 81.0876 230.115C81.3152 229.483 82.0136 229.153 82.6495 229.381C83.2831 229.608 83.6134 230.307 83.3858 230.939Z" fill="black"/>
<path d="M91.3894 229.196C91.144 229.882 90.3854 230.238 89.7004 229.991C89.0131 229.746 88.6561 228.989 88.9038 228.305C89.1515 227.619 89.9079 227.263 90.5929 227.51C91.2779 227.755 91.6349 228.51 91.3894 229.196Z" fill="black"/>
<path d="M85.7147 230.685C85.4559 232.603 85.0967 234.963 85.0967 234.963C85.0967 234.963 86.3596 236.292 88.4547 235.373C87.4082 235.406 86.2658 235.208 86.094 233.872C85.92 232.538 85.7147 230.685 85.7147 230.685Z" fill="#DE623C"/>
<path d="M83.0262 228.158C82.8901 228.24 82.7138 228.249 82.5621 228.169C82.5464 228.163 82.0377 227.902 81.5625 228.085C81.2278 228.212 80.9578 228.541 80.7637 229.062C80.6744 229.305 80.4044 229.427 80.1612 229.338C79.918 229.249 79.7953 228.98 79.8846 228.737C80.1791 227.947 80.6343 227.432 81.2389 227.205C82.1247 226.875 82.9704 227.327 83.0061 227.348C83.2337 227.47 83.3162 227.755 83.1913 227.982C83.1533 228.058 83.0953 228.116 83.0262 228.158Z" fill="#020205"/>
<path d="M89.1151 226.826C89.2713 226.858 89.4409 226.811 89.5569 226.684C89.5681 226.673 89.963 226.261 90.474 226.274C90.8332 226.285 91.1969 226.508 91.5517 226.936C91.7168 227.134 92.0113 227.163 92.2099 226.998C92.4085 226.833 92.4375 226.539 92.2724 226.341C91.7346 225.691 91.1344 225.355 90.4874 225.341C89.5413 225.321 88.892 226.025 88.8652 226.056C88.6912 226.248 88.7068 226.544 88.8987 226.715C88.9612 226.773 89.0371 226.811 89.1151 226.826Z" fill="#020205"/>
<path d="M100.506 231.284C96.2645 227.739 97.4359 222.324 97.4359 222.324C95.3787 222.458 94.803 223.337 94.803 223.337C93.1497 221.442 93.5513 219.656 93.5513 219.656C89.0933 219.171 87.788 222.319 84.3831 224.177C79.722 226.72 73.0305 226.39 70.8127 220.473C70.4914 219.616 71.308 218.788 72.176 219.08C72.9814 219.351 73.9855 219.476 75.1056 219.142C75.1056 219.142 73.7445 218.247 73.2514 216.635C72.9792 215.746 73.9029 214.978 74.7486 215.365C76.0182 215.946 78.1602 216.245 81.4155 214.682C83.5821 213.642 87.8214 208.591 91.2665 208.427C94.0846 208.293 96.8044 209.985 98.585 212.976C98.585 212.976 105.305 211.894 107.9 218.899C110.448 225.78 100.897 236.413 100.897 236.413C100.897 236.413 101.628 232.376 100.506 231.284Z" fill="#020205"/>
<path d="M86.2349 238.504C85.9694 238.332 86.0363 237.929 86.342 237.853C87.123 237.662 88.4059 237.321 89.5862 236.88C90.7666 236.439 91.9581 235.854 92.6721 235.486C92.9532 235.342 93.2678 235.602 93.1808 235.905C92.913 236.838 92.208 238.366 90.3984 239.043C88.5889 239.719 87.0516 239.031 86.2349 238.504Z" fill="white"/>
<path d="M97.4876 226.466C96.1064 227.824 95.8922 229.839 97.0056 230.966C98.119 232.093 100.143 231.906 101.522 230.547C102.903 229.189 103.117 227.174 102.004 226.047C100.888 224.918 98.8665 225.105 97.4876 226.466Z" fill="#F37A50"/>
<path d="M98.8285 230.387C98.7682 230.365 98.7125 230.331 98.6656 230.28C97.9895 229.574 97.8333 228.71 98.2439 227.969C98.6656 227.209 99.5626 226.78 100.377 226.947C100.607 226.993 100.754 227.216 100.707 227.445C100.66 227.675 100.437 227.822 100.207 227.775C99.7611 227.684 99.2256 227.949 98.9869 228.379C98.7593 228.79 98.8619 229.258 99.2814 229.697C99.4421 229.866 99.4376 230.133 99.268 230.296C99.1431 230.409 98.9735 230.438 98.8285 230.387Z" fill="#DE623C"/>
<path d="M78.0068 305.777C86.0014 307.404 100.375 310.215 107.977 307.257C110.853 303.136 111.583 279.828 111.583 279.828C112.415 255.837 109.532 252.276 103.03 244.24C100.301 245.491 93.4738 246.558 90.4706 246.58C90.4706 246.58 83.6675 256.006 82.3399 262.851C80.9945 269.792 80.8428 282.131 80.7178 289.198C80.5795 297.048 79.0243 300.831 78.0068 305.777Z" fill="#2DE68C"/>
<path d="M103.976 251.521C108.653 260.607 107.593 270.667 93.9957 290.474C84.4727 289.646 82.6074 281.725 82.6074 281.725C82.6074 281.725 85.2247 271.892 88.6229 259.522C92.021 247.15 101.93 247.544 103.976 251.521Z" fill="#1C794C"/>
<path d="M62.4055 279.828L82.7924 281.451C82.7924 281.451 91.5366 279.859 93.9954 290.474C89.62 293.875 78.3232 295.15 59.7949 288.285C61.7562 285.62 62.4055 279.828 62.4055 279.828Z" fill="#1C794C"/>
<path d="M90.5308 245.905L90.3389 251.379L104.132 245.607L102.461 241.18L90.5308 245.905Z" fill="white"/>
<path d="M193.482 113.308C188.974 123.582 176.975 128.263 166.68 123.765C156.385 119.267 151.695 107.291 156.202 97.0168C160.709 86.7425 172.709 82.0618 183.004 86.5599C193.299 91.0602 197.989 103.036 193.482 113.308Z" fill="#FABA23"/>
<path d="M190.153 111.854C186.136 121.264 174.139 124.778 165.642 119.093C160.241 115.579 157.304 109.035 158.317 102.622C159.897 91.8062 171.778 85.471 181.545 89.8822C189.858 93.4339 193.912 103.443 190.153 111.854Z" fill="#FAD332"/>
<path d="M173.697 119.189L173.688 115.735C171.7 115.706 169.643 115.096 168.442 114.245L169.259 111.952C170.495 112.769 172.278 113.413 174.197 113.408C176.629 113.401 178.269 111.994 178.264 110.046C178.26 108.166 176.919 107.006 174.382 105.988C170.883 104.63 168.721 103.065 168.712 100.09C168.703 97.2528 170.72 95.0929 173.869 94.5696L173.86 91.1159L175.984 91.1092L175.993 94.4248C178.048 94.4872 179.456 95.0305 180.449 95.6095L179.599 97.8674C178.878 97.4599 177.472 96.7117 175.279 96.7162C172.642 96.7229 171.651 98.2994 171.655 99.6667C171.66 101.444 172.929 102.33 175.915 103.552C179.447 104.978 181.234 106.752 181.243 109.794C181.25 112.495 179.373 115.031 175.846 115.621L175.855 119.178L173.697 119.189Z" fill="#FABA23"/>
<path d="M229.982 54.3963C225.475 64.6707 213.476 69.3513 203.181 64.8533C192.886 60.3552 188.196 48.3796 192.703 38.1053C197.21 27.831 209.21 23.1503 219.505 27.6484C229.8 32.1465 234.492 44.122 229.982 54.3963Z" fill="#FABA23"/>
<path d="M226.656 52.94C222.639 62.3504 210.642 65.8642 202.145 60.1793C196.744 56.6654 193.807 50.121 194.82 43.7079C196.4 32.8924 208.281 26.5573 218.047 30.9685C226.361 34.5202 230.415 44.5295 226.656 52.94Z" fill="#FAD332"/>
<path d="M210.198 60.275L210.189 56.8213C208.201 56.7924 206.144 56.1822 204.943 55.3316L205.76 53.038C206.996 53.8552 208.779 54.4988 210.698 54.4943C213.13 54.4876 214.77 53.0803 214.765 51.1319C214.761 49.2503 213.42 48.0924 210.883 47.0747C207.384 45.7164 205.222 44.151 205.213 41.176C205.204 38.3391 207.221 36.1791 210.37 35.6581L210.361 32.2044L212.485 32.1977L212.494 35.5133C214.549 35.5757 215.955 36.119 216.95 36.698L216.1 38.9559C215.379 38.5484 213.973 37.8002 211.78 37.8047C209.143 37.8114 208.152 39.3879 208.156 40.7552C208.161 42.5321 209.43 43.4184 212.416 44.6409C215.948 46.066 217.735 47.8407 217.744 50.8825C217.751 53.5836 215.874 56.1199 212.347 56.71L212.356 60.2661L210.198 60.275Z" fill="#FABA23"/>
<path d="M369.82 66.3069C380.924 64.5741 388.518 54.1861 386.781 43.1049C385.045 32.0236 374.636 24.4452 363.532 26.178C352.429 27.9109 344.835 38.2988 346.572 49.3801C348.308 60.4614 358.717 68.0398 369.82 66.3069Z" fill="#FABA23"/>
<path d="M381.985 52.9401C377.968 62.3504 365.971 65.8643 357.474 60.1793C352.073 56.6655 349.136 50.121 350.149 43.7079C351.729 32.8925 363.61 26.5573 373.377 30.9685C381.69 34.5202 385.744 44.5296 381.985 52.9401Z" fill="#FAD332"/>
<path d="M365.529 60.2751L365.52 56.8213C363.532 56.7924 361.475 56.1823 360.274 55.3316L361.091 53.0381C362.327 53.8553 364.11 54.4988 366.029 54.4944C368.461 54.4877 370.101 53.0804 370.096 51.1319C370.092 49.2503 368.751 48.0924 366.214 47.0748C362.715 45.7164 360.553 44.151 360.544 41.176C360.535 38.3391 362.553 36.1792 365.703 35.6581L365.694 32.2044L367.818 32.1977L367.827 35.5134C369.882 35.5757 371.29 36.119 372.283 36.698L371.433 38.956C370.712 38.5485 369.306 37.8003 367.113 37.8047C364.476 37.8114 363.487 39.3879 363.49 40.7552C363.494 42.5321 364.764 43.4184 367.749 44.6409C371.281 46.066 373.068 47.8408 373.077 50.8825C373.084 53.5836 371.208 56.1199 367.68 56.71L367.689 60.2661L365.529 60.2751Z" fill="#FABA23"/>
<path d="M426.78 113.308C422.273 123.582 410.274 128.263 399.979 123.765C389.684 119.267 384.994 107.291 389.501 97.0168C394.008 86.7425 406.007 82.0618 416.302 86.5599C426.597 91.0602 431.29 103.036 426.78 113.308Z" fill="#FABA23"/>
<path d="M423.453 111.854C419.437 121.264 407.44 124.778 398.943 119.093C393.541 115.579 390.605 109.035 391.618 102.622C393.198 91.8062 405.079 85.471 414.845 89.8822C423.159 93.4339 427.213 103.443 423.453 111.854Z" fill="#FAD332"/>
<path d="M406.998 119.189L406.989 115.735C405.001 115.706 402.944 115.096 401.743 114.245L402.56 111.952C403.796 112.769 405.579 113.413 407.498 113.408C409.93 113.401 411.57 111.994 411.565 110.046C411.561 108.166 410.22 107.006 407.683 105.988C404.184 104.63 402.022 103.065 402.013 100.09C402.004 97.2528 404.021 95.0929 407.172 94.5696L407.163 91.1159L409.287 91.1092L409.296 94.4248C411.351 94.4872 412.759 95.0305 413.752 95.6095L412.902 97.8674C412.181 97.4599 410.775 96.7117 408.582 96.7162C405.945 96.7229 404.956 98.2994 404.958 99.6667C404.963 101.444 406.232 102.33 409.218 103.552C412.75 104.978 414.537 106.752 414.546 109.794C414.555 112.495 412.676 115.031 409.149 115.621L409.158 119.178L406.998 119.189Z" fill="#FABA23"/>
<path d="M313.659 29.3719C309.152 39.6463 297.152 44.3269 286.858 39.8288C276.563 35.3308 271.872 23.3552 276.38 13.0809C280.887 2.80657 292.886 -1.8741 303.181 2.62398C313.476 7.12205 318.169 19.0976 313.659 29.3719Z" fill="#FABA23"/>
<path d="M310.33 27.9178C306.314 37.3282 294.317 40.842 285.82 35.1571C280.418 31.6432 277.482 25.0988 278.495 18.6857C280.075 7.87024 291.956 1.53508 301.722 5.94631C310.038 9.49801 314.092 19.5073 310.33 27.9178Z" fill="#FAD332"/>
<path d="M293.875 35.2529L293.866 31.7991C291.878 31.7702 289.821 31.16 288.62 30.3094L289.437 28.0158C290.673 28.8331 292.456 29.4766 294.374 29.4722C296.807 29.4655 298.447 28.0582 298.442 26.1097C298.438 24.2303 297.097 23.0702 294.56 22.0526C291.061 20.6942 288.899 19.1288 288.89 16.1538C288.881 13.3169 290.898 11.157 294.046 10.6359L294.038 7.18219L296.162 7.17551L296.171 10.4912C298.226 10.5535 299.634 11.0968 300.626 11.6758L299.776 13.9338C299.056 13.5263 297.65 12.7781 295.457 12.7825C292.819 12.7892 291.829 14.3657 291.833 15.733C291.838 17.5099 293.107 18.3962 296.093 19.6187C299.625 21.0438 301.412 22.8186 301.421 25.8603C301.43 28.5614 299.551 31.0977 296.023 31.6878L296.032 35.2439L293.875 35.2529Z" fill="#FABA23"/>
<path d="M375.717 136.918C374.731 136.918 373.932 136.121 373.932 135.137C373.932 133.685 373.894 132.22 373.821 130.775C373.769 129.793 374.528 128.955 375.512 128.904C376.496 128.857 377.335 129.61 377.386 130.592C377.462 132.095 377.502 133.625 377.502 135.135C377.502 136.121 376.704 136.918 375.717 136.918Z" fill="#8EB8EF"/>
<path d="M374.675 123.5C373.812 123.5 373.051 122.872 372.915 121.995C372.46 119.098 371.846 116.194 371.09 113.361C370.835 112.411 371.402 111.435 372.355 111.181C373.308 110.927 374.285 111.493 374.539 112.444C375.327 115.394 375.967 118.423 376.44 121.442C376.592 122.415 375.927 123.326 374.952 123.478C374.858 123.493 374.767 123.5 374.675 123.5ZM204.3 123.426C204.208 123.426 204.115 123.42 204.021 123.404C203.046 123.25 202.381 122.34 202.535 121.367C203.012 118.345 203.655 115.319 204.445 112.368C204.699 111.417 205.679 110.854 206.631 111.108C207.584 111.362 208.149 112.339 207.894 113.29C207.136 116.118 206.52 119.022 206.062 121.921C205.922 122.798 205.163 123.426 204.3 123.426ZM370.028 106.109C369.309 106.109 368.633 105.675 368.361 104.964C367.31 102.228 366.098 99.5153 364.764 96.9011C364.316 96.0237 364.666 94.9526 365.543 94.5051C366.422 94.0575 367.495 94.4071 367.944 95.2822C369.336 98.0078 370.597 100.836 371.694 103.688C372.047 104.606 371.587 105.637 370.668 105.989C370.456 106.071 370.24 106.109 370.028 106.109ZM208.961 106.042C208.749 106.042 208.532 106.004 208.32 105.924C207.401 105.57 206.942 104.541 207.294 103.621C208.392 100.773 209.655 97.9477 211.047 95.2265C211.496 94.3492 212.571 94.0018 213.448 94.4516C214.325 94.8992 214.675 95.9725 214.224 96.8476C212.888 99.4596 211.676 102.167 210.623 104.9C210.353 105.608 209.677 106.042 208.961 106.042ZM361.837 90.0716C361.252 90.0716 360.681 89.7865 360.34 89.261C358.74 86.8049 356.991 84.4022 355.139 82.122C354.518 81.3582 354.637 80.2359 355.402 79.6169C356.167 78.9978 357.292 79.1159 357.912 79.8796C359.842 82.2556 361.665 84.7585 363.332 87.3193C363.869 88.1432 363.635 89.2477 362.807 89.7843C362.508 89.978 362.169 90.0716 361.837 90.0716ZM217.158 90.0226C216.824 90.0226 216.487 89.9291 216.186 89.7331C215.36 89.1964 215.126 88.092 215.663 87.2681C217.332 84.7095 219.158 82.2088 221.088 79.8351C221.708 79.0713 222.832 78.9533 223.598 79.5746C224.363 80.1936 224.481 81.3159 223.859 82.0797C222.007 84.3577 220.255 86.7581 218.656 89.212C218.314 89.7376 217.741 90.0226 217.158 90.0226ZM350.482 76.0852C350.025 76.0852 349.567 75.9115 349.219 75.5619C347.142 73.4888 344.933 71.5003 342.653 69.6521C341.887 69.033 341.769 67.9107 342.392 67.147C343.012 66.3832 344.136 66.2652 344.902 66.8864C347.278 68.8104 349.581 70.8835 351.745 73.0435C352.441 73.7404 352.441 74.8672 351.745 75.5619C351.397 75.9115 350.939 76.0852 350.482 76.0852ZM228.518 76.0451C228.06 76.0451 227.603 75.8715 227.255 75.5241C226.559 74.8293 226.559 73.7004 227.255 73.0056C229.421 70.8456 231.724 68.7747 234.102 66.8508C234.868 66.2318 235.992 66.3498 236.613 67.1136C237.233 67.8773 237.115 68.9996 236.349 69.6187C234.067 71.4647 231.856 73.451 229.778 75.5241C229.43 75.8715 228.975 76.0451 228.518 76.0451ZM336.479 64.7465C336.144 64.7465 335.807 64.653 335.506 64.457C333.043 62.856 330.47 61.3707 327.857 60.0369C326.98 59.5893 326.632 58.516 327.081 57.6409C327.529 56.7658 328.605 56.4162 329.482 56.866C332.206 58.2555 334.888 59.8053 337.454 61.4732C338.279 62.0098 338.514 63.1143 337.976 63.9382C337.634 64.4615 337.063 64.7465 336.479 64.7465ZM242.532 64.7153C241.948 64.7153 241.376 64.4303 241.035 63.9048C240.497 63.0809 240.732 61.9764 241.559 61.4398C244.127 59.7719 246.814 58.2243 249.54 56.8348C250.42 56.3872 251.493 56.7346 251.941 57.6119C252.39 58.4871 252.039 59.5604 251.163 60.0079C248.548 61.3395 245.97 62.8248 243.507 64.4259C243.204 64.6218 242.867 64.7153 242.532 64.7153ZM320.429 56.5631C320.215 56.5631 320.001 56.5253 319.789 56.4429C317.047 55.3896 314.218 54.4722 311.382 53.7151C310.429 53.4612 309.864 52.4837 310.119 51.5329C310.373 50.582 311.353 50.0186 312.305 50.2725C315.262 51.063 318.212 52.0205 321.07 53.1183C321.989 53.4724 322.449 54.5011 322.094 55.4208C321.824 56.1289 321.146 56.5631 320.429 56.5631ZM258.599 56.5364C257.881 56.5364 257.205 56.1022 256.933 55.3918C256.58 54.4744 257.04 53.4434 257.959 53.0916C260.819 51.996 263.769 51.0407 266.73 50.2525C267.683 49.9986 268.66 50.5642 268.914 51.515C269.169 52.4659 268.602 53.4412 267.649 53.695C264.811 54.4499 261.98 55.3673 259.237 56.4184C259.028 56.4985 258.811 56.5364 258.599 56.5364ZM303.015 51.9069C302.921 51.9069 302.829 51.9003 302.736 51.8847C299.842 51.4304 296.881 51.1209 293.942 50.9695C292.958 50.9183 292.202 50.081 292.253 49.099C292.305 48.117 293.146 47.3621 294.127 47.4133C297.191 47.5714 300.275 47.8943 303.291 48.3686C304.264 48.5223 304.929 49.433 304.777 50.4061C304.637 51.2812 303.878 51.9069 303.015 51.9069ZM276.023 51.8958C275.16 51.8958 274.401 51.2679 274.263 50.3905C274.111 49.4174 274.776 48.5067 275.749 48.3552C278.765 47.8832 281.849 47.5647 284.915 47.4089C285.899 47.3599 286.738 48.1148 286.789 49.0968C286.84 50.0788 286.082 50.916 285.098 50.9673C282.157 51.1164 279.198 51.4237 276.302 51.8758C276.208 51.8891 276.115 51.8958 276.023 51.8958Z" fill="#8EB8EF"/>
<path d="M203.244 136.918C202.258 136.918 201.459 136.121 201.459 135.137C201.459 133.627 201.497 132.097 201.575 130.594C201.624 129.612 202.461 128.855 203.449 128.906C204.433 128.958 205.192 129.793 205.141 130.777C205.067 132.22 205.029 133.687 205.029 135.139C205.029 136.121 204.23 136.918 203.244 136.918Z" fill="#8EB8EF"/>
<path d="M227.406 136.918C226.42 136.918 225.621 136.121 225.621 135.137C225.621 133.614 225.675 132.075 225.784 130.561C225.853 129.579 226.708 128.842 227.692 128.911C228.676 128.98 229.416 129.833 229.345 130.815C229.242 132.244 229.191 133.698 229.191 135.139C229.191 136.121 228.392 136.918 227.406 136.918Z" fill="#8EB8EF"/>
<path d="M228.818 123.72C228.693 123.72 228.566 123.707 228.439 123.68C227.475 123.471 226.864 122.522 227.073 121.563C227.716 118.605 228.58 115.668 229.642 112.836C229.987 111.914 231.016 111.446 231.938 111.791C232.861 112.137 233.33 113.163 232.984 114.083C231.982 116.757 231.168 119.527 230.561 122.317C230.38 123.15 229.642 123.72 228.818 123.72ZM350.131 123.674C349.31 123.674 348.571 123.103 348.388 122.271C347.779 119.483 346.963 116.715 345.961 114.043C345.615 113.121 346.084 112.094 347.007 111.749C347.929 111.404 348.96 111.872 349.306 112.794C350.368 115.626 351.233 118.559 351.878 121.514C352.088 122.476 351.476 123.424 350.515 123.633C350.385 123.66 350.258 123.674 350.131 123.674ZM234.997 107.204C234.707 107.204 234.412 107.133 234.14 106.986C233.274 106.514 232.957 105.432 233.432 104.568C234.887 101.918 236.547 99.3483 238.366 96.9256C238.957 96.1395 240.077 95.9792 240.865 96.5693C241.652 97.1594 241.813 98.2772 241.222 99.0633C239.504 101.35 237.935 103.777 236.563 106.278C236.239 106.868 235.628 107.204 234.997 107.204ZM343.948 107.173C343.317 107.173 342.705 106.839 342.382 106.247C341.007 103.748 339.441 101.321 337.723 99.0388C337.132 98.2527 337.29 97.1349 338.078 96.5448C338.866 95.9547 339.986 96.1128 340.577 96.8988C342.398 99.3171 344.058 101.887 345.512 104.534C345.985 105.396 345.671 106.481 344.805 106.953C344.531 107.102 344.238 107.173 343.948 107.173ZM245.597 93.1022C245.14 93.1022 244.682 92.9285 244.334 92.5811C243.638 91.8842 243.638 90.7574 244.334 90.0627C246.476 87.925 248.792 85.9231 251.216 84.1105C252.005 83.5204 253.123 83.6807 253.714 84.4668C254.306 85.2551 254.145 86.3707 253.358 86.9608C251.07 88.6709 248.884 90.5637 246.86 92.5811C246.512 92.9285 246.055 93.1022 245.597 93.1022ZM333.343 93.0822C332.886 93.0822 332.431 92.9085 332.083 92.5611C330.057 90.5436 327.87 88.6531 325.581 86.943C324.791 86.3529 324.63 85.2373 325.221 84.449C325.813 83.6607 326.931 83.5026 327.72 84.0905C330.144 85.9008 332.46 87.9027 334.604 90.0404C335.302 90.7351 335.302 91.8641 334.606 92.5589C334.258 92.9085 333.801 93.0822 333.343 93.0822ZM259.73 82.5339C259.099 82.5339 258.487 82.1999 258.161 81.6076C257.688 80.7436 258.005 79.6614 258.871 79.1893C261.531 77.7375 264.315 76.466 267.149 75.4105C268.073 75.0676 269.101 75.5352 269.445 76.4571C269.788 77.379 269.32 78.4055 268.396 78.7484C265.721 79.746 263.092 80.9463 260.582 82.3157C260.312 82.4627 260.02 82.5339 259.73 82.5339ZM319.202 82.5184C318.911 82.5184 318.619 82.4471 318.347 82.3001C315.835 80.9307 313.202 79.7304 310.524 78.7351C309.6 78.3922 309.13 77.3656 309.476 76.4437C309.819 75.5218 310.848 75.052 311.772 75.3971C314.61 76.4526 317.399 77.7241 320.061 79.176C320.926 79.6481 321.243 80.7303 320.77 81.5943C320.447 82.1821 319.833 82.5184 319.202 82.5184ZM276.268 76.3747C275.447 76.3747 274.706 75.8046 274.525 74.9696C274.316 74.0076 274.929 73.059 275.891 72.852C278.845 72.2129 281.877 71.7809 284.905 71.5671C285.887 71.4981 286.741 72.2374 286.811 73.2171C286.88 74.1969 286.139 75.0498 285.155 75.1188C282.297 75.3214 279.432 75.7289 276.645 76.3324C276.52 76.3613 276.393 76.3747 276.268 76.3747ZM302.648 76.3636C302.523 76.3636 302.396 76.3502 302.269 76.3235C299.48 75.7223 296.617 75.317 293.756 75.1166C292.772 75.0475 292.032 74.1969 292.101 73.2149C292.17 72.2329 293.02 71.4936 294.006 71.5626C297.034 71.7742 300.069 72.204 303.023 72.8408C303.987 73.0479 304.598 73.9965 304.391 74.9585C304.21 75.7935 303.471 76.3636 302.648 76.3636Z" fill="#8EB8EF"/>
<path d="M351.555 136.918C350.569 136.918 349.77 136.121 349.77 135.137C349.77 133.696 349.718 132.242 349.616 130.813C349.547 129.831 350.287 128.98 351.269 128.909C352.255 128.837 353.105 129.579 353.177 130.559C353.284 132.071 353.34 133.612 353.34 135.135C353.34 136.121 352.541 136.918 351.555 136.918Z" fill="#8EB8EF"/>
<path d="M375.403 137.96C375.396 137.96 375.389 137.96 375.381 137.96C375.037 137.954 374.713 137.789 374.508 137.513L363.115 122.222C362.747 121.73 362.85 121.033 363.345 120.665C363.838 120.298 364.537 120.4 364.905 120.895L375.439 135.032L385.928 122.037C386.314 121.558 387.016 121.482 387.494 121.868C387.974 122.253 388.05 122.954 387.664 123.431L376.271 137.546C376.061 137.809 375.74 137.96 375.403 137.96Z" fill="#8EB8EF"/>
<path d="M227.371 137.96C227.364 137.96 227.357 137.96 227.348 137.96C227.002 137.954 226.681 137.789 226.476 137.513L215.083 122.222C214.715 121.73 214.818 121.033 215.313 120.665C215.806 120.298 216.504 120.4 216.873 120.895L227.406 135.032L237.898 122.037C238.284 121.558 238.986 121.482 239.464 121.868C239.944 122.253 240.02 122.954 239.634 123.431L228.241 137.546C228.027 137.809 227.708 137.96 227.371 137.96Z" fill="#8EB8EF"/>
<path d="M453.891 377.88V382.391C453.891 384.153 452.459 385.582 450.694 385.582H395.522C393.754 385.582 392.324 384.153 392.324 382.391V377.88C392.324 377.094 392.608 376.377 393.078 375.82C393.665 375.127 394.542 374.689 395.522 374.689H450.694C451.673 374.689 452.55 375.127 453.137 375.82C453.608 376.374 453.891 377.094 453.891 377.88Z" fill="#FAD332"/>
<path d="M396.983 374.686H395.381V385.582H396.983V374.686Z" fill="#FABA23"/>
<path d="M403.704 374.686H402.102V385.582H403.704V374.686Z" fill="#FABA23"/>
<path d="M410.424 374.686H408.822V385.582H410.424V374.686Z" fill="#FABA23"/>
<path d="M417.145 374.686H415.543V385.582H417.145V374.686Z" fill="#FABA23"/>
<path d="M423.865 374.686H422.263V385.582H423.865V374.686Z" fill="#FABA23"/>
<path d="M430.583 374.686H428.981V385.582H430.583V374.686Z" fill="#FABA23"/>
<path d="M437.304 374.686H435.702V385.582H437.304V374.686Z" fill="#FABA23"/>
<path d="M444.025 374.686H442.423V385.582H444.025V374.686Z" fill="#FABA23"/>
<path d="M450.745 374.686H449.143V385.582H450.745V374.686Z" fill="#FABA23"/>
<path d="M453.137 375.818H393.078C393.665 375.125 394.542 374.686 395.521 374.686H450.693C451.673 374.686 452.548 375.127 453.137 375.818Z" fill="#FABA23"/>
<path d="M453.137 384.451H393.078C393.665 385.143 394.542 385.582 395.521 385.582H450.693C451.673 385.582 452.548 385.143 453.137 384.451Z" fill="#FABA23"/>
<path d="M457.751 366.984V371.495C457.751 373.257 456.319 374.686 454.554 374.686H399.382C397.615 374.686 396.185 373.257 396.185 371.495V366.984C396.185 366.198 396.468 365.481 396.939 364.924C397.526 364.232 398.402 363.793 399.382 363.793H454.554C455.533 363.793 456.41 364.232 456.997 364.924C457.468 365.479 457.751 366.198 457.751 366.984Z" fill="#FAD332"/>
<path d="M400.841 363.793H399.239V374.686H400.841V363.793Z" fill="#FABA23"/>
<path d="M407.562 363.793H405.96V374.686H407.562V363.793Z" fill="#FABA23"/>
<path d="M414.282 363.793H412.68V374.686H414.282V363.793Z" fill="#FABA23"/>
<path d="M421.002 363.793H419.4V374.686H421.002V363.793Z" fill="#FABA23"/>
<path d="M427.723 363.793H426.121V374.686H427.723V363.793Z" fill="#FABA23"/>
<path d="M434.444 363.793H432.842V374.686H434.444V363.793Z" fill="#FABA23"/>
<path d="M441.165 363.793H439.562V374.686H441.165V363.793Z" fill="#FABA23"/>
<path d="M447.885 363.793H446.283V374.686H447.885V363.793Z" fill="#FABA23"/>
<path d="M454.605 363.793H453.003V374.686H454.605V363.793Z" fill="#FABA23"/>
<path d="M456.995 364.924H396.937C397.523 364.232 398.4 363.793 399.38 363.793H454.552C455.531 363.791 456.408 364.232 456.995 364.924Z" fill="#FABA23"/>
<path d="M456.995 373.555H396.937C397.523 374.248 398.4 374.686 399.38 374.686H454.552C455.531 374.686 456.408 374.248 456.995 373.555Z" fill="#FABA23"/>
<path d="M454.759 356.109V360.62C454.759 362.384 453.327 363.811 451.562 363.811H396.39C394.625 363.811 393.192 362.381 393.192 360.62V356.109C393.192 355.323 393.476 354.606 393.947 354.049C394.533 353.356 395.41 352.918 396.39 352.918H451.562C452.541 352.918 453.418 353.356 454.005 354.049C454.476 354.603 454.759 355.323 454.759 356.109Z" fill="#FAD332"/>
<path d="M397.849 352.915H396.247V363.809H397.849V352.915Z" fill="#FABA23"/>
<path d="M404.57 352.915H402.968V363.809H404.57V352.915Z" fill="#FABA23"/>
<path d="M411.29 352.915H409.688V363.809H411.29V352.915Z" fill="#FABA23"/>
<path d="M418.01 352.915H416.408V363.809H418.01V352.915Z" fill="#FABA23"/>
<path d="M424.731 352.915H423.129V363.809H424.731V352.915Z" fill="#FABA23"/>
<path d="M431.452 352.915H429.85V363.809H431.452V352.915Z" fill="#FABA23"/>
<path d="M438.172 352.915H436.57V363.809H438.172V352.915Z" fill="#FABA23"/>
<path d="M444.893 352.915H443.291V363.809H444.893V352.915Z" fill="#FABA23"/>
<path d="M451.613 352.915H450.011V363.809H451.613V352.915Z" fill="#FABA23"/>
<path d="M454.003 354.046H393.944C394.531 353.354 395.408 352.915 396.388 352.915H451.56C452.539 352.915 453.416 353.356 454.003 354.046Z" fill="#FABA23"/>
<path d="M454.003 362.68H393.944C394.531 363.372 395.408 363.811 396.388 363.811H451.56C452.539 363.811 453.416 363.372 454.003 362.68Z" fill="#FABA23"/>
<path d="M455.991 345.429V349.94C455.991 351.704 454.558 353.131 452.793 353.131H397.621C395.856 353.131 394.424 351.702 394.424 349.94V345.429C394.424 344.643 394.707 343.926 395.178 343.369C395.765 342.677 396.642 342.238 397.621 342.238H452.793C453.773 342.238 454.65 342.677 455.236 343.369C455.707 343.926 455.991 344.645 455.991 345.429Z" fill="#FAD332"/>
<path d="M399.081 342.238H397.479V353.131H399.081V342.238Z" fill="#FABA23"/>
<path d="M405.801 342.238H404.199V353.131H405.801V342.238Z" fill="#FABA23"/>
<path d="M412.522 342.238H410.92V353.131H412.522V342.238Z" fill="#FABA23"/>
<path d="M419.242 342.238H417.64V353.131H419.242V342.238Z" fill="#FABA23"/>
<path d="M425.962 342.238H424.36V353.131H425.962V342.238Z" fill="#FABA23"/>
<path d="M432.683 342.238H431.081V353.131H432.683V342.238Z" fill="#FABA23"/>
<path d="M439.404 342.238H437.802V353.131H439.404V342.238Z" fill="#FABA23"/>
<path d="M446.124 342.238H444.521V353.131H446.124V342.238Z" fill="#FABA23"/>
<path d="M452.844 342.238H451.242V353.131H452.844V342.238Z" fill="#FABA23"/>
<path d="M455.234 343.369H395.176C395.763 342.677 396.639 342.238 397.619 342.238H452.791C453.77 342.238 454.647 342.677 455.234 343.369Z" fill="#FABA23"/>
<path d="M455.234 352H395.176C395.763 352.693 396.639 353.131 397.619 353.131H452.791C453.77 353.133 454.647 352.693 455.234 352Z" fill="#FABA23"/>
<path d="M449.112 334.371V338.882C449.112 340.646 447.679 342.073 445.914 342.073H390.742C388.975 342.073 387.545 340.643 387.545 338.882V334.371C387.545 333.585 387.828 332.868 388.299 332.311C388.886 331.618 389.763 331.18 390.742 331.18H445.914C446.894 331.18 447.771 331.618 448.357 332.311C448.828 332.868 449.112 333.585 449.112 334.371Z" fill="#FAD332"/>
<path d="M392.204 331.18H390.602V342.075H392.204V331.18Z" fill="#FABA23"/>
<path d="M398.924 331.18H397.322V342.075H398.924V331.18Z" fill="#FABA23"/>
<path d="M405.645 331.18H404.043V342.075H405.645V331.18Z" fill="#FABA23"/>
<path d="M412.366 331.18H410.764V342.075H412.366V331.18Z" fill="#FABA23"/>
<path d="M419.083 331.18H417.481V342.075H419.083V331.18Z" fill="#FABA23"/>
<path d="M425.804 331.18H424.202V342.075H425.804V331.18Z" fill="#FABA23"/>
<path d="M432.525 331.18H430.923V342.075H432.525V331.18Z" fill="#FABA23"/>
<path d="M439.246 331.18H437.644V342.075H439.246V331.18Z" fill="#FABA23"/>
<path d="M445.965 331.18H444.363V342.075H445.965V331.18Z" fill="#FABA23"/>
<path d="M448.357 332.311H388.299C388.886 331.618 389.763 331.18 390.742 331.18H445.914C446.894 331.18 447.768 331.618 448.357 332.311Z" fill="#FABA23"/>
<path d="M448.357 340.942H388.299C388.886 341.634 389.763 342.073 390.742 342.073H445.914C446.894 342.073 447.768 341.634 448.357 340.942Z" fill="#FABA23"/>
<path d="M455.879 323.605V328.116C455.879 329.877 454.447 331.307 452.682 331.307H397.51C395.745 331.307 394.312 329.877 394.312 328.116V323.605C394.312 322.818 394.596 322.101 395.067 321.545C395.653 320.852 396.53 320.414 397.51 320.414H452.682C453.661 320.414 454.538 320.852 455.125 321.545C455.596 322.099 455.879 322.818 455.879 323.605Z" fill="#FAD332"/>
<path d="M398.971 320.411H397.369V331.304H398.971V320.411Z" fill="#FABA23"/>
<path d="M405.692 320.411H404.09V331.304H405.692V320.411Z" fill="#FABA23"/>
<path d="M412.413 320.411H410.811V331.304H412.413V320.411Z" fill="#FABA23"/>
<path d="M419.133 320.411H417.531V331.304H419.133V320.411Z" fill="#FABA23"/>
<path d="M425.853 320.411H424.251V331.304H425.853V320.411Z" fill="#FABA23"/>
<path d="M432.574 320.411H430.972V331.304H432.574V320.411Z" fill="#FABA23"/>
<path d="M439.294 320.411H437.692V331.304H439.294V320.411Z" fill="#FABA23"/>
<path d="M446.012 320.411H444.41V331.304H446.012V320.411Z" fill="#FABA23"/>
<path d="M452.733 320.411H451.131V331.304H452.733V320.411Z" fill="#FABA23"/>
<path d="M455.125 321.542H395.066C395.653 320.85 396.53 320.411 397.51 320.411H452.682C453.661 320.411 454.538 320.85 455.125 321.542Z" fill="#FABA23"/>
<path d="M455.125 330.175H395.066C395.653 330.868 396.53 331.307 397.51 331.307H452.682C453.661 331.307 454.538 330.868 455.125 330.175Z" fill="#FABA23"/>
<path d="M453.48 312.675V317.187C453.48 318.95 452.048 320.378 450.283 320.378H395.109C393.344 320.378 391.911 318.948 391.911 317.187V312.675C391.911 311.889 392.195 311.172 392.665 310.615C393.252 309.923 394.129 309.484 395.109 309.484H450.28C451.26 309.484 452.137 309.923 452.724 310.615C453.197 311.172 453.48 311.889 453.48 312.675Z" fill="#FAD332"/>
<path d="M396.57 309.484H394.968V320.38H396.57V309.484Z" fill="#FABA23"/>
<path d="M403.29 309.484H401.688V320.38H403.29V309.484Z" fill="#FABA23"/>
<path d="M410.011 309.484H408.409V320.38H410.011V309.484Z" fill="#FABA23"/>
<path d="M416.732 309.484H415.13V320.38H416.732V309.484Z" fill="#FABA23"/>
<path d="M423.452 309.484H421.85V320.38H423.452V309.484Z" fill="#FABA23"/>
<path d="M430.172 309.484H428.57V320.38H430.172V309.484Z" fill="#FABA23"/>
<path d="M436.893 309.484H435.291V320.38H436.893V309.484Z" fill="#FABA23"/>
<path d="M443.614 309.484H442.012V320.38H443.614V309.484Z" fill="#FABA23"/>
<path d="M450.334 309.484H448.732V320.38H450.334V309.484Z" fill="#FABA23"/>
<path d="M452.723 310.615H392.665C393.252 309.923 394.129 309.484 395.108 309.484H450.28C451.26 309.484 452.137 309.923 452.723 310.615Z" fill="#FABA23"/>
<path d="M452.723 319.246H392.665C393.252 319.939 394.129 320.378 395.108 320.378H450.28C451.26 320.378 452.137 319.939 452.723 319.246Z" fill="#FABA23"/>
<path d="M456.776 301.84V306.351C456.776 308.113 455.343 309.542 453.578 309.542H398.406C396.639 309.542 395.209 308.113 395.209 306.351V301.84C395.209 301.054 395.492 300.337 395.963 299.78C396.55 299.087 397.427 298.649 398.406 298.649H453.578C454.558 298.649 455.435 299.087 456.022 299.78C456.492 300.337 456.776 301.056 456.776 301.84Z" fill="#FAD332"/>
<path d="M399.868 298.649H398.266V309.544H399.868V298.649Z" fill="#FABA23"/>
<path d="M406.588 298.649H404.986V309.544H406.588V298.649Z" fill="#FABA23"/>
<path d="M413.309 298.649H411.707V309.544H413.309V298.649Z" fill="#FABA23"/>
<path d="M420.03 298.649H418.428V309.544H420.03V298.649Z" fill="#FABA23"/>
<path d="M426.749 298.649H425.147V309.544H426.749V298.649Z" fill="#FABA23"/>
<path d="M433.47 298.649H431.868V309.544H433.47V298.649Z" fill="#FABA23"/>
<path d="M440.191 298.649H438.589V309.544H440.191V298.649Z" fill="#FABA23"/>
<path d="M446.91 298.649H445.308V309.544H446.91V298.649Z" fill="#FABA23"/>
<path d="M453.629 298.649H452.027V309.544H453.629V298.649Z" fill="#FABA23"/>
<path d="M456.021 299.78H395.963C396.55 299.087 397.427 298.649 398.406 298.649H453.578C454.558 298.649 455.434 299.087 456.021 299.78Z" fill="#FABA23"/>
<path d="M456.021 308.413H395.963C396.55 309.106 397.427 309.544 398.406 309.544H453.578C454.558 309.544 455.434 309.104 456.021 308.413Z" fill="#FABA23"/>
<path d="M403.848 384.424C421.118 378.74 430.501 360.16 424.805 342.924C419.11 325.689 400.493 316.325 383.222 322.009C365.952 327.693 356.569 346.273 362.265 363.508C367.96 380.744 386.577 390.108 403.848 384.424Z" fill="#FABA23"/>
<path d="M419.263 361.522C414.673 375.708 399.429 383.493 385.214 378.911C383.73 378.432 382.315 377.839 380.979 377.14C378.716 375.962 376.673 374.49 374.881 372.789C374.203 372.143 373.56 371.464 372.955 370.758C368.522 365.568 366.139 358.792 366.509 351.811C366.63 349.526 367.049 347.217 367.788 344.934C371.21 334.355 380.559 327.334 390.988 326.35C394.543 326.014 398.224 326.379 401.837 327.543C404.965 328.552 407.783 330.075 410.226 331.99C410.965 332.567 411.667 333.179 412.337 333.827C414.151 335.58 415.697 337.571 416.944 339.731C420.635 346.106 421.708 353.96 419.263 361.522Z" fill="#FAD332"/>
<path d="M410.223 331.986L372.952 370.756C368.519 365.565 366.136 358.789 366.506 351.809L390.983 326.345C394.537 326.009 398.219 326.374 401.831 327.539C404.964 328.548 407.782 330.071 410.223 331.986Z" fill="#FAEE6C"/>
<path d="M416.944 339.726L380.979 377.14C378.716 375.962 376.673 374.49 374.881 372.789L412.335 333.823C414.149 335.575 415.697 337.566 416.944 339.726Z" fill="#FAEE6C"/>
<path d="M395.339 327.57C392.143 327.236 391.559 327.55 390.124 330.378C390.481 327.227 390.167 326.646 387.311 325.174C390.506 325.508 391.09 325.194 392.525 322.366C392.19 325.555 392.505 326.138 395.339 327.57Z" fill="white"/>
<path d="M384.031 378.269C381.336 377.986 380.842 378.251 379.631 380.638C379.932 377.98 379.667 377.49 377.257 376.247C379.952 376.53 380.445 376.265 381.657 373.878C381.373 376.568 381.639 377.06 384.031 378.269Z" fill="white"/>
<path d="M414.866 244.135C394.939 244.135 378.729 227.955 378.729 208.07C378.729 188.183 394.941 172.005 414.866 172.005C434.793 172.005 451.003 188.185 451.003 208.07C451.003 227.958 434.791 244.135 414.866 244.135ZM414.866 173.787C395.922 173.787 380.514 189.167 380.514 208.07C380.514 226.976 395.925 242.354 414.866 242.354C433.807 242.354 449.218 226.973 449.218 208.07C449.218 189.167 433.807 173.787 414.866 173.787Z" fill="#E3EAFF"/>
<path d="M414.866 228.539C412.217 228.539 410.068 226.394 410.068 223.751V157.578C410.068 154.935 412.217 152.791 414.866 152.791C417.514 152.791 419.663 154.935 419.663 157.578V223.751C419.663 226.397 417.514 228.539 414.866 228.539Z" fill="#E3EAFF"/>
<path d="M414.866 244.135C394.939 244.135 378.729 227.955 378.729 208.07C378.729 188.183 394.941 172.005 414.866 172.005C434.793 172.005 451.003 188.185 451.003 208.07C451.003 227.958 434.791 244.135 414.866 244.135ZM414.866 173.787C395.922 173.787 380.514 189.167 380.514 208.07C380.514 226.976 395.925 242.354 414.866 242.354C433.807 242.354 449.218 226.973 449.218 208.07C449.218 189.167 433.807 173.787 414.866 173.787Z" fill="white"/>
<path d="M414.866 228.539C412.217 228.539 410.068 226.394 410.068 223.751V157.578C410.068 154.935 412.217 152.791 414.866 152.791C417.514 152.791 419.663 154.935 419.663 157.578V223.751C419.663 226.397 417.514 228.539 414.866 228.539Z" fill="white"/>
<path d="M415.194 232.469C415.131 232.469 415.069 232.467 415.006 232.464C413.538 232.407 412.179 231.683 411.314 230.498L391.393 205.024C389.833 202.886 390.306 199.891 392.446 198.335C394.588 196.778 397.589 197.25 399.149 199.388L415.493 219.959L430.808 199.096C432.528 197.086 435.556 196.85 437.571 198.566C439.586 200.283 439.822 203.305 438.102 205.316L418.84 230.79C417.929 231.859 416.595 232.469 415.194 232.469Z" fill="white"/>
<path d="M175.382 240.47C155.455 240.47 139.245 224.29 139.245 204.405C139.245 184.518 155.457 168.34 175.382 168.34C195.31 168.34 211.52 184.52 211.52 204.405C211.52 224.29 195.307 240.47 175.382 240.47ZM175.382 170.119C156.441 170.119 141.03 185.5 141.03 204.403C141.03 223.308 156.441 238.686 175.382 238.686C194.323 238.686 209.735 223.306 209.735 204.403C209.735 185.5 194.323 170.119 175.382 170.119Z" fill="#E3EAFF"/>
<path d="M193.872 222.858C204.085 212.665 204.085 196.14 193.872 185.947C183.659 175.755 167.1 175.755 156.887 185.947C146.674 196.14 146.674 212.665 156.887 222.858C167.1 233.05 183.659 233.05 193.872 222.858Z" fill="#E3EAFF"/>
<path d="M195.19 215.358C191.35 222.333 183.92 227.06 175.383 227.06C166.844 227.06 159.414 222.335 155.574 215.358C158.002 211.045 161.806 207.607 166.391 205.632C164.43 203.479 163.236 200.622 163.236 197.484C163.236 190.79 168.674 185.362 175.383 185.362C182.09 185.362 187.528 190.79 187.528 197.484C187.528 200.622 186.334 203.481 184.373 205.632C188.958 207.607 192.762 211.045 195.19 215.358Z" fill="#579AF2"/>
<path d="M452.563 266.245L437.401 258.108C436.973 258.901 436.547 259.696 436.118 260.489C435.498 261.64 438.41 264.403 442.62 266.664C446.831 268.924 450.746 269.823 451.367 268.672C451.423 268.565 452.563 266.245 452.563 266.245Z" fill="#FABA23"/>
<path d="M452.579 266.416C451.958 267.568 448.043 266.668 443.832 264.408C439.622 262.148 436.71 259.384 437.33 258.233C437.951 257.082 441.866 257.981 446.077 260.242C450.287 262.502 453.199 265.267 452.579 266.416Z" fill="#FAD332"/>
<path d="M385.186 296.825L369.842 299.312C369.971 300.116 370.103 300.918 370.234 301.722C370.424 302.886 374.032 303.269 378.294 302.579C382.555 301.889 385.855 300.386 385.666 299.221C385.648 299.114 385.186 296.825 385.186 296.825Z" fill="#FABA23"/>
<path d="M385.294 296.941C385.483 298.105 382.181 299.609 377.922 300.299C373.66 300.989 370.052 300.606 369.862 299.442C369.673 298.277 372.973 296.774 377.234 296.084C381.496 295.393 385.104 295.776 385.294 296.941Z" fill="#FAD332"/>
<path d="M403.52 269.959L389.573 263.103C389.214 263.833 388.852 264.561 388.493 265.292C387.971 266.349 390.686 268.75 394.56 270.654C398.433 272.558 401.996 273.244 402.519 272.186C402.565 272.09 403.52 269.959 403.52 269.959Z" fill="#FABA23"/>
<path d="M403.54 270.115C403.018 271.173 399.455 270.487 395.581 268.583C391.708 266.679 388.992 264.279 389.514 263.221C390.037 262.163 393.6 262.849 397.473 264.753C401.347 266.657 404.062 269.057 403.54 270.115Z" fill="#FAD332"/>
<path d="M382.732 244.1L366.669 246.703C366.805 247.544 366.943 248.384 367.08 249.223C367.278 250.441 371.053 250.844 375.514 250.121C379.974 249.397 383.43 247.825 383.231 246.605C383.214 246.496 382.732 244.1 382.732 244.1Z" fill="#FABA23"/>
<path d="M382.844 244.22C383.042 245.438 379.586 247.012 375.126 247.736C370.666 248.46 366.888 248.056 366.692 246.838C366.493 245.62 369.949 244.046 374.41 243.322C378.87 242.599 382.645 243.002 382.844 244.22Z" fill="#FAD332"/>
<path d="M223.24 297.943H125.833C121.505 297.943 117.997 294.442 117.997 290.123V269.561C117.997 265.241 121.505 261.74 125.833 261.74H223.24C227.569 261.74 231.077 265.241 231.077 269.561V290.123C231.077 294.44 227.569 297.943 223.24 297.943Z" fill="#E3EAFF"/>
<path d="M153.124 274.749V284.934C153.124 287.68 150.895 289.904 148.143 289.904H128.843C127.83 289.904 126.886 289.601 126.099 289.08C124.753 288.192 123.865 286.667 123.865 284.934V274.749C123.865 272.003 126.094 269.779 128.843 269.779H148.143C149.266 269.779 150.303 270.151 151.136 270.779C152.343 271.683 153.124 273.126 153.124 274.749Z" fill="#FABA23"/>
<path d="M192.463 283.985H160.437C158.144 283.985 156.285 282.131 156.285 279.841C156.285 277.552 158.144 275.697 160.437 275.697H192.463C194.756 275.697 196.615 277.552 196.615 279.841C196.615 282.128 194.756 283.985 192.463 283.985Z" fill="#579AF2"/>
<path d="M221.058 283.985H205.009C202.715 283.985 200.856 282.131 200.856 279.841C200.856 277.552 202.715 275.697 205.009 275.697H221.058C223.352 275.697 225.21 277.552 225.21 279.841C225.208 282.128 223.35 283.985 221.058 283.985Z" fill="#13BD6B"/>
<path d="M151.136 270.779L126.099 289.08C124.753 288.192 123.865 286.667 123.865 284.934V274.749C123.865 272.003 126.094 269.779 128.843 269.779H148.143C149.266 269.779 150.303 270.151 151.136 270.779Z" fill="#FAD332"/>
<path d="M146.648 284.177C146.648 286.023 145.149 287.519 143.299 287.519C141.45 287.519 139.95 286.023 139.95 284.177C139.95 282.331 141.45 280.835 143.299 280.835C145.149 280.835 146.648 282.331 146.648 284.177Z" fill="#E62552"/>
<path d="M150.625 284.177C150.625 286.023 149.126 287.519 147.276 287.519C145.426 287.519 143.927 286.023 143.927 284.177C143.927 282.331 145.426 280.835 147.276 280.835C149.126 280.835 150.625 282.331 150.625 284.177Z" fill="#95A6DB"/>
<path d="M505.303 238.566C507.249 232.482 506.774 226.584 502.496 222.611C498.161 218.585 491.213 219.848 491.213 219.848C491.213 219.848 486.351 216.686 480.258 220.825C474.164 224.967 476.685 230.503 473.785 233.894C472.067 235.903 466.018 234.95 465.757 242.77C465.681 245.026 467.923 247.092 470.083 247.763C473.876 248.94 478.078 248.172 479.028 250.174C482.293 257.059 494.832 257.273 497.51 253.174C498.34 251.902 507.954 257.053 509.21 247.342C509.844 242.421 503.563 244.002 505.303 238.566Z" fill="#020205"/>
<path d="M480.469 236.174C479.679 243.661 483.816 250.234 489.708 250.851C495.601 251.47 501.018 245.901 501.806 238.415C502.596 230.928 498.459 224.357 492.567 223.738C486.674 223.119 481.259 228.688 480.469 236.174Z" fill="#F37A50"/>
<path d="M498.618 239.33C498.687 239.893 499.203 240.294 499.767 240.225C500.332 240.156 500.733 239.642 500.664 239.078C500.595 238.515 500.08 238.114 499.515 238.183C498.951 238.254 498.549 238.766 498.618 239.33Z" fill="black"/>
<path d="M490.322 238.517C490.397 239.127 490.953 239.561 491.564 239.486C492.176 239.41 492.611 238.855 492.535 238.245C492.459 237.635 491.904 237.201 491.292 237.277C490.683 237.35 490.248 237.907 490.322 238.517Z" fill="black"/>
<path d="M489.467 237.237C489.552 237.225 489.633 237.188 489.697 237.123C490.625 236.174 492.129 236.455 492.143 236.459C492.352 236.5 492.556 236.364 492.598 236.154C492.64 235.945 492.504 235.742 492.294 235.7C492.216 235.685 490.369 235.328 489.142 236.582C488.992 236.736 488.994 236.981 489.148 237.13C489.238 237.217 489.356 237.252 489.467 237.237Z" fill="#020205"/>
<path d="M501.235 238.673C501.275 238.668 501.317 238.655 501.357 238.637C501.549 238.544 501.629 238.312 501.538 238.121C500.813 236.626 499.276 236.597 499.211 236.597C498.997 236.595 498.823 236.767 498.82 236.983C498.818 237.196 498.99 237.37 499.204 237.372C499.255 237.372 500.331 237.408 500.842 238.459C500.913 238.61 501.074 238.693 501.235 238.673Z" fill="#020205"/>
<path d="M497.247 241.218C497.587 241.953 497.854 242.683 498.249 243.182C498.383 243.351 498.356 243.598 498.196 243.739C497.526 244.322 496.114 244.496 495.268 244.549C495.145 244.558 495.105 244.385 495.221 244.34C496.194 243.953 496.683 243.585 496.91 243.371C497.024 243.264 497.076 243.111 497.055 242.955C497.009 242.601 496.924 241.882 496.897 241.303C496.888 241.102 497.163 241.035 497.247 241.218Z" fill="#DE623C"/>
<path d="M489.291 244.603C489.211 244.342 489.478 244.113 489.722 244.233C490.342 244.54 491.377 245.024 492.401 245.384C493.425 245.745 494.534 246.019 495.21 246.17C495.476 246.231 495.541 246.576 495.313 246.729C494.617 247.197 493.305 247.816 491.734 247.262C490.17 246.707 489.539 245.402 489.291 244.603Z" fill="white"/>
<path d="M480.552 235.518C487.344 236.938 498.752 233.547 500.695 230.425C500.88 225.918 494.921 221.518 490.481 222.068C486.04 222.62 479.617 229.434 480.552 235.518Z" fill="#020205"/>
<path d="M500.541 255.757C507.532 257.498 519.478 273.796 520.595 286.016C516.76 286.809 512.378 283.758 512.378 283.758L502.882 270.128L500.541 255.757Z" fill="#DE623C"/>
<path d="M507.3 395.576L511.044 380.861L501.755 379.585C501.436 386.544 500.914 393.396 500.961 395.253L507.3 395.576Z" fill="#F37A50"/>
<path d="M485.136 379.5H475.439C475.759 381.821 477.03 394.378 477.03 394.378C477.849 396.232 485.076 395.809 485.076 394.765C484.53 392.505 485.092 379.79 485.136 379.5Z" fill="#F37A50"/>
<path d="M500.994 385.25L510.557 386.66L517.188 347.081C515.823 332.061 502.574 300.107 502.574 300.107L487.64 305.327L487.276 319.42L505.26 349.809C502.917 355.683 501.313 374.684 500.994 385.25Z" fill="#C4204A"/>
<path d="M493.602 301.165C493.466 300.236 493.419 299.947 492.645 299.484L478.302 295.424L474.888 298.787C471.655 310.502 473.659 326.797 476.209 339.73C472.476 350.924 473.936 373.996 475.44 384.843H485.639C486.23 377.594 486.045 364.147 486.089 357.651C487.41 352.432 488.684 346.865 489.822 341.006C491.279 333.524 493.1 326.276 493.602 319.491C494.057 313.054 494.193 306.153 493.602 301.165Z" fill="#E62552"/>
<path d="M475.511 253.971C472.14 256.178 457.929 274.631 465.761 289.826C466.122 290.027 472.396 279.421 472.396 279.421L479.8 264.793L475.511 253.971Z" fill="#F37A50"/>
<path d="M482.646 244.371L491.549 249.417C491.549 249.417 492.339 253.015 492.734 254.182C493.548 256.592 490.429 257.643 487.794 256.144C485.159 254.645 483.452 252.639 483.452 252.639L482.646 244.371Z" fill="#F37A50"/>
<path d="M504.792 302.445C504.792 302.445 501.117 306.788 500.497 307.113L497.206 303.528L497.184 303.59L496.403 305.641L495.49 308.037C494.727 308.037 471.783 302.908 471.783 302.908C471.83 300.844 473.776 294.157 476.922 287.038C476.159 281.01 476.893 274.742 476.652 271.266C478.504 261.943 477.183 258.364 475.512 253.971L481.333 252.256L491.811 255.944L492.59 253.423C492.59 253.423 499.158 254.995 500.542 255.757L503.023 266.096L502.485 288.06C502.487 288.058 503.311 296.903 504.792 302.445Z" fill="#2DE68C"/>
<path d="M483.356 251.094L479.251 252.833C479.684 257.752 490.715 260.693 490.715 260.693L491.811 255.944L483.356 251.094Z" fill="#1C794C"/>
<path d="M491.811 255.944L495.059 259.544C495.059 259.544 497.868 256.645 496.851 254.855C495.836 253.062 492.112 251.855 492.112 251.855L491.811 255.944Z" fill="#1C794C"/>
<path d="M505.039 395.337C506.01 392.792 508.087 392.509 508.087 392.509C512.123 397.882 522.035 394.585 521.707 401.853C506.634 401.759 500.369 401.853 500.369 401.853C500.389 400.183 500.688 396.221 501.034 394.672L501.819 394.812L505.039 395.337Z" fill="#313131"/>
<path d="M520.836 403.792H501.252C500.766 403.792 500.371 403.398 500.371 402.915V401.652H521.715V402.915C521.715 403.398 521.32 403.792 520.836 403.792Z" fill="#313131"/>
<path d="M497.183 303.588L496.402 305.639C495.695 300.918 493.055 281.166 494.546 275.711C495.942 270.589 494.195 265.187 492.504 259.965C492.093 258.689 491.663 257.369 491.297 256.091L491.81 255.944L492.321 255.797C492.682 257.059 493.109 258.369 493.517 259.638C495.255 265.009 497.051 270.562 495.57 275.991C494.289 280.701 496.257 296.916 497.183 303.588Z" fill="#1C794C"/>
<path d="M486.804 401.922C486.804 401.922 485.594 397.417 485.487 396.838C485.367 396.179 485.01 394.625 484.938 393.825C484.92 393.629 482.843 392.36 481.257 392.362C479.108 392.367 477.149 393.607 477.111 393.843C476.857 395.346 476.85 397.114 476.439 398.577C476.134 399.666 475.304 402.205 475.304 402.205L486.804 401.922Z" fill="#313131"/>
<path d="M486.803 401.572C486.522 402.467 483.042 401.434 480.502 401.436C478.372 401.436 475.614 402.26 475.299 401.94C474.766 402.879 475.205 404.826 475.205 404.826C475.205 404.826 477.428 404.939 480.092 404.826C482.756 404.712 485.835 404.881 486.995 404.536C487.727 403.316 486.803 401.572 486.803 401.572Z" fill="#313131"/>
<path d="M491.257 274.651C491.257 274.651 472.897 293.022 465.761 289.828C463.409 286.655 468.403 280.287 473.082 278.153C477.741 276.029 485.561 272.68 485.561 272.68L491.257 274.651Z" fill="#F37A50"/>
<path d="M494.736 268.409L502.364 262.535C502.529 262.408 502.741 262.357 502.947 262.39L508.143 263.33C508.293 263.354 508.596 264.261 508.476 264.35L503.288 267.461C503.263 267.478 503.235 267.492 503.203 267.494L495.046 268.89C494.874 268.912 494.597 268.516 494.736 268.409Z" fill="#F9CD2D"/>
<path d="M495.126 268.973L502.382 263.446C502.548 263.319 502.76 263.268 502.965 263.301L508.333 264.207C508.483 264.232 508.527 264.421 508.409 264.512L503.306 268.374C503.282 268.394 503.253 268.405 503.221 268.407L495.249 269.278C495.077 269.298 494.988 269.077 495.126 268.973Z" fill="#F9F93A"/>
<path d="M485.362 272.778L489.649 270.636C489.649 270.636 492.366 267.683 493.216 266.801C494.303 266.487 496.414 265.577 496.847 265.608C497.277 265.639 498.005 265.893 498.005 265.893L495.523 267.83C495.523 267.83 496.534 268.296 497.953 267.73C499.372 267.164 502.016 265.427 503.036 266.051C503.362 266.467 503.362 266.467 503.362 266.467C503.362 266.467 504.256 265.777 504.794 266.256C506.459 267.737 495.729 274.116 495.729 274.116L491.259 274.651L485.362 272.778Z" fill="#F37A50"/>
<path d="M503.173 264.633C502.872 264.84 502.497 264.817 502.336 264.584C502.175 264.35 502.291 263.993 502.593 263.789C502.894 263.582 503.269 263.604 503.429 263.838C503.59 264.069 503.476 264.425 503.173 264.633Z" fill="#F9CD2D"/>
<path d="M520.596 286.016C520.596 286.016 511.077 296.878 504.453 298.413C504.058 296.235 503.696 294.569 503.696 294.569L512.728 282.703L520.596 286.016Z" fill="#DE623C"/>
<path d="M503.248 299.012C503.279 298.918 503.328 298.836 503.384 298.76C503.369 298.756 503.353 298.751 503.337 298.747C502.398 298.435 501.816 297.638 502.041 296.963C502.077 296.852 502.135 296.754 502.208 296.665C501.711 296.279 501.459 295.736 501.619 295.255C501.684 295.064 501.807 294.905 501.967 294.781C501.445 294.429 501.177 293.839 501.356 293.3C501.579 292.628 502.414 292.298 503.215 292.563C504.018 292.828 504.486 293.589 504.261 294.262C504.205 294.433 504.109 294.58 503.984 294.703C504.77 295.064 505.225 295.774 505.022 296.382C504.986 296.493 504.928 296.591 504.855 296.68C505.352 297.065 505.604 297.609 505.444 298.09C505.386 298.266 505.274 298.417 505.129 298.537C505.606 298.829 505.859 299.35 505.7 299.824C505.511 300.392 504.808 300.671 504.129 300.446C503.453 300.223 503.058 299.579 503.248 299.012Z" fill="#DE623C"/>
<path d="M482.693 236.631C483.798 238.352 483.55 240.479 482.138 241.381C480.725 242.282 478.686 241.619 477.582 239.898C476.477 238.176 476.725 236.05 478.137 235.148C479.55 234.246 481.589 234.91 482.693 236.631Z" fill="#F37A50"/>
<path d="M480.397 240.361C480.464 240.352 480.531 240.33 480.589 240.289C481.45 239.719 481.814 238.864 481.564 238.007C481.307 237.127 480.484 236.475 479.605 236.457C479.357 236.453 479.152 236.649 479.148 236.894C479.143 237.141 479.339 237.346 479.585 237.35C480.067 237.359 480.558 237.758 480.703 238.256C480.841 238.735 480.625 239.194 480.094 239.546C479.888 239.682 479.833 239.96 479.969 240.165C480.065 240.31 480.234 240.381 480.397 240.361Z" fill="#DE623C"/>
<path d="M50.5737 307.471C54.9447 315.448 52.0084 325.45 44.0161 329.81C36.0237 334.173 26.001 331.242 21.6322 323.266C17.2612 315.29 20.1975 305.287 28.1898 300.927C36.1822 296.565 46.2027 299.495 50.5737 307.471Z" fill="white"/>
<path d="M41.3003 327.056L39.792 324.306C38.1945 325.143 36.289 325.546 34.9591 325.386L34.6133 323.203C35.9543 323.321 37.6567 323.063 39.1851 322.23C41.1218 321.173 41.8202 319.342 40.9701 317.788C40.149 316.289 38.5782 315.944 36.1105 316.229C32.7301 316.659 30.3249 316.345 29.0263 313.976C27.7879 311.716 28.4573 309.121 30.7443 307.342L29.236 304.592L30.9273 303.668L32.3754 306.311C34.0421 305.472 35.4009 305.298 36.4452 305.329L36.7486 307.498C35.9967 307.485 34.5486 307.496 32.8015 308.449C30.6997 309.596 30.5948 311.279 31.1928 312.37C31.9693 313.786 33.366 313.945 36.2778 313.628C39.7162 313.239 41.9117 313.88 43.2393 316.305C44.4174 318.456 44.0225 321.291 41.4632 323.288L43.0162 326.121L41.3003 327.056Z" fill="#E3EAFF"/>
<path d="M569.721 257.329C565.807 265.537 555.965 269.026 547.741 265.12C539.516 261.214 536.02 251.392 539.934 243.184C543.847 234.974 553.689 231.487 561.914 235.393C570.14 239.299 573.634 249.121 569.721 257.329Z" fill="white"/>
<path d="M548.386 261.31L549.736 258.48C548.12 257.678 546.674 256.373 546.027 255.207L547.598 253.648C548.288 254.801 549.495 256.026 551.068 256.774C553.062 257.721 554.959 257.213 555.72 255.614C556.454 254.073 555.814 252.599 554.136 250.771C551.806 248.288 550.651 246.159 551.813 243.721C552.922 241.394 555.421 240.416 558.205 241.223L559.555 238.392L561.296 239.218L559.999 241.937C561.657 242.792 562.597 243.79 563.183 244.652L561.599 246.168C561.169 245.551 560.312 244.389 558.516 243.534C556.354 242.507 554.923 243.409 554.388 244.532C553.694 245.99 554.386 247.213 556.347 249.381C558.679 251.933 559.444 254.084 558.255 256.578C557.199 258.792 554.664 260.132 551.545 259.237L550.155 262.152L548.386 261.31Z" fill="#E3EAFF"/>
<path d="M517.441 90.0914C521.114 98.4107 517.332 108.126 508.996 111.791C500.66 115.457 490.925 111.682 487.252 103.363C483.58 95.0438 487.362 85.3284 495.698 81.6631C504.036 77.9979 513.771 81.7722 517.441 90.0914Z" fill="#D4DEFF"/>
<path d="M506.526 108.814L505.26 105.944C503.596 106.641 501.664 106.881 500.354 106.607L500.198 104.403C501.523 104.634 503.241 104.523 504.837 103.822C506.858 102.933 507.71 101.167 506.994 99.5486C506.305 97.9854 504.767 97.5088 502.286 97.5823C498.881 97.7226 496.512 97.2038 495.421 94.732C494.381 92.3739 495.269 89.8465 497.701 88.2677L496.436 85.3974L498.201 84.6225L499.417 87.3792C501.15 86.6845 502.518 86.6266 503.556 86.7468L503.672 88.9335C502.924 88.8556 501.481 88.7443 499.658 89.5437C497.467 90.5079 497.217 92.1757 497.719 93.3136C498.37 94.7899 499.749 95.0661 502.677 95.0015C506.135 94.9057 508.268 95.7319 509.384 98.2615C510.374 100.506 509.736 103.296 507.019 105.069L508.322 108.024L506.526 108.814Z" fill="white"/>
<path d="M5.43066 192.427L16.3191 172.157C16.3191 172.157 29.6017 173.29 35.6997 188.651C39.4795 198.172 52.3069 203.113 52.3069 203.113L41.3604 223.491C41.3604 223.491 24.6149 219.017 20.4804 208.061C16.1049 196.473 5.43066 192.427 5.43066 192.427Z" fill="#D4DEFF"/>
<path d="M35.2732 204.79C31.663 207.819 25.8685 206.866 22.3275 202.664C18.7865 198.459 18.8445 192.599 22.4547 189.57C26.0649 186.542 31.8616 187.495 35.4004 191.697C38.9391 195.899 38.8834 201.762 35.2732 204.79Z" fill="#E3EAFF"/>
<path d="M437.277 60.8451L421.95 43.6678C421.95 43.6678 427.586 31.6098 444.138 31.1823C454.397 30.9173 463.458 20.5962 463.458 20.5962L478.865 37.8648C478.865 37.8648 468.896 52.0159 457.164 52.1228C444.754 52.2341 437.277 60.8451 437.277 60.8451Z" fill="#D4DEFF"/>
<path d="M459.174 37.1322C460.781 41.5568 457.891 46.6605 452.719 48.531C447.547 50.4015 442.052 48.3328 440.445 43.9083C438.839 39.4837 441.728 34.3799 446.9 32.5094C452.07 30.6389 457.568 32.7076 459.174 37.1322Z" fill="#E3EAFF"/>
<path d="M537.943 318.378L540.445 299.78C540.445 299.78 550.918 296.85 559.984 306.843C565.604 313.038 576.821 313.145 576.821 313.145L574.306 331.843C574.306 331.843 560.229 333.213 553.926 326.023C547.259 318.418 537.943 318.378 537.943 318.378Z" fill="#D4DEFF"/>
<path d="M564.29 319.295C562.401 322.64 557.699 323.571 553.79 321.371C549.879 319.171 548.241 314.677 550.129 311.33C552.019 307.986 556.72 307.055 560.629 309.255C564.542 311.455 566.18 315.949 564.29 319.295Z" fill="#E3EAFF"/>
<path d="M297.034 147.092L294.451 127.884C294.451 127.884 283.633 124.858 274.271 135.179C268.468 141.577 256.881 141.688 256.881 141.688L259.478 160.999C259.478 160.999 274.017 162.413 280.528 154.986C287.413 147.135 297.034 147.092 297.034 147.092Z" fill="#D4DEFF"/>
<path d="M269.825 148.039C271.775 151.495 276.63 152.452 280.671 150.181C284.709 147.91 286.403 143.267 284.451 139.813C282.5 136.359 277.643 135.4 273.604 137.671C269.566 139.942 267.875 144.583 269.825 148.039Z" fill="#E3EAFF"/>
<path d="M223.24 341.806H125.833C121.505 341.806 117.997 338.305 117.997 333.986V313.424C117.997 309.104 121.505 305.603 125.833 305.603H223.24C227.569 305.603 231.077 309.104 231.077 313.424V333.986C231.077 338.305 227.569 341.806 223.24 341.806Z" fill="#E3EAFF"/>
<path d="M153.124 318.612V328.797C153.124 331.543 150.895 333.767 148.143 333.767H128.843C127.83 333.767 126.886 333.464 126.099 332.943C124.753 332.055 123.865 330.53 123.865 328.797V318.612C123.865 315.866 126.094 313.642 128.843 313.642H148.143C149.266 313.642 150.303 314.014 151.136 314.642C152.343 315.546 153.124 316.989 153.124 318.612Z" fill="#D6224C"/>
<path d="M192.463 327.849H160.437C158.144 327.849 156.285 325.994 156.285 323.704C156.285 321.415 158.144 319.56 160.437 319.56H192.463C194.756 319.56 196.615 321.415 196.615 323.704C196.615 325.994 194.756 327.849 192.463 327.849Z" fill="#579AF2"/>
<path d="M221.058 327.849H205.009C202.715 327.849 200.856 325.994 200.856 323.704C200.856 321.415 202.715 319.56 205.009 319.56H221.058C223.352 319.56 225.21 321.415 225.21 323.704C225.208 325.994 223.35 327.849 221.058 327.849Z" fill="#13BD6B"/>
<path d="M151.136 314.642L126.099 332.943C124.753 332.055 123.865 330.53 123.865 328.797V318.612C123.865 315.866 126.094 313.642 128.843 313.642H148.143C149.266 313.642 150.303 314.014 151.136 314.642Z" fill="#E62552"/>
<path d="M143.411 331.388C145.26 331.333 146.715 329.794 146.66 327.948C146.606 326.103 145.063 324.651 143.214 324.706C141.365 324.76 139.91 326.3 139.965 328.145C140.019 329.99 141.562 331.442 143.411 331.388Z" fill="#FAC832"/>
<path d="M150.625 328.04C150.625 329.886 149.126 331.382 147.276 331.382C145.426 331.382 143.927 329.886 143.927 328.04C143.927 326.194 145.426 324.698 147.276 324.698C149.126 324.698 150.625 326.194 150.625 328.04Z" fill="#95A6DB"/>
<path d="M223.24 385.669H125.833C121.505 385.669 117.997 382.168 117.997 377.848V357.286C117.997 352.966 121.505 349.466 125.833 349.466H223.24C227.569 349.466 231.077 352.966 231.077 357.286V377.848C231.077 382.168 227.569 385.669 223.24 385.669Z" fill="#E3EAFF"/>
<path d="M153.124 362.477V372.662C153.124 375.408 150.895 377.632 148.143 377.632H128.843C127.83 377.632 126.886 377.33 126.099 376.808C124.753 375.92 123.865 374.395 123.865 372.662V362.477C123.865 359.731 126.094 357.507 128.843 357.507H148.143C149.266 357.507 150.303 357.879 151.136 358.507C152.343 359.411 153.124 360.854 153.124 362.477Z" fill="#FABA23"/>
<path d="M192.463 371.711H160.437C158.144 371.711 156.285 369.856 156.285 367.567C156.285 365.278 158.144 363.423 160.437 363.423H192.463C194.756 363.423 196.615 365.278 196.615 367.567C196.615 369.856 194.756 371.711 192.463 371.711Z" fill="#579AF2"/>
<path d="M221.058 371.711H205.009C202.715 371.711 200.856 369.856 200.856 367.567C200.856 365.278 202.715 363.423 205.009 363.423H221.058C223.352 363.423 225.21 365.278 225.21 367.567C225.208 369.856 223.35 371.711 221.058 371.711Z" fill="#13BD6B"/>
<path d="M151.136 358.507L126.099 376.808C124.753 375.92 123.865 374.395 123.865 372.662V362.477C123.865 359.731 126.094 357.507 128.843 357.507H148.143C149.266 357.507 150.303 357.879 151.136 358.507Z" fill="#FAD332"/>
<path d="M146.648 371.905C146.648 373.751 145.149 375.248 143.299 375.248C141.45 375.248 139.95 373.751 139.95 371.905C139.95 370.059 141.45 368.563 143.299 368.563C145.149 368.563 146.648 370.059 146.648 371.905Z" fill="#E62552"/>
<path d="M150.625 371.905C150.625 373.751 149.126 375.248 147.276 375.248C145.426 375.248 143.927 373.751 143.927 371.905C143.927 370.059 145.426 368.563 147.276 368.563C149.126 368.563 150.625 370.059 150.625 371.905Z" fill="#95A6DB"/>
</g>
<defs>
<clipPath id="clip0_543_2326">
<rect width="599" height="408" fill="white" transform="translate(0 0.913818)"/>
</clipPath>
</defs>
</svg>
