<svg  width="145" height="53" viewBox="0 0 145 53" fill="none" xmlns="http://www.w3.org/2000/svg">
<path fill-rule="evenodd" clip-rule="evenodd" d="M35.2819 3.25367L52.0287 20.0204C53.2999 21.2931 53.2999 23.3594 52.0232 24.6322L26.0032 50.6831L24.1211 48.7987C25.629 47.289 26.4215 45.3384 26.5151 43.3604L41.6493 28.2081C43.6085 26.2466 43.6085 23.0508 41.6493 21.0893L27.258 6.67533L30.6756 3.25367C31.9469 1.98087 34.0106 1.98087 35.2819 3.25367Z" fill="#579AF2"/>
<path fill-rule="evenodd" clip-rule="evenodd" d="M40.3878 22.3326L26.0034 7.93111L23.6535 5.57837C22.3822 4.30558 20.3184 4.30558 19.0471 5.57837L0 24.6482L4.65034 29.3041L7.83129 32.4888C11.0453 29.271 16.2569 29.271 19.4709 32.4888C20.2964 33.3153 20.9073 34.2796 21.309 35.3044C22.4647 38.2632 21.8539 41.751 19.4709 44.1423L21.3531 46.0267L26.3061 41.0678L40.0687 27.2888C42.853 30.047 46.2074 32.636 49.8836 35.2979C50.0221 35.3982 50.2048 35.2436 50.1323 35.0886C46.6545 27.6488 47.2923 20.6881 52.5227 14.0495C52.6309 13.9121 52.4808 13.7178 52.3231 13.7936C47.9571 15.8931 43.5063 18.7345 40.5652 22.1182C40.4931 22.2013 40.4348 22.2725 40.3878 22.3326Z" fill="#32F094"/>
<circle cx="14.177" cy="35.685" r="1.52755" fill="white"/>
<path d="M67.2998 16.8304C67.2998 16.1118 67.5456 15.5598 68.0372 15.1742C68.5463 14.7711 69.2486 14.5696 70.1439 14.5696V23.4025L79.4927 14.5696C79.8263 14.8325 80.0984 15.1216 80.3091 15.4371C80.5373 15.7526 80.6514 16.033 80.6514 16.2783C80.6514 16.7165 80.353 17.2072 79.756 17.7505L73.9098 23.2711L81.6258 32.6298C81.3976 32.8926 81.1342 33.0942 80.8358 33.2344C80.5548 33.3746 80.2652 33.4447 79.9667 33.4447C79.2118 33.4447 78.6149 33.1731 78.176 32.6298L71.9083 25.0587L70.1439 26.7149V31.289C70.1439 32.0251 69.9157 32.5684 69.4592 32.9189C69.0028 33.2694 68.283 33.4447 67.2998 33.4447V16.8304Z" fill="#579AF2"/>
<path d="M88.8696 33.4447C87.7636 33.4447 86.7716 33.2432 85.8938 32.8401C85.016 32.437 84.3225 31.8849 83.8134 31.1839C83.3218 30.4653 83.076 29.6679 83.076 28.7916V24.6644C83.076 23.7705 83.3218 22.9556 83.8134 22.2195C84.305 21.4834 84.9897 20.9051 85.8675 20.4845C86.7453 20.0463 87.746 19.8273 88.8696 19.8273C89.9932 19.8273 90.9939 20.0463 91.8718 20.4845C92.7496 20.9051 93.4343 21.4834 93.9259 22.2195C94.435 22.9556 94.6896 23.7705 94.6896 24.6644V28.7916C94.6896 29.6679 94.435 30.4653 93.9259 31.1839C93.4343 31.8849 92.7408 32.437 91.8454 32.8401C90.9676 33.2432 89.9757 33.4447 88.8696 33.4447ZM88.8696 31.1839C89.8703 31.1839 90.6604 30.9561 91.2397 30.5004C91.8191 30.0272 92.1088 29.405 92.1088 28.6339V24.7695C92.1088 23.9633 91.8103 23.3149 91.2134 22.8242C90.634 22.3334 89.8528 22.0881 88.8696 22.0881C87.8865 22.0881 87.0964 22.3334 86.4995 22.8242C85.9202 23.3149 85.6305 23.9633 85.6305 24.7695V28.6339C85.6305 29.405 85.9202 30.0272 86.4995 30.5004C87.0789 30.9561 87.8689 31.1839 88.8696 31.1839Z" fill="#579AF2"/>
<path d="M98.7708 18.0922C98.2441 18.0922 97.7964 17.9257 97.4277 17.5928C97.0591 17.2598 96.8747 16.8392 96.8747 16.3309C96.8747 15.8227 97.0591 15.402 97.4277 15.0691C97.7964 14.7361 98.2441 14.5696 98.7708 14.5696C99.2975 14.5696 99.7364 14.7361 100.088 15.0691C100.456 15.402 100.641 15.8227 100.641 16.3309C100.641 16.8392 100.456 17.2598 100.088 17.5928C99.7364 17.9257 99.2975 18.0922 98.7708 18.0922ZM97.4541 21.6149C97.4541 20.984 97.6647 20.5283 98.0861 20.2479C98.525 19.9675 99.1834 19.8273 100.061 19.8273V31.6571C100.061 32.2705 99.8417 32.7262 99.4028 33.0241C98.9815 33.3045 98.3319 33.4447 97.4541 33.4447V21.6149Z" fill="#579AF2"/>
<path d="M104.127 16.1206C104.127 15.735 104.259 15.4196 104.522 15.1742C104.803 14.9289 105.154 14.8062 105.575 14.8062H113.133C114.327 14.8062 115.381 15.0515 116.294 15.5423C117.224 16.0154 117.944 16.6989 118.453 17.5928C118.962 18.469 119.217 19.4855 119.217 20.6422C119.217 21.8164 118.962 22.8505 118.453 23.7443C117.961 24.6381 117.25 25.3303 116.32 25.821C115.407 26.2942 114.345 26.5308 113.133 26.5308H106.971V31.2102C106.971 31.9287 106.725 32.4808 106.234 32.8664C105.742 33.2519 105.04 33.4447 104.127 33.4447V16.1206ZM113.133 24.0597C114.152 24.0597 114.95 23.7618 115.53 23.1659C116.109 22.5525 116.399 21.7113 116.399 20.6422C116.399 19.6082 116.1 18.7933 115.504 18.1974C114.924 17.584 114.134 17.2773 113.133 17.2773H106.971V24.0597H113.133Z" fill="#579AF2"/>
<path d="M124.7 33.4447C123.243 33.4447 122.049 33.0504 121.119 32.2617C120.188 31.4555 119.723 30.3865 119.723 29.0545C119.723 27.7051 120.215 26.6272 121.198 25.821C122.181 25.0149 123.454 24.6118 125.016 24.6118C126.667 24.6118 128.027 25.1726 129.098 26.2942L129.204 26.1891C128.975 25.9437 128.738 25.7159 128.493 25.5056V24.6118C128.493 23.7705 128.22 23.1221 127.676 22.6664C127.132 22.1932 126.368 21.9566 125.385 21.9566C123.612 21.9566 122.33 22.6401 121.54 24.0071C121.207 23.8669 120.935 23.6742 120.724 23.4288C120.531 23.1659 120.434 22.903 120.434 22.6401C120.434 22.1494 120.671 21.6938 121.145 21.2731C121.619 20.835 122.251 20.4845 123.041 20.2216C123.831 19.9587 124.674 19.8273 125.569 19.8273C127.29 19.8273 128.642 20.2479 129.625 21.0891C130.608 21.9304 131.1 23.0783 131.1 24.5329V31.5256C131.1 32.1916 130.898 32.6823 130.494 32.9978C130.09 33.2957 129.467 33.4447 128.624 33.4447V32.2617C128.993 31.8586 129.195 31.6308 129.23 31.5782L129.125 31.4731C128.545 32.139 127.896 32.6385 127.176 32.9715C126.474 33.287 125.648 33.4447 124.7 33.4447ZM125.253 31.4468C126.289 31.4468 127.097 31.2365 127.676 30.8159C128.256 30.3952 128.545 29.8081 128.545 29.0545C128.545 28.3009 128.256 27.7051 127.676 27.2669C127.097 26.8288 126.307 26.6097 125.306 26.6097C124.376 26.6097 123.638 26.8288 123.094 27.2669C122.55 27.7051 122.278 28.3009 122.278 29.0545C122.278 29.8081 122.541 30.3952 123.068 30.8159C123.594 31.2365 124.323 31.4468 125.253 31.4468Z" fill="#579AF2"/>
<path d="M134.305 38.6761C133.725 38.6761 133.269 38.4921 132.935 38.1241C132.602 37.756 132.426 37.2127 132.409 36.4942C132.883 36.5818 133.286 36.6256 133.62 36.6256C134.357 36.6256 134.946 36.4153 135.384 35.9947C135.823 35.5741 136.289 34.8117 136.78 33.7076L137.254 32.6035L132.119 20.0376C132.242 19.985 132.417 19.9412 132.646 19.9061C132.874 19.8536 133.076 19.8273 133.251 19.8273C133.673 19.8448 134.05 19.95 134.384 20.1427C134.735 20.3355 134.972 20.5984 135.095 20.9314L138.387 29.37L137.992 30.5004L138.176 30.5793L141.968 20.9314C142.091 20.5809 142.319 20.3092 142.653 20.1164C142.986 19.9237 143.364 19.8273 143.785 19.8273C143.961 19.8273 144.163 19.8536 144.391 19.9061C144.637 19.9412 144.812 19.985 144.918 20.0376L139.019 34.47C138.439 35.8895 137.781 36.9411 137.044 37.6246C136.324 38.3256 135.411 38.6761 134.305 38.6761Z" fill="#579AF2"/>
</svg>
