<svg width="336" height="287" viewBox="0 0 336 287" fill="none" xmlns="http://www.w3.org/2000/svg">
<path d="M193.922 205.974H141.22V272.035H193.922V205.974Z" fill="#232323"/>
<path d="M67.0127 286.244V278.35L95.6008 272.035H239.54L268.128 278.309V286.244H67.0127Z" fill="#313131"/>
<path d="M0.0703125 218.524V3.30356C0.0703125 1.6128 1.43569 0.243652 3.12179 0.243652H332.021C333.705 0.243652 335.073 1.6128 335.073 3.30356V218.524C335.073 220.212 333.707 221.584 332.021 221.584H3.12179C1.43569 221.581 0.0703125 220.212 0.0703125 218.524Z" fill="#313131"/>
<path d="M331.895 3.42993H3.24805V208.841H331.895V3.42993Z" fill="#737373"/>
<path d="M329.036 6.29688H6.10645V205.974H329.036V6.29688Z" fill="#D2E1F4"/>
<path d="M318.871 195.78L318.871 16.4884L16.2712 16.4884L16.2712 195.78L318.871 195.78Z" fill="white"/>
<g clip-path="url(#clip0_596_3742)">
<path d="M295.438 64.8483C295.105 63.613 294.616 62.4475 293.988 61.368C293.354 60.2723 292.581 59.2679 291.695 58.3764C290.803 57.4848 289.799 56.7167 288.703 56.083C287.623 55.4546 286.453 54.9658 285.223 54.6328C284.03 54.3105 282.773 54.1387 281.484 54.1387V56.6899C282.548 56.6899 283.579 56.8349 284.562 57.0981C285.577 57.372 286.538 57.7748 287.43 58.2904C288.332 58.8114 289.159 59.4505 289.895 60.181C290.626 60.9114 291.265 61.7439 291.786 62.6463C292.301 63.5378 292.704 64.4992 292.978 65.5143C293.241 66.4972 293.386 67.5284 293.386 68.5919C293.386 69.6553 293.241 70.6866 292.978 71.6695C292.704 72.6846 292.301 73.646 291.786 74.5375C291.265 75.4399 290.626 76.267 289.895 77.0028C289.165 77.7333 288.332 78.3724 287.43 78.8934L288.703 81.1008C289.799 80.4671 290.803 79.6936 291.695 78.8074C292.586 77.9159 293.354 76.9115 293.988 75.8158C294.616 74.7363 295.105 73.5654 295.438 72.3354C295.76 71.1431 295.932 69.8863 295.932 68.5973C295.932 67.2921 295.76 66.0407 295.438 64.8483Z" fill="#D2D6DB"/>
<path d="M305.294 62.2058C304.73 60.1004 303.892 58.1078 302.828 56.2602C301.749 54.3911 300.433 52.6724 298.913 51.1524C297.393 49.6324 295.674 48.3219 293.805 47.237C291.963 46.1682 289.965 45.3357 287.86 44.7717C285.824 44.2292 283.686 43.9338 281.479 43.9338V46.485C283.455 46.485 285.373 46.7482 287.199 47.2423C289.084 47.7472 290.873 48.4991 292.527 49.4605C294.203 50.4327 295.744 51.6089 297.103 52.9731C298.462 54.332 299.643 55.8735 300.616 57.5492C301.572 59.2034 302.323 60.9866 302.834 62.8772C303.322 64.7033 303.591 66.6207 303.591 68.5972C303.591 70.5737 303.328 72.4912 302.834 74.3173C302.329 76.2025 301.577 77.991 300.616 79.6453C299.643 81.321 298.467 82.8625 297.103 84.2213C295.744 85.5802 294.203 86.7618 292.527 87.7339C292.049 88.0132 291.56 88.2764 291.055 88.5235C289.831 89.1143 288.542 89.5923 287.199 89.9521C285.373 90.4409 283.455 90.7094 281.479 90.7094C279.502 90.7094 277.585 90.4463 275.759 89.9521C273.874 89.4473 272.085 88.6953 270.431 87.7339C268.755 86.7618 267.214 85.5856 265.855 84.2213C264.496 82.8625 263.314 81.321 262.342 79.6453C261.386 77.991 260.634 76.2079 260.124 74.3173C259.635 72.4912 259.367 70.5737 259.367 68.5972H256.826C256.826 70.8047 257.122 72.9423 257.664 74.9779C258.228 77.0833 259.066 79.076 260.129 80.9236C261.214 82.7927 262.525 84.5114 264.045 86.0313C265.565 87.5513 267.283 88.8618 269.153 89.9468C270.995 91.0156 272.993 91.8481 275.098 92.412C277.134 92.9545 279.271 93.2499 281.479 93.2499C283.686 93.2499 285.824 92.9545 287.86 92.412C289.965 91.8481 291.958 91.0102 293.805 89.9468C295.674 88.8672 297.393 87.5513 298.913 86.0313C300.433 84.5114 301.743 82.7927 302.828 80.9236C303.897 79.0813 304.73 77.0833 305.294 74.9779C305.836 72.9423 306.131 70.8047 306.131 68.5972C306.131 66.379 305.841 64.2414 305.294 62.2058Z" fill="#D2D6DB"/>
<path d="M300.363 63.5271C299.917 61.8567 299.251 60.2777 298.403 58.8168C297.543 57.3344 296.501 55.9702 295.298 54.7671C294.095 53.564 292.731 52.522 291.248 51.6626C289.788 50.814 288.209 50.148 286.538 49.7023C284.927 49.2672 283.23 49.0363 281.484 49.0363V51.5875C283.004 51.5875 284.476 51.7916 285.878 52.1675C287.328 52.5542 288.703 53.1343 289.976 53.8701C291.265 54.6167 292.446 55.5244 293.494 56.5717C294.541 57.619 295.449 58.8006 296.195 60.0897C296.931 61.3626 297.511 62.7375 297.898 64.1877C298.274 65.5895 298.478 67.0665 298.478 68.5865C298.478 70.1065 298.274 71.5835 297.898 72.9853C297.511 74.4355 296.931 75.8104 296.195 77.0834C295.449 78.3724 294.541 79.554 293.494 80.6013C292.446 81.6487 291.265 82.5564 289.976 83.3029C288.703 84.0387 287.328 84.6188 285.878 85.0055C284.476 85.3815 282.999 85.5856 281.479 85.5856C279.959 85.5856 278.482 85.3815 277.08 85.0055C275.63 84.6188 274.255 84.0387 272.982 83.3029L271.709 85.5104C273.17 86.359 274.749 87.025 276.419 87.4708C278.036 87.9058 279.728 88.1368 281.479 88.1368C283.23 88.1368 284.922 87.9004 286.538 87.4708C288.209 87.025 289.788 86.359 291.248 85.5104C292.731 84.651 294.095 83.6091 295.298 82.406C296.501 81.2029 297.543 79.8386 298.403 78.3563C299.251 76.8954 299.917 75.3163 300.363 73.6459C300.798 72.0293 301.029 70.3374 301.029 68.5865C301.029 66.8356 300.798 65.1437 300.363 63.5271Z" fill="#D2D6DB"/>
<path d="M290.503 66.1696C290.288 65.3693 289.976 64.6174 289.568 63.9192C289.16 63.2102 288.666 62.555 288.086 61.9803C287.511 61.4056 286.856 60.9115 286.147 60.4979C285.449 60.0951 284.691 59.7782 283.896 59.5633C283.123 59.3539 282.317 59.2357 281.479 59.2357V61.7869C282.086 61.7869 282.677 61.8729 283.236 62.0232C283.816 62.179 284.364 62.4099 284.874 62.7C285.39 63.0008 285.868 63.3552 286.286 63.7742C286.705 64.1931 287.065 64.6711 287.361 65.1867C287.656 65.697 287.882 66.2448 288.037 66.8249C288.188 67.3888 288.274 67.9743 288.274 68.5812H290.825C290.83 67.7487 290.712 66.943 290.503 66.1696Z" fill="#D2D6DB"/>
<path d="M287.43 78.888C286.538 79.4036 285.577 79.8064 284.562 80.0804C283.579 80.3435 282.547 80.4886 281.484 80.4886C280.421 80.4886 279.389 80.3435 278.406 80.0804C277.391 79.8064 276.43 79.4036 275.538 78.888C274.636 78.367 273.809 77.7279 273.073 76.9974C272.343 76.267 271.703 75.4345 271.183 74.5322C270.667 73.6406 270.264 72.6792 269.99 71.6641C269.727 70.6812 269.582 69.65 269.582 68.5865C269.582 67.5231 269.727 66.4919 269.99 65.509C270.264 64.4939 270.667 63.5325 271.183 62.6409C271.703 61.7386 272.343 60.9114 273.073 60.1756C273.804 59.4452 274.636 58.806 275.538 58.285C276.43 57.7694 277.391 57.3666 278.406 57.0927C279.389 56.8295 280.421 56.6845 281.484 56.6845V54.1333C280.19 54.1333 278.938 54.3052 277.746 54.6274C276.51 54.9604 275.345 55.4492 274.265 56.0776C273.17 56.7114 272.165 57.4848 271.274 58.371C270.382 59.2626 269.614 60.2669 268.98 61.3626C268.352 62.4422 267.863 63.613 267.53 64.843C267.208 66.0353 267.036 67.2921 267.036 68.5812C267.036 69.8756 267.208 71.127 267.53 72.3193C267.863 73.5547 268.352 74.7202 268.98 75.7997C269.614 76.8954 270.388 77.8998 271.274 78.7913C272.165 79.6829 273.17 80.451 274.265 81.0847C275.345 81.7131 276.516 82.2019 277.746 82.5349C278.938 82.8571 280.195 83.029 281.484 83.029C282.778 83.029 284.03 82.8571 285.222 82.5349C286.457 82.2019 287.623 81.7131 288.703 81.0847L287.43 78.888Z" fill="url(#paint0_linear_596_3742)"/>
<path d="M281.479 43.9338C279.271 43.9338 277.134 44.2292 275.098 44.7717C272.993 45.3357 271 46.1735 269.153 47.237C267.283 48.3219 265.565 49.6324 264.045 51.1524C262.525 52.6724 261.214 54.3911 260.129 56.2602C259.06 58.1024 258.228 60.1004 257.664 62.2058C257.122 64.2414 256.826 66.379 256.826 68.5865H259.377C259.377 66.61 259.641 64.6926 260.135 62.8664C260.64 60.9812 261.391 59.1927 262.353 57.5385C263.325 55.8627 264.501 54.3213 265.865 52.9624C267.224 51.6036 268.766 50.4219 270.442 49.4498C270.925 49.1705 271.408 48.9073 271.913 48.6603C273.138 48.0695 274.427 47.5915 275.77 47.2316C277.596 46.7428 279.513 46.4743 281.49 46.4743L281.479 43.9338Z" fill="url(#paint1_linear_596_3742)"/>
<path d="M288.279 68.5865C288.279 69.1935 288.193 69.7843 288.043 70.3428C287.887 70.9229 287.656 71.4707 287.366 71.981C287.065 72.4966 286.711 72.9746 286.292 73.3935C285.873 73.8125 285.395 74.1723 284.879 74.4677C284.369 74.7631 283.821 74.9887 283.241 75.1445C282.677 75.2949 282.092 75.3808 281.485 75.3808C280.878 75.3808 280.287 75.2949 279.728 75.1445C279.148 74.9887 278.6 74.7578 278.09 74.4677C277.575 74.167 277.097 73.8125 276.678 73.3935C276.259 72.9746 275.899 72.4966 275.603 71.981C275.308 71.4707 275.082 70.9229 274.927 70.3428C274.776 69.7789 274.69 69.1935 274.69 68.5865C274.69 67.9796 274.776 67.3888 274.927 66.8302C275.082 66.2502 275.313 65.7023 275.603 65.1921C275.904 64.6765 276.259 64.1985 276.678 63.7795C277.097 63.3606 277.575 63.0008 278.09 62.7054C278.6 62.4099 279.148 62.1844 279.728 62.0286C280.292 61.8782 280.878 61.7923 281.485 61.7923V59.2411C280.647 59.2411 279.841 59.3646 279.068 59.5687C278.267 59.7836 277.515 60.0951 276.817 60.5033C276.108 60.9115 275.453 61.4056 274.878 61.9856C274.304 62.5657 273.81 63.2156 273.396 63.9246C272.993 64.6228 272.676 65.3801 272.461 66.175C272.252 66.9484 272.134 67.754 272.134 68.5919C272.134 69.4298 272.257 70.2354 272.461 71.0088C272.676 71.8091 272.988 72.561 273.396 73.2593C273.804 73.9682 274.298 74.6235 274.878 75.1982C275.453 75.7729 276.108 76.267 276.817 76.6806C277.515 77.0834 278.273 77.4003 279.068 77.6151C279.841 77.8246 280.647 77.9427 281.485 77.9427C282.322 77.9427 283.128 77.8192 283.902 77.6151C284.702 77.4003 285.454 77.0888 286.152 76.6806C286.861 76.2724 287.516 75.7782 288.091 75.1982C288.666 74.6235 289.16 73.9682 289.573 73.2593C289.976 72.561 290.293 71.8037 290.508 71.0088C290.717 70.2354 290.835 69.4298 290.835 68.5919H288.279V68.5865Z" fill="url(#paint2_linear_596_3742)"/>
<path d="M276.42 49.7023C274.749 50.148 273.17 50.814 271.709 51.6626C270.227 52.522 268.863 53.564 267.66 54.7671C266.456 55.9702 265.414 57.3344 264.555 58.8168C263.706 60.2777 263.04 61.8567 262.595 63.5271C262.16 65.1437 261.929 66.8356 261.929 68.5865C261.929 70.3374 262.165 72.0293 262.595 73.6459C263.04 75.3163 263.706 76.8954 264.555 78.3563C265.414 79.8386 266.456 81.2029 267.66 82.406C268.863 83.6091 270.227 84.651 271.709 85.5104L272.982 83.3029C271.693 82.5564 270.511 81.6487 269.464 80.6013C268.417 79.554 267.509 78.3724 266.763 77.0834C266.027 75.8104 265.447 74.4355 265.06 72.9853C264.684 71.5835 264.48 70.1065 264.48 68.5865C264.48 67.0665 264.684 65.5895 265.06 64.1877C265.447 62.7375 266.027 61.3626 266.763 60.0897C267.509 58.8006 268.417 57.619 269.464 56.5717C270.511 55.5244 271.693 54.6167 272.982 53.8701C274.255 53.1343 275.63 52.5542 277.08 52.1675C278.482 51.7916 279.959 51.5875 281.479 51.5875V49.0363C279.728 49.0363 278.036 49.2672 276.42 49.7023Z" fill="url(#paint3_linear_596_3742)"/>
</g>
<path d="M305.618 24.7281H257.913V29.6344H305.618V24.7281Z" fill="#ECEFFE"/>
<path d="M284.134 32.0266H257.913V36.9329H284.134V32.0266Z" fill="#ECEFFE"/>
<g clip-path="url(#clip1_596_3742)">
<path d="M286.828 153.086H256.886V159.329H286.828V153.086Z" fill="#ADADAD"/>
<path d="M303.331 169.516H256.886V175.761H303.331V169.516Z" fill="#E2E2E2"/>
<path d="M274.334 177.45H256.886V183.695H274.334V177.45Z" fill="#32F094"/>
<path d="M258.555 161.327H256.886V162.994V163.037L258.598 161.327H258.555Z" fill="#32F094"/>
<path d="M261.67 161.306L261.648 161.327H258.598L256.886 163.037V166.088V166.109V166.13L261.713 161.306H261.67Z" fill="#579AF2"/>
<path d="M264.785 161.306H261.713L256.886 166.13V167.548H258.542H258.585L264.83 161.306H264.785Z" fill="#32F094"/>
<path d="M267.902 161.306H264.83L258.585 167.548H261.657H261.7L267.945 161.306H267.902Z" fill="#579AF2"/>
<path d="M271.018 161.306H267.946L261.701 167.548H264.773H264.816L271.061 161.306H271.018Z" fill="#32F094"/>
<path d="M274.132 161.306H271.06L264.815 167.548H267.887H267.933L274.175 161.306H274.132Z" fill="#579AF2"/>
<path d="M277.247 161.306H274.175L267.933 167.548H271.005H271.048L277.292 161.306H277.247Z" fill="#32F094"/>
<path d="M280.39 161.28H277.318L271.047 167.548L274.145 167.523H274.188L280.433 161.28H280.39Z" fill="#579AF2"/>
<path d="M283.48 161.306L283.505 161.28H280.433L274.188 167.523H277.26L277.235 167.548H277.28L283.523 161.306H283.48Z" fill="#32F094"/>
<path d="M286.594 161.306H283.522L277.279 167.548H280.351H280.394L286.639 161.306H286.594Z" fill="#579AF2"/>
<path d="M289.711 161.306H286.639L280.395 167.548H283.467H283.509L289.754 161.306H289.711Z" fill="#32F094"/>
<path d="M292.826 161.306H289.754L283.509 167.548H286.581H286.626L292.869 161.306H292.826Z" fill="#579AF2"/>
<path d="M295.941 161.306H292.869L286.626 167.548H289.696H289.741L295.986 161.306H295.941Z" fill="#32F094"/>
<path d="M299.057 161.306H295.987L289.742 167.548H292.814H292.857L299.102 161.306H299.057Z" fill="#579AF2"/>
<path d="M302.173 161.306H299.101L292.856 167.548H295.928H295.971L302.216 161.306H302.173Z" fill="#32F094"/>
<path d="M305.289 161.306H302.217L295.972 167.548H299.044H299.089L305.332 161.306H305.289Z" fill="#579AF2"/>
<path d="M308.403 161.306H305.331L299.088 167.548H302.16H302.203L308.448 161.306H308.403Z" fill="#32F094"/>
<path d="M308.878 163.991L305.318 167.548L308.412 167.57L308.899 167.084L308.878 163.991Z" fill="#32F094"/>
<path d="M308.449 161.306L302.204 167.548H305.276H305.319L308.879 163.991V163.948V161.306H308.449Z" fill="#579AF2"/>
<path d="M308.877 167.106V167.063L308.39 167.548L308.456 167.57H308.899L308.877 167.106Z" fill="#579AF2"/>
<path d="M298.413 141.497L297.21 143.379L296.005 141.497H298.413Z" fill="#132250"/>
<path d="M295.972 149.394L297.211 147.46L298.449 149.394H295.972Z" fill="#2DE0B1"/>
<path d="M314.73 140.714H301.029V144.161H314.73V140.714Z" fill="#ECEFFE"/>
<path d="M314.73 146.703H301.029V150.151H314.73V146.703Z" fill="#ECEFFE"/>
<path d="M291.578 141.497H257.09V149.956H291.578V141.497Z" fill="#ECEFFE"/>
</g>
<path d="M260.816 100.24H256.886V103.73H260.816V100.24Z" fill="url(#paint4_linear_596_3742)"/>
<path d="M284.236 100.24H265.106V103.73H284.236V100.24Z" fill="#ECEFFE"/>
<path d="M260.816 107.37H256.886V110.86H260.816V107.37Z" fill="url(#paint5_linear_596_3742)"/>
<path d="M292.246 107.37H265.106V110.86H292.246V107.37Z" fill="#ECEFFE"/>
<path d="M260.816 114.5H256.886V117.99H260.816V114.5Z" fill="url(#paint6_linear_596_3742)"/>
<path d="M306.646 114.5H265.106V117.99H306.646V114.5Z" fill="#ECEFFE"/>
<path d="M260.816 121.63H256.886V125.12H260.816V121.63Z" fill="url(#paint7_linear_596_3742)"/>
<path d="M298.286 121.63H265.106V125.12H298.286V121.63Z" fill="#ECEFFE"/>
<path d="M243.804 37.3892H16.7373V37.4902H243.804V37.3892Z" fill="#525252"/>
<path d="M243.804 24.8792H16.7373V24.9802H243.804V24.8792Z" fill="#525252"/>
<path d="M245.239 31.1343H18.1719V31.2354H245.239V31.1343Z" fill="#525252"/>
<path d="M243.804 44.2734H16.7373V44.3745H243.804V44.2734Z" fill="#525252"/>
<path d="M243.804 51.0547H16.7373V51.1558H243.804V51.0547Z" fill="#525252"/>
<path d="M243.804 58.3864H16.7373V58.4874H243.804V58.3864Z" fill="#525252"/>
<path d="M243.804 65.5215H16.7373V65.6226H243.804V65.5215Z" fill="#525252"/>
<path d="M243.804 72.4058H16.7373V72.5068H243.804V72.4058Z" fill="#525252"/>
<path d="M243.804 79.1871H16.7373V79.2882H243.804V79.1871Z" fill="#525252"/>
<path d="M243.804 86.7808H16.7373V86.8818H243.804V86.7808Z" fill="#525252"/>
<path d="M243.804 93.9683H16.7373V94.0693H243.804V93.9683Z" fill="#525252"/>
<path d="M243.804 100.853H16.7373V100.954H243.804V100.853Z" fill="#525252"/>
<path d="M243.804 107.634H16.7373V107.735H243.804V107.634Z" fill="#525252"/>
<path d="M243.804 114.557H16.7373V114.658H243.804V114.557Z" fill="#525252"/>
<path d="M243.804 121.693H16.7373V121.794H243.804V121.693Z" fill="#525252"/>
<path d="M243.804 128.577H16.7373V128.678H243.804V128.577Z" fill="#525252"/>
<path d="M243.804 135.358H16.7373V135.459H243.804V135.358Z" fill="#525252"/>
<path d="M243.804 142.952H16.7373V143.053H243.804V142.952Z" fill="#525252"/>
<path d="M243.804 150.139H16.7373V150.24H243.804V150.139Z" fill="#525252"/>
<path d="M243.804 157.024H16.7373V157.125H243.804V157.024Z" fill="#525252"/>
<path d="M243.804 163.805H16.7373V163.906H243.804V163.805Z" fill="#525252"/>
<path d="M243.804 170.73H16.7373V170.831H243.804V170.73Z" fill="#525252"/>
<path d="M243.804 177.865H16.7373V177.967H243.804V177.865Z" fill="#525252"/>
<path d="M243.804 184.75H16.7373V184.851H243.804V184.75Z" fill="#525252"/>
<path d="M243.804 191.707H16.7373V191.808H243.804V191.707Z" fill="#525252"/>
<path d="M67.7298 166.682H30.8564V194.625H67.7298V166.682Z" fill="#D2D6DB"/>
<path d="M107.837 164.769H70.9639V194.627H107.837V164.769Z" fill="#58595B"/>
<path d="M147.945 147.714H111.071V194.625H147.945V147.714Z" fill="#D2D6DB"/>
<path d="M188.055 134.529H151.182V194.627H188.055V134.529Z" fill="#D2D6DB"/>
<path d="M228.162 94.0693H191.289V194.625H228.162V94.0693Z" fill="#579AF2"/>
<path d="M243.803 194.17H16.2715V195.78H243.803V194.17Z" fill="#3D3E42"/>
<path d="M225.841 38.7405C225.836 38.4598 225.545 38.2763 225.291 38.3905L199.556 50.2106C199.212 50.3622 199.259 50.8657 199.625 50.9518L210.079 53.3832C209.467 54.2124 208.821 55.0902 208.133 56.0223C207.038 57.4336 205.815 58.9516 204.529 60.58C204.207 60.9862 203.88 61.3999 203.547 61.821C203.2 62.2291 202.849 62.6427 202.491 63.0639C201.776 63.9043 201.039 64.7671 200.284 65.6543C198.802 67.4568 197.102 69.2219 195.388 71.1236C194.955 71.5953 194.519 72.0726 194.078 72.5536C193.621 73.0197 193.159 73.4895 192.693 73.9649C191.76 74.9157 190.81 75.8853 189.844 76.8717C189.366 77.3715 188.863 77.8525 188.352 78.3335C187.843 78.8183 187.33 79.305 186.813 79.7973C185.773 80.7724 184.745 81.7981 183.65 82.7752C182.551 83.7504 181.438 84.7405 180.309 85.74C179.74 86.2342 179.188 86.7583 178.595 87.2393C178.007 87.726 177.415 88.2164 176.82 88.7086C175.624 89.6857 174.439 90.7058 173.2 91.681C171.952 92.6449 170.69 93.6182 169.419 94.6009C164.272 98.4473 158.829 102.29 153.03 105.788C147.25 109.309 141.238 112.695 135.013 115.671C133.476 116.457 131.9 117.161 130.332 117.876C128.759 118.582 127.206 119.334 125.609 119.976C124.022 120.641 122.437 121.305 120.855 121.968C119.255 122.582 117.658 123.194 116.069 123.804C114.485 124.435 112.874 124.968 111.281 125.528C109.684 126.078 108.105 126.662 106.504 127.141C104.91 127.645 103.324 128.144 101.75 128.64C100.161 129.092 98.5849 129.541 97.0201 129.984C96.2359 130.201 95.461 130.437 94.6786 130.636C93.8962 130.832 93.1175 131.029 92.3426 131.223C90.791 131.605 89.2599 132.021 87.7307 132.363C84.6685 133.033 81.6793 133.739 78.735 134.265C77.2657 134.538 75.8207 134.843 74.387 135.079C72.9532 135.313 71.5401 135.542 70.1493 135.768C69.4549 135.878 68.7661 135.998 68.0811 136.097C67.396 136.189 66.7147 136.281 66.0427 136.371C64.6951 136.552 63.3718 136.728 62.0765 136.902C59.4804 137.209 56.9854 137.454 54.6139 137.709C52.2349 137.896 49.9794 138.074 47.8587 138.243C45.7343 138.353 43.7446 138.456 41.9047 138.551C40.0648 138.647 38.3709 138.654 36.8435 138.703C33.7851 138.81 31.3799 138.755 29.7402 138.765C28.1006 138.763 27.2246 138.761 27.2246 138.761C27.2246 138.761 28.0987 138.81 29.7346 138.901C31.3724 138.982 33.7757 139.167 36.8398 139.229C38.3709 139.263 40.0685 139.349 41.9159 139.354C43.7652 139.36 45.7642 139.366 47.9018 139.371C50.0393 139.321 52.3135 139.264 54.7112 139.208C57.1052 139.083 59.6283 138.974 62.2581 138.808C63.572 138.705 64.9122 138.598 66.2786 138.491C66.9618 138.437 67.6524 138.383 68.3487 138.329C69.045 138.267 69.7432 138.183 70.4507 138.11C71.8639 137.958 73.3032 137.805 74.7632 137.649C76.2232 137.49 77.6962 137.264 79.1974 137.069C82.2015 136.7 85.2618 136.154 88.4007 135.645C89.9693 135.381 91.5415 135.046 93.1363 134.746C93.9336 134.591 94.7347 134.435 95.5396 134.28C96.3444 134.121 97.1437 133.926 97.9504 133.748C99.5638 133.383 101.192 133.017 102.83 132.646C104.458 132.229 106.1 131.809 107.751 131.386C109.409 130.986 111.047 130.48 112.707 130.009C114.362 129.526 116.037 129.071 117.688 128.517C119.346 127.983 121.012 127.446 122.682 126.909C124.336 126.321 125.995 125.73 127.657 125.138C129.328 124.569 130.96 123.888 132.615 123.252C134.264 122.606 135.922 121.971 137.543 121.253C144.108 118.544 150.492 115.4 156.665 112.087C162.857 108.796 168.719 105.128 174.29 101.42C175.669 100.471 177.037 99.5292 178.391 98.5971C179.738 97.6518 181.03 96.6598 182.332 95.709C182.98 95.2298 183.626 94.7525 184.268 94.2771C184.915 93.8091 185.52 93.2963 186.141 92.8115C187.377 91.8307 188.597 90.8611 189.803 89.9047C191.004 88.9445 192.137 87.9337 193.282 86.9735C193.851 86.4887 194.416 86.0077 194.976 85.5285C195.539 85.0531 196.093 84.5777 196.621 84.0817C197.69 83.1046 198.742 82.1426 199.775 81.1992C200.292 80.7275 200.803 80.2596 201.31 79.7954C201.8 79.3162 202.287 78.8408 202.766 78.371C204.675 76.4786 206.564 74.7136 208.224 72.9092C209.07 72.0202 209.894 71.1535 210.695 70.3112C211.096 69.8882 211.489 69.4727 211.878 69.0628C212.252 68.6417 212.621 68.2243 212.984 67.8162C214.435 66.1747 215.801 64.6548 217.048 63.2155C218.163 61.8641 219.191 60.6175 220.134 59.4757L227.039 67.2622C227.273 67.5579 227.748 67.3876 227.739 67.0114L225.841 38.7405Z" fill="#32F094"/>
<defs>
<linearGradient id="paint0_linear_596_3742" x1="265.582" y1="55.2105" x2="293.39" y2="59.6095" gradientUnits="userSpaceOnUse">
<stop stop-color="#32F094"/>
<stop offset="1" stop-color="#579AF2"/>
</linearGradient>
<linearGradient id="paint1_linear_596_3742" x1="255.171" y1="44.8528" x2="286.233" y2="51.4092" gradientUnits="userSpaceOnUse">
<stop stop-color="#32F094"/>
<stop offset="1" stop-color="#579AF2"/>
</linearGradient>
<linearGradient id="paint2_linear_596_3742" x1="270.879" y1="59.9382" x2="294.433" y2="64.9078" gradientUnits="userSpaceOnUse">
<stop stop-color="#32F094"/>
<stop offset="1" stop-color="#579AF2"/>
</linearGradient>
<linearGradient id="paint3_linear_596_3742" x1="260.617" y1="50.3959" x2="286.011" y2="53.2677" gradientUnits="userSpaceOnUse">
<stop stop-color="#32F094"/>
<stop offset="1" stop-color="#579AF2"/>
</linearGradient>
<linearGradient id="paint4_linear_596_3742" x1="256.622" y1="100.37" x2="261.516" y2="101.533" gradientUnits="userSpaceOnUse">
<stop stop-color="#32F094"/>
<stop offset="1" stop-color="#579AF2"/>
</linearGradient>
<linearGradient id="paint5_linear_596_3742" x1="256.622" y1="107.5" x2="261.516" y2="108.663" gradientUnits="userSpaceOnUse">
<stop stop-color="#32F094"/>
<stop offset="1" stop-color="#579AF2"/>
</linearGradient>
<linearGradient id="paint6_linear_596_3742" x1="256.622" y1="114.63" x2="261.516" y2="115.793" gradientUnits="userSpaceOnUse">
<stop stop-color="#32F094"/>
<stop offset="1" stop-color="#579AF2"/>
</linearGradient>
<linearGradient id="paint7_linear_596_3742" x1="256.622" y1="121.76" x2="261.516" y2="122.923" gradientUnits="userSpaceOnUse">
<stop stop-color="#32F094"/>
<stop offset="1" stop-color="#579AF2"/>
</linearGradient>
<clipPath id="clip0_596_3742">
<rect width="49.3053" height="49.3053" fill="white" transform="translate(256.826 43.9338)"/>
</clipPath>
<clipPath id="clip1_596_3742">
<rect width="61.7854" height="42.7607" fill="white" transform="translate(256.826 140.934)"/>
</clipPath>
</defs>
</svg>
