<svg width="606" height="404" viewBox="0 0 606 404" fill="none" xmlns="http://www.w3.org/2000/svg">
<path d="M425.85 329.964H179.81V174.224C179.81 169.404 183.72 165.494 188.54 165.494H417.12C421.94 165.494 425.85 169.404 425.85 174.224V329.964Z" fill="#99A3B0"/>
<path d="M182.43 327.344V174.224C182.43 170.854 185.17 168.114 188.54 168.114H417.12C420.49 168.114 423.23 170.854 423.23 174.224V327.344H182.43Z" fill="#313131"/>
<path d="M413.627 317.74V177.72L192.037 177.72L192.037 317.74H413.627Z" fill="#D2E1F4"/>
<path d="M444.919 329.964H160.739V337.464H444.919V329.964Z" fill="#C7D2D7"/>
<path d="M431.549 344.954H174.109C168.649 344.954 163.589 342.114 160.739 337.464H444.919C442.069 342.114 437.009 344.954 431.549 344.954Z" fill="#99A3B0"/>
<path d="M321.489 333.714H284.169C282.099 333.714 280.419 332.034 280.419 329.964H325.229C325.239 332.034 323.559 333.714 321.489 333.714Z" fill="#AAB4BF"/>
<path d="M320.979 227.844H284.679V242.214H320.979V227.844Z" fill="#F2904A"/>
<path d="M297.129 235.724V232.954H282.329V235.724V237.254V267.614H323.329V235.724H297.129Z" fill="#FECF8E"/>
<path d="M217.059 190.374H210.509V193.864H217.059V190.374Z" fill="white"/>
<path d="M254.37 190.374H223.6V193.864H254.37V190.374Z" fill="white"/>
<path d="M207.779 190.374H205.489V193.864H207.779V190.374Z" fill="white"/>
<path d="M217.059 199.974H210.509V203.464H217.059V199.974Z" fill="white"/>
<path d="M254.37 199.974H223.6V203.464H254.37V199.974Z" fill="white"/>
<path d="M207.779 199.974H205.489V203.464H207.779V199.974Z" fill="white"/>
<path d="M217.059 209.574H210.509V213.064H217.059V209.574Z" fill="white"/>
<path d="M254.37 209.574H223.6V213.064H254.37V209.574Z" fill="white"/>
<path d="M207.779 209.574H205.489V213.064H207.779V209.574Z" fill="white"/>
<path d="M217.059 219.184H210.509V222.674H217.059V219.184Z" fill="white"/>
<path d="M254.37 219.184H223.6V222.674H254.37V219.184Z" fill="white"/>
<path d="M207.779 219.184H205.489V222.674H207.779V219.184Z" fill="white"/>
<path d="M217.06 228.784H201.56V232.274H217.06V228.784Z" fill="white"/>
<path d="M263.1 228.784H223.6V232.274H263.1V228.784Z" fill="white"/>
<path d="M217.059 238.384H207.779V241.874H217.059V238.384Z" fill="white"/>
<path d="M267.32 238.384H223.6V241.874H267.32V238.384Z" fill="white"/>
<path d="M351.029 255.744H344.479V259.234H351.029V255.744Z" fill="white"/>
<path d="M388.349 255.744H357.579V259.234H388.349V255.744Z" fill="white"/>
<path d="M341.749 255.744H339.459V259.234H341.749V255.744Z" fill="white"/>
<path d="M351.029 265.344H344.479V268.834H351.029V265.344Z" fill="white"/>
<path d="M374.999 265.344H357.579V268.834H374.999V265.344Z" fill="white"/>
<path d="M341.749 265.344H339.459V268.834H341.749V265.344Z" fill="white"/>
<path d="M351.029 274.944H344.479V278.434H351.029V274.944Z" fill="white"/>
<path d="M395.589 274.944H357.579V278.434H395.589V274.944Z" fill="white"/>
<path d="M341.749 274.944H339.459V278.434H341.749V274.944Z" fill="white"/>
<path d="M351.029 284.554H344.479V288.044H351.029V284.554Z" fill="white"/>
<path d="M382.859 284.554H357.579V288.044H382.859V284.554Z" fill="white"/>
<path d="M341.749 284.554H339.459V288.044H341.749V284.554Z" fill="white"/>
<path d="M217.059 257.594H210.509V261.084H217.059V257.594Z" fill="white"/>
<path d="M254.37 257.594H223.6V261.084H254.37V257.594Z" fill="white"/>
<path d="M207.779 257.594H205.489V261.084H207.779V257.594Z" fill="white"/>
<path d="M217.059 267.194H200.689V270.684H217.059V267.194Z" fill="white"/>
<path d="M259.61 267.194H223.6V270.684H259.61V267.194Z" fill="white"/>
<path d="M217.059 286.404H210.509V289.894H217.059V286.404Z" fill="white"/>
<path d="M254.37 286.404H223.6V289.894H254.37V286.404Z" fill="white"/>
<path d="M207.779 286.404H205.489V289.894H207.779V286.404Z" fill="white"/>
<path d="M217.059 296.004H210.509V299.494H217.059V296.004Z" fill="white"/>
<path d="M254.37 296.004H223.6V299.494H254.37V296.004Z" fill="white"/>
<path d="M207.779 296.004H205.489V299.494H207.779V296.004Z" fill="white"/>
<path d="M217.059 305.614H210.509V309.104H217.059V305.614Z" fill="white"/>
<path d="M254.37 305.614H223.6V309.104H254.37V305.614Z" fill="white"/>
<path d="M207.779 305.614H205.489V309.104H207.779V305.614Z" fill="white"/>
<path d="M342.28 196.944H334.42V200.434H342.28V196.944Z" fill="white"/>
<path d="M389.1 196.944H347.74V200.434H389.1V196.944Z" fill="white"/>
<path d="M398.04 196.944H393.13V200.434H398.04V196.944Z" fill="white"/>
<path d="M342.28 206.744H334.42V210.234H342.28V206.744Z" fill="white"/>
<path d="M389.1 206.744H347.74V210.234H389.1V206.744Z" fill="white"/>
<path d="M398.04 206.744H393.13V210.234H398.04V206.744Z" fill="white"/>
<path d="M342.28 216.544H334.42V220.034H342.28V216.544Z" fill="white"/>
<path d="M375.95 216.544H347.74V220.034H375.95V216.544Z" fill="white"/>
<path d="M342.28 226.344H334.42V229.834H342.28V226.344Z" fill="white"/>
<path d="M368.42 226.344H347.74V229.834H368.42V226.344Z" fill="white"/>
<path d="M265.29 189.314H264.42V220.924H265.29V189.314Z" fill="white"/>
<path d="M294.539 245.374H293.659V217.414H284.519L276.019 208.924H269.869V208.054H276.379L284.879 216.544H294.539V245.374Z" fill="white"/>
<path d="M275.73 263.704H264.85V262.834H275.37L283.86 254.334H294.1V255.214H284.22L275.73 263.704Z" fill="white"/>
<path d="M282.169 298.184H263.979V297.314H281.809L302.739 276.384V260.794H303.609V276.744L282.169 298.184Z" fill="white"/>
<path d="M310.72 243.914H309.85V220.054L321.86 208.054H327.57V208.924H322.22L310.72 220.414V243.914Z" fill="white"/>
<path d="M334.419 275.494H325.059L312.869 263.304V254.774H313.739V262.944L325.419 274.614H334.419V275.494Z" fill="white"/>
<path d="M334.859 251.774H333.989V243.044H343.129V243.914H334.859V251.774Z" fill="white"/>
<path d="M401.039 300.594H382.859V299.714H400.169V284.874H401.039V300.594Z" fill="white"/>
<path d="M380.529 243.044H353.249V243.914H380.529V243.044Z" fill="white"/>
<path d="M395.59 243.044H389.26V243.914H395.59V243.044Z" fill="white"/>
<path opacity="0.6" d="M519.859 200.704H373.199C370.309 200.704 367.959 198.354 367.959 195.464V146.574C367.959 143.684 370.309 141.334 373.199 141.334H519.869C522.759 141.334 525.109 143.684 525.109 146.574V195.464C525.099 198.354 522.749 200.704 519.859 200.704Z" fill="url(#paint0_linear_582_3176)"/>
<g opacity="0.7">
<path d="M386.968 149.854H381.898V153.344H386.968V149.854Z" fill="white"/>
<path d="M431.568 149.854H390.948V153.344H431.568V149.854Z" fill="white"/>
<path d="M386.968 157.634H381.898V161.124H386.968V157.634Z" fill="white"/>
<path d="M431.568 157.634H390.948V161.124H431.568V157.634Z" fill="white"/>
<path d="M445.238 165.414H390.948V168.904H445.238V165.414Z" fill="white"/>
<path d="M511.158 150.064H457.318V156.174H511.158V150.064Z" fill="white"/>
<path d="M511.158 160.544H457.318V166.654H511.158V160.544Z" fill="white"/>
<path d="M390.949 181.064C390.949 183.564 388.919 185.594 386.419 185.594C383.919 185.594 381.889 183.564 381.889 181.064C381.889 178.564 383.919 176.534 386.419 176.534C388.929 176.544 390.949 178.564 390.949 181.064Z" fill="#8BF6F1"/>
<path d="M405.798 181.064C405.798 183.564 403.768 185.594 401.268 185.594C398.768 185.594 396.738 183.564 396.738 181.064C396.738 178.564 398.768 176.534 401.268 176.534C403.768 176.544 405.798 178.564 405.798 181.064Z" fill="#8BF6F1"/>
<path d="M420.639 181.064C420.639 183.564 418.609 185.594 416.109 185.594C413.609 185.594 411.579 183.564 411.579 181.064C411.579 178.564 413.609 176.534 416.109 176.534C418.609 176.544 420.639 178.564 420.639 181.064Z" fill="#8BF6F1"/>
<path d="M390.958 189.994H381.898V193.484H390.958V189.994Z" fill="white"/>
<path d="M405.798 189.994H396.738V193.484H405.798V189.994Z" fill="white"/>
<path d="M420.639 189.994H411.579V193.484H420.639V189.994Z" fill="white"/>
<path d="M435.479 189.994H426.419V193.484H435.479V189.994Z" fill="white"/>
<path d="M450.319 189.994H441.259V193.484H450.319V189.994Z" fill="white"/>
<path d="M499.368 176.404H477.688V179.894H499.368V176.404Z" fill="white"/>
<path d="M499.368 183.094H477.688V186.584H499.368V183.094Z" fill="white"/>
<path d="M499.368 189.794H477.688V193.284H499.368V189.794Z" fill="white"/>
</g>
<path opacity="0.6" d="M538.609 302.234H402.849C399.959 302.234 397.609 299.884 397.609 296.994V248.104C397.609 245.214 399.959 242.864 402.849 242.864H538.599C541.489 242.864 543.839 245.214 543.839 248.104V296.994C543.839 299.884 541.499 302.234 538.609 302.234Z" fill="url(#paint1_linear_582_3176)"/>
<g opacity="0.7">
<path d="M442.96 290.124H425.39V289.254H442.09V272.554H442.96V290.124Z" fill="white"/>
<path d="M408.69 272.554H407.81V254.974H425.39V255.854H408.69V272.554Z" fill="white"/>
<path d="M434.669 263.274H416.109V281.834H434.669V263.274Z" fill="white"/>
<path d="M476.099 253.384H454.869V256.874H476.099V253.384Z" fill="white"/>
<path d="M499.519 260.074H454.869V263.564H499.519V260.074Z" fill="white"/>
<path d="M499.519 266.764H454.869V270.254H499.519V266.764Z" fill="white"/>
<path d="M488.169 273.464H454.869V276.954H488.169V273.464Z" fill="white"/>
<path d="M460.089 282.484H454.869V285.104H460.089V282.484Z" fill="white"/>
<path d="M484.249 282.484H464.039V285.104H484.249V282.484Z" fill="white"/>
<path d="M505.92 282.484H488.77V285.104H505.92V282.484Z" fill="white"/>
<path d="M460.089 288.664H454.869V291.284H460.089V288.664Z" fill="white"/>
<path d="M484.249 288.664H464.039V291.284H484.249V288.664Z" fill="white"/>
<path d="M499.52 288.664H488.77V291.284H499.52V288.664Z" fill="white"/>
<path d="M513.34 251.384H512.47V293.724H513.34V251.384Z" fill="white"/>
<path d="M520.4 254.084H517.64V255.834H520.4V254.084Z" fill="white"/>
<path d="M533.64 254.084H523.75V255.834H533.64V254.084Z" fill="white"/>
<path d="M520.4 257.994H517.64V259.744H520.4V257.994Z" fill="white"/>
<path d="M533.64 257.994H523.75V259.744H533.64V257.994Z" fill="white"/>
<path d="M520.4 261.904H517.64V263.654H520.4V261.904Z" fill="white"/>
<path d="M533.64 261.904H523.75V263.654H533.64V261.904Z" fill="white"/>
<path d="M520.4 269.724H517.64V271.474H520.4V269.724Z" fill="white"/>
<path d="M533.64 269.724H523.75V271.474H533.64V269.724Z" fill="white"/>
<path d="M520.4 273.634H517.64V275.384H520.4V273.634Z" fill="white"/>
<path d="M533.64 273.634H523.75V275.384H533.64V273.634Z" fill="white"/>
<path d="M520.4 277.544H517.64V279.294H520.4V277.544Z" fill="white"/>
<path d="M533.64 277.544H523.75V279.294H533.64V277.544Z" fill="white"/>
<path d="M520.4 285.364H517.64V287.114H520.4V285.364Z" fill="white"/>
<path d="M533.64 285.364H523.75V287.114H533.64V285.364Z" fill="white"/>
<path d="M520.4 289.274H517.64V291.024H520.4V289.274Z" fill="white"/>
<path d="M533.64 289.274H523.75V291.024H533.64V289.274Z" fill="white"/>
</g>
<path opacity="0.6" d="M89.0297 228.524H208.95C212.18 228.524 214.8 225.904 214.8 222.674V157.544C214.8 154.314 212.18 151.694 208.95 151.694H89.0297C85.7997 151.694 83.1797 154.314 83.1797 157.544V222.674C83.1797 225.904 85.7997 228.524 89.0297 228.524Z" fill="url(#paint2_linear_582_3176)"/>
<g opacity="0.8">
<path d="M116.02 187.314C121.04 187.314 125.11 183.244 125.11 178.224C125.11 173.203 121.04 169.134 116.02 169.134C110.999 169.134 106.93 173.203 106.93 178.224C106.93 183.244 110.999 187.314 116.02 187.314Z" fill="white"/>
<path d="M129.549 210.814H102.489V203.614C102.489 196.144 108.549 190.084 116.019 190.084C123.489 190.084 129.549 196.144 129.549 203.614V210.814Z" fill="white"/>
<path d="M97.6796 182.804H96.8096V164.034H114.42V164.914H97.6796V182.804Z" fill="white"/>
<path d="M134.86 216.704H117.26V215.834H133.99V197.934H134.86V216.704Z" fill="white"/>
<path d="M109.69 215.834H97.25V216.704H109.69V215.834Z" fill="white"/>
<path d="M134.859 169.134H133.989V164.914H121.909V164.034H134.859V169.134Z" fill="white"/>
<path d="M134.859 175.244H133.989V180.334H134.859V175.244Z" fill="white"/>
<path d="M173.209 164.474H144.029V167.964H173.209V164.474Z" fill="white"/>
<path d="M201.179 172.914H144.029V176.404H201.179V172.914Z" fill="white"/>
<path d="M186.229 179.894H144.029V183.384H186.229V179.894Z" fill="white"/>
<path d="M147.959 190.374H144.029V193.864H147.959V190.374Z" fill="#8BF6F1"/>
<path d="M171.38 190.374H152.25V193.864H171.38V190.374Z" fill="white"/>
<path d="M147.959 197.504H144.029V200.994H147.959V197.504Z" fill="#8BF6F1"/>
<path d="M179.39 197.504H152.25V200.994H179.39V197.504Z" fill="white"/>
<path d="M147.959 204.634H144.029V208.124H147.959V204.634Z" fill="#8BF6F1"/>
<path d="M193.79 204.634H152.25V208.124H193.79V204.634Z" fill="white"/>
<path d="M147.959 211.764H144.029V215.254H147.959V211.764Z" fill="#8BF6F1"/>
<path d="M185.43 211.764H152.25V215.254H185.43V211.764Z" fill="white"/>
</g>
<path opacity="0.6" d="M67.0593 310.814H192.049C194.939 310.814 197.289 308.464 197.289 305.574V270.504C197.289 267.614 194.939 265.264 192.049 265.264H67.0593C64.1693 265.264 61.8193 267.614 61.8193 270.504V305.574C61.8193 308.464 64.1593 310.814 67.0593 310.814Z" fill="url(#paint3_linear_582_3176)"/>
<g opacity="0.8">
<path d="M88.9591 274.404H72.3691V290.994H88.9591V274.404Z" fill="white"/>
<path d="M112.379 272.794H105.249V276.284H112.379V272.794Z" fill="white"/>
<path d="M138.419 272.794H118.339V276.284H138.419V272.794Z" fill="white"/>
<path d="M186.729 272.794H173.739V276.284H186.729V272.794Z" fill="#8BF6F1"/>
<path d="M186.729 279.494H173.739V282.984H186.729V279.494Z" fill="#8BF6F1"/>
<path d="M186.729 286.184H173.739V289.674H186.729V286.184Z" fill="#8BF6F1"/>
<path d="M186.729 292.874H173.739V296.364H186.729V292.874Z" fill="#8BF6F1"/>
<path d="M186.729 299.574H173.739V303.064H186.729V299.574Z" fill="#8BF6F1"/>
<path d="M150.529 279.494H105.249V282.984H150.529V279.494Z" fill="white"/>
<path d="M140.829 286.334H105.249V289.824H140.829V286.334Z" fill="white"/>
<path d="M153.989 293.164H105.249V296.654H153.989V293.164Z" fill="white"/>
<path d="M158.939 300.004H105.249V303.494H158.939V300.004Z" fill="white"/>
<path d="M99.1395 271.964H98.2695V304.334H99.1395V271.964Z" fill="white"/>
<path d="M167.159 271.964H166.289V304.334H167.159V271.964Z" fill="white"/>
</g>
<path d="M273.119 159.842C260.457 154.911 249.707 146.375 242.034 135.155C234.361 123.935 230.311 110.829 230.311 97.2359V65.0523C230.311 63.979 231.041 63.0566 232.089 62.8134L250.839 58.4194V42.3947C250.839 41.2543 251.694 40.2732 252.826 40.1138L295.467 34.2188V26.8312L251.82 32.8687C247.065 33.5228 243.518 37.5982 243.518 42.3947V52.6166L230.42 55.6857C226.068 56.7088 222.999 60.5829 222.999 65.0523V97.2359C222.999 127.952 241.85 155.515 270.469 166.66L295.475 176.395V168.538L273.119 159.842Z" fill="#71ACFA"/>
<path d="M360.513 55.6857L347.415 52.6166V42.3947C347.415 37.5898 343.868 33.5228 339.113 32.8687L295.467 26.8312V34.2188L338.116 40.1138C339.248 40.2732 340.103 41.2459 340.103 42.3947V58.4194L358.853 62.8134C359.901 63.0566 360.631 63.979 360.631 65.0523V97.2359C360.631 110.829 356.58 123.935 348.908 135.155C341.235 146.375 330.493 154.911 317.831 159.842L295.484 168.546V176.404L320.489 166.668C349.109 155.524 367.96 127.96 367.96 97.2443V65.0523C367.943 60.5829 364.865 56.7004 360.513 55.6857Z" fill="#5995E3"/>
<path d="M250.838 42.3947V58.4195L232.088 62.8135C231.04 63.0567 230.311 63.9791 230.311 65.0524V97.236C230.311 110.829 234.361 123.935 242.033 135.155C249.706 146.375 260.448 154.912 273.119 159.842L295.466 168.546V164.622V37.9169V34.2189L252.817 40.1139C251.694 40.2732 250.838 41.2543 250.838 42.3947Z" fill="#579AF2"/>
<path d="M295.467 164.614V168.538L317.814 159.834C330.476 154.903 341.227 146.367 348.891 135.147C356.564 123.927 360.614 110.821 360.614 97.2276V65.0524C360.614 63.9791 359.884 63.0567 358.836 62.8135L340.086 58.4195V42.3947C340.086 41.2543 339.231 40.2732 338.099 40.1139L295.467 34.2189V37.9169V164.614Z" fill="#2D7ADF"/>
<path d="M327.307 91.8776H263.619V134.333H327.307V91.8776Z" fill="#D6F7EE"/>
<path d="M279.727 85.5465H271.677V91.886H279.727V85.5465Z" fill="#9DD3E4"/>
<path d="M318.158 85.5465H310.108V91.886H318.158V85.5465Z" fill="#9DD3E4"/>
<path d="M318.158 79.249C318.158 66.436 307.735 56.0044 294.914 56.0044C282.101 56.0044 271.669 66.4276 271.669 79.249V85.5382H279.719V79.249C279.719 70.8719 286.536 64.0629 294.905 64.0629C303.282 64.0629 310.1 70.8803 310.1 79.249V85.5382H318.15V79.249H318.158Z" fill="#D6F7EE"/>
<path d="M300.969 107.5C300.969 104.464 298.503 101.999 295.468 101.999C292.432 101.999 289.967 104.464 289.967 107.5C289.967 109.437 290.965 111.131 292.482 112.112L289.967 124.221H300.977L298.461 112.112C299.971 111.131 300.969 109.428 300.969 107.5Z" fill="#313131"/>
<defs>
<linearGradient id="paint0_linear_582_3176" x1="357.413" y1="143.547" x2="515.004" y2="231.555" gradientUnits="userSpaceOnUse">
<stop stop-color="#32F094"/>
<stop offset="1" stop-color="#579AF2"/>
</linearGradient>
<linearGradient id="paint1_linear_582_3176" x1="387.796" y1="245.077" x2="539.267" y2="323.789" gradientUnits="userSpaceOnUse">
<stop stop-color="#32F094"/>
<stop offset="1" stop-color="#579AF2"/>
</linearGradient>
<linearGradient id="paint2_linear_582_3176" x1="74.3465" y1="154.558" x2="227.493" y2="209.911" gradientUnits="userSpaceOnUse">
<stop stop-color="#32F094"/>
<stop offset="1" stop-color="#579AF2"/>
</linearGradient>
<linearGradient id="paint3_linear_582_3176" x1="52.7278" y1="266.962" x2="180.6" y2="347.198" gradientUnits="userSpaceOnUse">
<stop stop-color="#32F094"/>
<stop offset="1" stop-color="#579AF2"/>
</linearGradient>
</defs>
</svg>
